<svg xmlns="http://www.w3.org/2000/svg" version="1.1" xmlns:xlink="http://www.w3.org/1999/xlink" width="800" height="800" x="0" y="0" viewBox="0 0 512 512" style="enable-background:new 0 0 512 512" xml:space="preserve" class=""><defs><linearGradient id="a" x1="35.19" x2="424.906" y1="388.519" y2="-1.197" gradientUnits="userSpaceOnUse"><stop stop-opacity="0" stop-color="#b6c4ff" offset="0"></stop><stop stop-opacity="1" stop-color="#d1ddff" offset="1"></stop><stop stop-opacity="1" stop-color="#d1ddff" offset="1"></stop></linearGradient></defs><g><linearGradient id="a" x1="35.19" x2="424.906" y1="388.519" y2="-1.197" gradientUnits="userSpaceOnUse"><stop stop-opacity="0" stop-color="#b6c4ff" offset="0"></stop><stop stop-opacity="1" stop-color="#d1ddff" offset="1"></stop><stop stop-opacity="1" stop-color="#d1ddff" offset="1"></stop></linearGradient><path fill="url(&quot;#a&quot;)" d="M506.654 127.571C499.388 71.399 468.832 0 339.268 0c-89.477 0-90.686 42.86-185.991 21.61C83.824 6.125 14.766 57.209 5.166 128.571-5.19 205.555 50.497 240.846 68.575 305.437 88.076 375.109 102.082 512 188.852 512c95.678 0 100.618-74.035 162.591-155.271 59.629-78.166 170.626-109.984 155.211-229.158z" opacity="1" data-original="url(#a)" class=""></path><path fill="#0000CB" d="M471.733 229.97H449.46v-20.41c16.199-8.858 27.188-26.053 27.188-45.818 0-28.823-23.365-52.188-52.188-52.188s-52.188 23.365-52.188 52.188c0 5.734.938 11.246 2.647 16.407H176.36c-5.53 0-10 4.48-10 10v39.82H40.267a5 5 0 0 0-5 5v59.85a5 5 0 0 0 5 5h99.881c-11.851 10.491-19.33 25.809-19.33 42.88a56.988 56.988 0 0 0 8.102 29.367l-51.507 51.507a5 5 0 0 0 0 7.071l12.724 12.724a5 5 0 0 0 7.071 0l51.507-51.506a56.988 56.988 0 0 0 29.367 8.102c29.275 0 53.403-21.973 56.83-50.324H439.46c5.52 0 10-4.48 10-10v-39.82h22.273a5 5 0 0 0 5-5v-59.85a5 5 0 0 0-5-5z" opacity="1" data-original="#0000cb10" fill-opacity="0.063"></path><path fill="#6582FD" d="M471.733 205.97H107.824v69.85h363.908a5 5 0 0 0 5-5v-59.85a4.999 4.999 0 0 0-4.999-5z" opacity="1" data-original="#6582fd" class=""></path><path fill="#FFFFFF" d="M107.824 275.819H40.271a5 5 0 0 1-5-5v-59.852a5 5 0 0 1 5-5h67.553a5 5 0 0 1 5 5v59.852a5 5 0 0 1-5 5z" opacity="1" data-original="#ffffff" class=""></path><path fill="#6582FD" d="m95.029 252.901-7.958-7.958c3.32-6.337 2.321-14.364-2.998-19.683-6.55-6.549-17.206-6.549-23.756 0-6.549 6.549-6.549 17.207 0 23.756a16.749 16.749 0 0 0 11.878 4.912A16.82 16.82 0 0 0 80 252.014l7.958 7.958c.977.976 2.256 1.464 3.536 1.464s2.559-.488 3.536-1.464a5 5 0 0 0-.001-7.071zm-27.64-10.955a6.806 6.806 0 0 1 0-9.613c1.325-1.325 3.066-1.988 4.807-1.988s3.481.663 4.807 1.988c2.65 2.65 2.65 6.963 0 9.613s-6.964 2.65-9.614 0z" opacity="1" data-original="#6582fd" class=""></path><path fill="#FFFFFF" d="M141.268 261.165h-11.396a3 3 0 0 1-3-3v-34.544a3 3 0 0 1 3-3h11.396a3 3 0 0 1 3 3v34.544a3 3 0 0 1-3 3zM449.46 166.15v149.49c0 5.52-4.48 10-10 10h-263.1c-5.53 0-10-4.48-10-10V166.15c0-5.52 4.47-10 10-10h263.1c5.52 0 10 4.48 10 10z" opacity="1" data-original="#ffffff" class=""></path><path fill="#6582FD" d="M191.36 181.15h233.1v119.49h-233.1z" opacity="1" data-original="#6582fd" class=""></path><path fill="#FFFFFF" d="M250.864 266.6a5.001 5.001 0 0 1-4.673-3.223l-8.443-22.21-8.443 22.21a5 5 0 0 1-9.44-.267l-13.117-41.412a5 5 0 0 1 9.533-3.019l8.78 27.72 8.013-21.08a5.001 5.001 0 0 1 9.348 0l8.013 21.08 8.78-27.72a5 5 0 0 1 9.533 3.019l-13.117 41.412a5.001 5.001 0 0 1-4.625 3.488l-.142.002zM321.023 266.6a5.001 5.001 0 0 1-4.673-3.223l-8.443-22.21-8.443 22.21a4.999 4.999 0 0 1-9.44-.267l-13.117-41.412a5 5 0 0 1 9.533-3.019l8.78 27.72 8.013-21.08a5.001 5.001 0 0 1 9.348 0l8.013 21.08 8.78-27.72a5 5 0 0 1 9.533 3.019L325.79 263.11a5.001 5.001 0 0 1-4.625 3.488l-.142.002zM364.951 266.6c-.047 0-.095 0-.142-.002a5 5 0 0 1-4.625-3.488l-13.117-41.412a5 5 0 0 1 9.533-3.019l8.78 27.72 8.014-21.08a5.001 5.001 0 0 1 9.348 0l8.013 21.08 8.78-27.72a5 5 0 1 1 9.533 3.019l-13.117 41.412a5.001 5.001 0 0 1-4.625 3.488 5.012 5.012 0 0 1-4.815-3.221l-8.443-22.21-8.443 22.21a5.003 5.003 0 0 1-4.674 3.223z" opacity="1" data-original="#ffffff" class=""></path><circle cx="424.46" cy="139.743" r="52.188" fill="#FFFFFF" opacity="1" data-original="#ffffff" class=""></circle><path fill="#6582FD" d="M424.46 105.306c-18.988 0-34.437 15.448-34.437 34.437s15.448 34.437 34.437 34.437 34.437-15.448 34.437-34.437-15.448-34.437-34.437-34.437zm23.921 29.437h-7.288c-.355-5.37-1.282-10.588-2.764-15.104 5.066 3.505 8.75 8.871 10.052 15.104zm-23.889 29.436h-.014c-.377-.085-2.22-1.421-3.984-6.166-1.376-3.7-2.285-8.295-2.65-13.271h13.233c-.366 4.976-1.275 9.571-2.651 13.271-1.763 4.742-3.604 6.079-3.934 6.166zm-6.649-29.436c.366-4.976 1.275-9.57 2.651-13.271 1.762-4.741 3.603-6.078 3.934-6.165h.014c.377.085 2.22 1.42 3.984 6.165 1.376 3.701 2.285 8.295 2.651 13.271zm-7.252-15.104c-1.482 4.516-2.409 9.734-2.764 15.104h-7.288c1.302-6.233 4.986-11.599 10.052-15.104zm-10.052 25.104h7.288c.355 5.371 1.282 10.588 2.764 15.105-5.066-3.506-8.75-8.872-10.052-15.105zm37.79 15.104c1.482-4.516 2.41-9.734 2.764-15.105h7.288c-1.302 6.234-4.986 11.6-10.052 15.105zM94.919 382.069l47.195-47.196 19.795 19.795-47.195 47.195-6.146-.145-12.643-12.643z" opacity="1" data-original="#6582fd" class=""></path><path fill="#FFFFFF" d="m94.919 382.069-17.505 17.505a5 5 0 0 0 0 7.071l12.724 12.723a5 5 0 0 0 7.071 0l17.505-17.505z" opacity="1" data-original="#ffffff" class=""></path><circle cx="178.082" cy="318.7" r="57.264" fill="#FFFFFF" opacity="1" data-original="#ffffff" class=""></circle><ellipse cx="178.082" cy="318.7" fill="#6582FD" rx="42.264" ry="42.263" transform="rotate(-80.8 178.026 318.714)" opacity="1" data-original="#6582fd" class=""></ellipse><g fill="#FFFFFF"><circle cx="160.246" cy="318.7" r="5" fill="#FFFFFF" opacity="1" data-original="#ffffff" class=""></circle><circle cx="178.082" cy="318.7" r="5" fill="#FFFFFF" opacity="1" data-original="#ffffff" class=""></circle><circle cx="195.918" cy="318.7" r="5" fill="#FFFFFF" opacity="1" data-original="#ffffff" class=""></circle></g><path fill="#0000CB" d="M471.73 200.97h-17.27v-12.566c16.301-10.087 27.188-28.123 27.188-48.661 0-31.533-25.654-57.188-57.188-57.188s-57.188 25.654-57.188 57.188c0 3.905.396 7.72 1.145 11.407H176.36c-8.271 0-15 6.729-15 15v34.82H40.27c-5.514 0-10 4.486-10 10v59.851c0 5.514 4.486 10 10 10h88.445c-8.078 10.503-12.897 23.636-12.897 37.88a61.854 61.854 0 0 0 6.922 28.476l-48.862 48.861c-3.899 3.899-3.899 10.244 0 14.143l12.724 12.724c1.95 1.949 4.51 2.924 7.071 2.924s5.122-.975 7.071-2.924l30.387-30.387a5 5 0 1 0-7.071-7.071l-30.387 30.387-12.723-12.725 47.223-47.223c11.363 15.211 29.505 25.078 49.909 25.078 30.249 0 55.516-21.685 61.103-50.324H439.46c8.271 0 15-6.729 15-15v-34.82h17.27c5.514 0 10-4.486 10-10v-59.85c0-5.514-4.486-10-10-10zM424.46 92.555c26.02 0 47.188 21.168 47.188 47.188s-21.168 47.188-47.188 47.188-47.188-21.168-47.188-47.188c0-26.019 21.168-47.188 47.188-47.188zM178.082 370.964c-28.818 0-52.264-23.445-52.264-52.264 0-28.818 23.445-52.263 52.264-52.263s52.264 23.445 52.264 52.263c0 28.819-23.446 52.264-52.264 52.264zM444.46 315.64c0 2.757-2.243 5-5 5H240.297c.02-.646.049-1.289.049-1.94 0-34.332-27.931-62.263-62.264-62.263-15.101 0-28.961 5.408-39.753 14.383H40.27v-59.85h121.09v21.58a5 5 0 0 0 10 0v-66.4c0-2.757 2.243-5 5-5h195.085c8.493 20.956 29.049 35.781 53.015 35.781a56.901 56.901 0 0 0 20-3.617zm27.27-44.82h-17.27v-59.85h17.27z" opacity="1" data-original="#0000cb"></path><path fill="#6582FD" d="M268.983 397.569a5 5 0 0 1-5-5c0-3.033-2.467-5.5-5.5-5.5a5 5 0 0 1 0-10c3.033 0 5.5-2.467 5.5-5.5a5 5 0 0 1 10 0c0 3.033 2.467 5.5 5.5 5.5a5 5 0 0 1 0 10 5.506 5.506 0 0 0-5.5 5.5 5 5 0 0 1-5 5zM96.494 169.139a5 5 0 0 1-5-5c0-3.033-2.467-5.5-5.5-5.5a5 5 0 0 1 0-10c3.033 0 5.5-2.467 5.5-5.5a5 5 0 0 1 10 0c0 3.033 2.467 5.5 5.5 5.5a5 5 0 0 1 0 10 5.506 5.506 0 0 0-5.5 5.5 5 5 0 0 1-5 5zM262.746 73.617a5 5 0 0 1-5-5c0-3.033-2.467-5.5-5.5-5.5a5 5 0 0 1 0-10c3.033 0 5.5-2.467 5.5-5.5a5 5 0 0 1 10 0c0 3.033 2.467 5.5 5.5 5.5a5 5 0 0 1 0 10 5.506 5.506 0 0 0-5.5 5.5 5 5 0 0 1-5 5zM318.408 123.509a4.987 4.987 0 0 1-3.536-1.464l-10.5-10.5a5 5 0 0 1 0-7.071l10.5-10.5a5.001 5.001 0 0 1 7.071 0l10.5 10.5a5 5 0 0 1 0 7.071l-10.5 10.5a4.983 4.983 0 0 1-3.535 1.464zm-3.429-15.5 3.429 3.429 3.429-3.429-3.429-3.429zM352.264 420.422a4.987 4.987 0 0 1-3.536-1.464l-10.5-10.5a5 5 0 0 1 0-7.071l10.5-10.5a5.001 5.001 0 0 1 7.071 0l10.5 10.5a5 5 0 0 1 0 7.071l-10.5 10.5a4.984 4.984 0 0 1-3.535 1.464zm-3.429-15.5 3.429 3.429 3.429-3.429-3.429-3.429z" opacity="1" data-original="#6582fd" class=""></path></g></svg>