<svg xmlns="http://www.w3.org/2000/svg" version="1.1" xmlns:xlink="http://www.w3.org/1999/xlink" width="800" height="800" x="0" y="0" viewBox="0 0 2833 2833" style="enable-background:new 0 0 512 512" xml:space="preserve" fill-rule="evenodd" class=""><g><circle cx="1417" cy="1417" r="1417" fill="#1D81CE" opacity="1" data-original="#1d81ce" class=""></circle><path fill="#FFFFFF" d="M1644 1748c-43 0-86-11-123-33l-291-168c-14-8-19-27-11-41l60-104c9-14 27-19 41-11l291 168c32 18 73 7 91-24l320-555c18-31 7-72-24-90l-239-138c-32-18-73-7-91 24l-190 329c-8 15-27 20-41 11l-104-60c-14-8-19-26-11-40l190-330c68-117 219-158 337-90l239 138c117 68 158 219 90 336l-321 555c-43 76-125 123-213 123zm-537 522c-43 0-85-11-122-33l-239-138c-118-68-158-219-90-336l320-555c68-117 219-157 336-90l291 168c14 8 19 27 11 41l-60 104c-8 14-27 19-41 11l-291-168c-31-18-72-7-90 24l-321 555c-18 32-7 72 25 90l239 138c31 18 72 7 90-24l190-329c8-14 27-19 41-11l104 60c14 8 19 26 11 41l-190 329c-44 76-126 123-214 123z" opacity="1" data-original="#ffffff"></path></g></svg>