<?xml version="1.0" encoding="utf-8"?>
<!-- Generator: Adobe Illustrator 24.2.1, SVG Export Plug-In . SVG Version: 6.00 Build 0)  -->
<svg version="1.1" id="Layer_1" xmlns="http://www.w3.org/2000/svg" xmlns:xlink="http://www.w3.org/1999/xlink" x="0px" y="0px"
	 viewBox="0 0 254 62.7" style="enable-background:new 0 0 254 62.7;" xml:space="preserve">
<style type="text/css">
	.st0{fill:#FFFFFF;stroke:#818285;stroke-miterlimit:10;}
	.st1{fill:none;}
	.st2{fill:url(#XMLID_2_);}
	.st3{fill:url(#XMLID_3_);}
	.st4{fill:url(#XMLID_4_);}
	.st5{fill:#167EC2;}
	.st6{fill:#010101;}
	.st7{fill:url(#XMLID_5_);}
	.st8{fill:url(#XMLID_6_);}
	.st9{fill:url(#XMLID_7_);}
	.st10{fill:url(#XMLID_8_);}
	.st11{fill:url(#XMLID_9_);}
	.st12{fill:url(#XMLID_10_);}
	.st13{fill:url(#XMLID_11_);}
	.st14{fill:url(#XMLID_12_);}
	.st15{fill:#050505;}
</style>
<g>
	<g>
		<path id="XMLID_1320_" class="st0" d="M60,31.1L30.2,1.4l0,0L0.8,31.2l0,0c0,0,18.4,18.5,18.3,18.5H4.3c-0.6,0-1.1,0.5-1.1,1.1
			v9.3c0,0.7,0.6,1.2,1.2,1.2h51.8c0.6,0,1.1-0.5,1.1-1.1v-9.6c0-0.6-0.4-1-1-1H41.6C41.6,49.7,60,31.1,60,31.1z"/>
		<g id="XMLID_42_">
			<g id="XMLID_1306_">
				<polygon id="XMLID_1319_" class="st1" points="31.4,47.3 29.8,49.2 31.2,49.2 33,47.3 				"/>
				<polygon id="XMLID_1318_" class="st1" points="35,47.3 33.3,49.2 34.8,49.2 36.5,47.3 				"/>
				<polygon id="XMLID_1317_" class="st1" points="27.9,47.3 26.2,49.2 27.7,49.2 29.5,47.3 				"/>
				<polygon id="XMLID_1316_" class="st1" points="24.4,47.3 22.7,49.2 24.2,49.2 26,47.3 				"/>
				<path id="XMLID_1313_" class="st1" d="M46.7,38.2c1.3,0,2.2-0.3,2.7-0.5l-0.2-1.1c-1.8,0.8-5.1,0.7-5-2.4h5.6
					c0.2-1.8-0.3-4.5-3.3-4.6C41.6,29.5,41.4,38.6,46.7,38.2z M46.3,30.8c1.6,0,2,1.5,2,2.4h-4.2C44.2,32.1,44.9,30.8,46.3,30.8z"/>
				
					<linearGradient id="XMLID_2_" gradientUnits="userSpaceOnUse" x1="857.7764" y1="306.0511" x2="857.7764" y2="286.1245" gradientTransform="matrix(2.6667 0 0 -2.6667 -2250.7322 820.4948)">
					<stop  offset="0" style="stop-color:#2BACE2"/>
					<stop  offset="0.4095" style="stop-color:#1284C7"/>
					<stop  offset="0.8157" style="stop-color:#0F60AD"/>
					<stop  offset="1" style="stop-color:#07519F"/>
				</linearGradient>
				<path id="XMLID_1310_" class="st2" d="M24.4,47.3H26l-1.7,1.9h2l1.7-1.9h1.5l-1.7,1.9h2l1.7-1.9H33l-1.7,1.9h2l1.7-1.9h1.5
					l-1.7,1.9h5l12.3-12.3C51.8,36,52,32,52,31.1h-1.2V30H52v-2l1.4-0.4V30h2.1v1.1h-2.1c0,0.3,0,4.3,0,4.6l4.4-4.4L30.4,3.9
					L21,13.3c4.5-0.2,8.4,3.3,8.2,10l4.1-8.9h5.3l-9.5,19.1c-0.4,1-0.4,9.1,4.8,4.7c0,0,0,0,0.1-0.1c0-1.6,0-6.7-0.1-8.2h1.3
					l0.1,1.4l0,0c1.3-2.3,5.5-2.4,5.5,1.9v4.9h-1.5c-0.3-1.7,1.1-7.2-1.9-7.1c-1.2,0-2.1,1.1-2.1,2.2v4.7v0.2l0,0
					c-1.2,3.3-9.9,11.1-9-1.5c-2,3.6-6.6,6.7-10.7,7.4l4.3,4.3l0.8-0.9h1.5l-1.6,1.7l0.2,0.2h1.7L24.4,47.3z M46.5,29.7
					c2.9,0.1,3.5,2.8,3.3,4.6h-5.6c0,3.1,3.2,3.2,5,2.4l0.2,1.1C41.9,40.9,40.3,30.2,46.5,29.7z"/>
				
					<linearGradient id="XMLID_3_" gradientUnits="userSpaceOnUse" x1="846.189" y1="306.0511" x2="846.189" y2="286.1242" gradientTransform="matrix(2.6667 0 0 -2.6667 -2250.7322 820.4948)">
					<stop  offset="0" style="stop-color:#2BACE2"/>
					<stop  offset="0.4095" style="stop-color:#1284C7"/>
					<stop  offset="0.8157" style="stop-color:#0F60AD"/>
					<stop  offset="1" style="stop-color:#07519F"/>
				</linearGradient>
				<path id="XMLID_1309_" class="st3" d="M8.5,25.8l-5.4,5.4L7,35.1C7,32.6,7.4,29.5,8.5,25.8z"/>
				
					<linearGradient id="XMLID_4_" gradientUnits="userSpaceOnUse" x1="851.437" y1="306.051" x2="851.437" y2="286.1244" gradientTransform="matrix(2.6667 0 0 -2.6667 -2250.7322 820.4948)">
					<stop  offset="0" style="stop-color:#2BACE2"/>
					<stop  offset="0.4095" style="stop-color:#1284C7"/>
					<stop  offset="0.8157" style="stop-color:#0F60AD"/>
					<stop  offset="1" style="stop-color:#07519F"/>
				</linearGradient>
				<path id="XMLID_1308_" class="st4" d="M20.1,39.3c6.5-5.3,6.5-10.8,7.4-12.7c0.8-10.6-7.4-17.3-13.4-0.7
					C7.8,45.8,17.7,41.4,20.1,39.3z"/>
				<path id="XMLID_1307_" class="st5" d="M46.3,30.8c-1.5,0-2.1,1.4-2.2,2.4h4.3C48.4,32.2,48,30.8,46.3,30.8z"/>
			</g>
			<g id="XMLID_43_">
				<path id="XMLID_1303_" class="st6" d="M7.9,54.4h0.9v4.1H7.9v-0.8c-1.1,1.8-3.7,0.7-3.6-1.3c-0.1-1.9,2.6-3.1,3.6-1.2V54.4
					L7.9,54.4z M8,56.4c0-1.8-2.8-1.8-2.7,0C5.2,58.2,8,58.2,8,56.4z"/>
				<path id="XMLID_1302_" class="st6" d="M10.1,52H11v6.5h-0.9V52z"/>
				<path id="XMLID_1299_" class="st6" d="M13.3,54.4v0.8c1.1-1.8,3.6-0.7,3.5,1.2c0.1,1.9-2.5,3.1-3.5,1.3v2.7h-0.9v-6H13.3z
					 M15.9,56.4c0-1.8-2.8-1.7-2.8,0C13.1,58.2,15.9,58.2,15.9,56.4z"/>
				<path id="XMLID_1298_" class="st6" d="M17.7,52h0.9v3c0.8-1.2,2.7-1,2.7,0.6v2.9h-0.9c-0.1-0.5,0.2-2.9-0.2-3.2
					c-0.6-0.7-1.7,0.2-1.7,1v2.3h-0.9L17.7,52L17.7,52z"/>
				<path id="XMLID_1295_" class="st6" d="M25.9,54.4h0.9v4.1h-0.9v-0.8c-1.1,1.8-3.7,0.7-3.5-1.3c-0.1-1.9,2.6-3.1,3.6-1.2
					L25.9,54.4L25.9,54.4z M26,56.4c0-1.8-2.8-1.8-2.7,0C23.2,58.2,26,58.2,26,56.4z"/>
				<path id="XMLID_1294_" class="st6" d="M27.9,57.9c0-0.9,1.4-0.9,1.4,0S27.9,58.8,27.9,57.9z"/>
				<path id="XMLID_1293_" class="st6" d="M30.1,58.5v-4.1H31v0.7c0.8-1.2,2.6-1,2.7,0.5v3h-0.9c-0.1-0.4,0.2-3-0.2-3.3
					c-0.7-0.6-1.7,0.2-1.6,1v2.1L30.1,58.5L30.1,58.5L30.1,58.5z"/>
				<path id="XMLID_61_" class="st6" d="M38.9,56.6h-3.5c0.2,1.3,1.9,1.6,2.6,0.6l0.6,0.5c-1.2,1.7-4.2,0.9-4.1-1.3
					C34.6,53.5,39,53.6,38.9,56.6z M35.5,55.9H38C37.5,54.8,35.9,54.8,35.5,55.9z"/>
				<path id="XMLID_60_" class="st6" d="M40.2,53.2H41v1.2h0.9v0.8H41v3.3h-0.9v-3.3h-0.7v-0.8h0.7v-1.2H40.2z"/>
				<path id="XMLID_59_" class="st6" d="M42.5,57.9c0-0.9,1.4-0.9,1.4,0S42.5,58.8,42.5,57.9z"/>
				<path id="XMLID_47_" class="st6" d="M45,52h0.9v3.2c1-1.8,3.7-0.7,3.6,1.2c0.1,2-2.6,3-3.6,1.2v0.9H45V52L45,52z M48.5,56.4
					c0-1.8-2.8-1.8-2.7,0C45.7,58.2,48.6,58.2,48.5,56.4z"/>
				<path id="XMLID_44_" class="st6" d="M54,52h0.9v6.5H54v-0.9c-1.1,1.9-3.7,0.7-3.6-1.3c-0.1-2,2.6-3,3.6-1.2V52L54,52L54,52z
					 M54.1,56.4c0-1.8-2.8-1.8-2.8,0C51.3,58.2,54.1,58.2,54.1,56.4z"/>
			</g>
		</g>
	</g>
	<g id="XMLID_1426_">
		
			<linearGradient id="XMLID_5_" gradientUnits="userSpaceOnUse" x1="68.6742" y1="863.1808" x2="92.3242" y2="886.8309" gradientTransform="matrix(1 0 0 1 0 -844.1654)">
			<stop  offset="0" style="stop-color:#00AEEF"/>
			<stop  offset="0.4095" style="stop-color:#0084CB"/>
			<stop  offset="0.8157" style="stop-color:#005EAD"/>
			<stop  offset="1" style="stop-color:#014EA2"/>
		</linearGradient>
		<path id="XMLID_1442_" class="st7" d="M93.6,37.7c-2-2-11.3-27.4-12.8-30.5h-0.4c-1.6,3.4-10.7,27.5-12.7,29.9
			c-0.7,0.8-1.5,1.2-2.5,1.4v0.9h9.5v-0.9c-6.1,0-3.2-4.7-2-8.1h10.1l1.5,3.9c1.5,3.2,0.8,4.3-2.6,4.2v0.9h13.8v-0.9
			C94.7,38.5,94.1,38.2,93.6,37.7z M73.5,28.7l4.4-10.8l4.3,10.8H73.5z"/>
		
			<linearGradient id="XMLID_6_" gradientUnits="userSpaceOnUse" x1="91.2" y1="857.9066" x2="112.3" y2="879.0067" gradientTransform="matrix(1 0 0 1 0 -844.1654)">
			<stop  offset="0" style="stop-color:#00AEEF"/>
			<stop  offset="0.4095" style="stop-color:#0084CB"/>
			<stop  offset="0.8157" style="stop-color:#005EAD"/>
			<stop  offset="1" style="stop-color:#014EA2"/>
		</linearGradient>
		<path id="XMLID_1441_" class="st8" d="M107.7,38.6v0.8H97v-0.8c2.2-0.2,2.3-1.1,2.4-3.7c-0.2-1.8,0.6-24.4-0.5-25.4
			C98.6,9.1,98,8.8,97,8.8V7.9h8.3c0.2,1.6-0.6,29.4,0.5,29.9C106.1,38.2,106.8,38.5,107.7,38.6z"/>
		
			<linearGradient id="XMLID_7_" gradientUnits="userSpaceOnUse" x1="105.2044" y1="865.6022" x2="126.7903" y2="887.1882" gradientTransform="matrix(1 0 0 1 0 -844.1654)">
			<stop  offset="0" style="stop-color:#00AEEF"/>
			<stop  offset="0.4095" style="stop-color:#0084CB"/>
			<stop  offset="0.8157" style="stop-color:#005EAD"/>
			<stop  offset="1" style="stop-color:#014EA2"/>
		</linearGradient>
		<path id="XMLID_1438_" class="st9" d="M129.4,22.7c-1.8-6-8.8-8.1-12.2-2.2v-2.9H109v0.9c2.4,0.3,2.3,1.1,2.4,3.7v22.9
			c0,2.6-0.1,3.4-2.4,3.6v0.9h11.3v-0.9c-2.6,0.1-3-0.9-3-3.4v-8.1c2.3,3.2,6.3,3.8,9.3,1.4C130.7,35.1,131.1,27.7,129.4,22.7z
			 M123,36.3c-1.6,2.6-4.1,1-5.8-1.5V23.2c0.9-2.3,2.1-3.4,3.5-3.4C125.5,20,124.4,33.8,123,36.3z"/>
		
			<linearGradient id="XMLID_8_" gradientUnits="userSpaceOnUse" x1="127.8179" y1="857.9245" x2="154.2478" y2="884.3544" gradientTransform="matrix(1 0 0 1 0 -844.1654)">
			<stop  offset="0" style="stop-color:#00AEEF"/>
			<stop  offset="0.4095" style="stop-color:#0084CB"/>
			<stop  offset="0.8157" style="stop-color:#005EAD"/>
			<stop  offset="1" style="stop-color:#014EA2"/>
		</linearGradient>
		<path id="XMLID_1437_" class="st10" d="M155,38.6v0.8h-10v-0.8c2-0.5,1.9-1.4,2-3.9V25c0-1.8-0.1-2.9-0.2-3.4c-1.1-3-4-0.8-5,1.4
			c0.1,2-0.3,13,0.3,14.5c0.3,0.5,0.8,0.8,1.6,1v0.9h-10v-0.8c2.3-0.4,2-1.1,2.1-3.9c-0.2-2,0.5-23.9-0.4-25.1
			c-0.3-0.4-0.8-0.7-1.7-0.8V7.9h8.1v12.5c3.1-4.3,8.9-5,10.7,0.5c0.7,2.3,0.3,10.8,0.4,13.8C153,37.4,152.7,38.1,155,38.6z"/>
		
			<linearGradient id="XMLID_9_" gradientUnits="userSpaceOnUse" x1="158.6375" y1="865.437" x2="175.7149" y2="882.5145" gradientTransform="matrix(1 0 0 1 0 -844.1654)">
			<stop  offset="0" style="stop-color:#00AEEF"/>
			<stop  offset="0.4095" style="stop-color:#0084CB"/>
			<stop  offset="0.8157" style="stop-color:#005EAD"/>
			<stop  offset="1" style="stop-color:#014EA2"/>
		</linearGradient>
		<path id="XMLID_1434_" class="st11" d="M176.5,35.8c-1.5,2-2.2,0.2-2-1.8c-0.1-2.4,0.2-11.1-0.3-12.9c-0.9-2.6-3.4-4.3-6.6-4.2
			c-2.8,0-6.1,1-7.8,3.1c-2,2.2-1.4,6.1,1.9,6.1c1.6,0,2.8-1.2,2.8-2.7c0.2-1-1.3-2.2-1.4-3.1c0.1-1.2,1.6-1.6,2.8-1.6
			c3.4,0.1,2.6,4.1,2.7,6.9c-4.4,2.2-7.2,4-8.5,5.3c-5.3,6.1,1.1,13,8.5,5.2c0.5,5.1,6.7,4.2,8.5,0.2L176.5,35.8z M168.6,34.5
			c-4.4,4.2-7.6-2.8,0-7.3V34.5L168.6,34.5z"/>
		
			<linearGradient id="XMLID_10_" gradientUnits="userSpaceOnUse" x1="188.8423" y1="852.5488" x2="217.8899" y2="881.5966" gradientTransform="matrix(1 0 0 1 0 -844.1654)">
			<stop  offset="0" style="stop-color:#00AEEF"/>
			<stop  offset="0.4095" style="stop-color:#0084CB"/>
			<stop  offset="0.8157" style="stop-color:#005EAD"/>
			<stop  offset="1" style="stop-color:#014EA2"/>
		</linearGradient>
		<path id="XMLID_1433_" class="st12" d="M218.9,7.9v0.9c-2,0.3-2.7,0.4-3.4,2c-0.7,0.9-0.2,27.6-0.3,29.4h-0.7l-19.4-26.3v20
			c-0.1,3.3,1.6,4.8,4.4,4.6v0.9h-10.2v-0.9c1.6,0,2.7-0.4,3.3-1.1c1.9-1.5,0.5-23.4,0.9-25.8c-1.2-1.7-2-3-4.2-2.9V7.8h10.2
			l14.1,19.6c-0.3-2.6,0.7-15.4-0.7-17.4c-0.7-0.9-1.8-1.3-3.4-1.3V7.8L218.9,7.9L218.9,7.9z"/>
		
			<linearGradient id="XMLID_11_" gradientUnits="userSpaceOnUse" x1="222.9937" y1="865.6503" x2="237.3468" y2="880.0034" gradientTransform="matrix(1 0 0 1 0 -844.1654)">
			<stop  offset="0" style="stop-color:#00AEEF"/>
			<stop  offset="0.4095" style="stop-color:#0084CB"/>
			<stop  offset="0.8157" style="stop-color:#005EAD"/>
			<stop  offset="1" style="stop-color:#014EA2"/>
		</linearGradient>
		<path id="XMLID_1428_" class="st13" d="M235.2,35.7c-4.9,3-7.9-3.3-7.9-8h10.8c-0.2-15.7-16.9-13-16.5,1.1
			c-0.5,11.5,11.8,16,16.5,4.6l-0.7-0.5C236.6,34.3,235.9,35.2,235.2,35.7z M227.2,25.4c0.1-9.7,6.4-9,5.7,0.8h-5.7V25.4z"/>
		
			<linearGradient id="XMLID_12_" gradientUnits="userSpaceOnUse" x1="239.8687" y1="861.787" x2="255.9039" y2="877.8221" gradientTransform="matrix(1 0 0 1 0 -844.1654)">
			<stop  offset="0" style="stop-color:#00AEEF"/>
			<stop  offset="0.4095" style="stop-color:#0084CB"/>
			<stop  offset="0.8157" style="stop-color:#005EAD"/>
			<stop  offset="1" style="stop-color:#014EA2"/>
		</linearGradient>
		<path id="XMLID_1427_" class="st14" d="M248.5,20c0.1,1.7-0.2,14.5,0.2,15.8c0.9,2.2,2.8,1.1,3.9-1.1l0.6,0.5
			c-1.6,5.6-8.8,6-10.4,0.8c-0.4-1.9-0.1-13.5-0.2-16H240v-0.8c3.5-2.7,5.9-5.5,7.8-9.4h0.7v7.9h4.7V20C253.2,20,248.5,20,248.5,20z
			"/>
	</g>
	<g>
		<path class="st15" d="M71.4,58.6L71.4,58.6c0,0.8-0.2,1.5-0.8,2c-0.6,0.5-1.3,0.8-2.2,0.8c-0.9,0-1.7-0.3-2.3-1
			c-0.6-0.7-0.9-1.5-0.9-2.5v-1.5c0-1,0.3-1.9,0.9-2.5c0.6-0.7,1.4-1,2.3-1s1.7,0.2,2.2,0.8c0.6,0.5,0.8,1.2,0.8,2l0,0h-1.1
			c0-0.6-0.2-1-0.5-1.4s-0.8-0.5-1.4-0.5s-1.1,0.2-1.5,0.8c-0.4,0.5-0.6,1.1-0.6,1.9V58c0,0.8,0.2,1.4,0.6,1.9s0.9,0.8,1.5,0.8
			s1.1-0.2,1.4-0.5s0.5-0.8,0.5-1.4h1.1V58.6z"/>
		<path class="st15" d="M74,60.4h4v0.9h-5.1V53H74V60.4z"/>
		<path class="st15" d="M85.2,57.8c0,1-0.3,1.8-0.9,2.5s-1.4,1-2.4,1s-1.7-0.3-2.3-1c-0.6-0.7-0.9-1.5-0.9-2.5v-1.4
			c0-1,0.3-1.8,0.9-2.5s1.4-1,2.3-1c1,0,1.8,0.3,2.4,1s0.9,1.5,0.9,2.5V57.8z M84.1,56.4c0-0.8-0.2-1.4-0.6-1.9s-1-0.7-1.6-0.7
			c-0.7,0-1.2,0.2-1.5,0.7c-0.4,0.5-0.6,1.1-0.6,1.9v1.5c0,0.8,0.2,1.4,0.6,1.9s0.9,0.7,1.5,0.7c0.7,0,1.2-0.2,1.6-0.7
			s0.6-1.1,0.6-1.9V56.4L84.1,56.4z"/>
		<path class="st15" d="M92.9,53v5.5c0,0.9-0.3,1.6-0.9,2.1s-1.4,0.8-2.3,0.8s-1.6-0.3-2.2-0.8s-0.8-1.2-0.8-2.1V53h1.1v5.5
			c0,0.6,0.2,1.1,0.5,1.5c0.4,0.4,0.8,0.5,1.4,0.5s1.1-0.2,1.5-0.5s0.6-0.8,0.6-1.5V53H92.9z"/>
		<path class="st15" d="M94.6,61.2v-8.3h2.6c1.1,0,1.9,0.3,2.6,1s1,1.5,1,2.6v1.1c0,1.1-0.3,1.9-1,2.6s-1.5,1-2.6,1H94.6L94.6,61.2z
			 M95.8,53.9v6.5h1.5c0.8,0,1.4-0.2,1.8-0.8c0.4-0.5,0.7-1.1,0.7-1.9v-1.1c0-0.8-0.2-1.4-0.7-1.9c-0.4-0.5-1-0.8-1.8-0.8
			C97.3,53.9,95.8,53.9,95.8,53.9z"/>
		<path class="st15" d="M104.8,59c0-0.5,0.1-0.9,0.4-1.2c0.3-0.3,0.7-0.7,1.2-1c-0.3-0.4-0.5-0.7-0.7-1c-0.1-0.3-0.2-0.6-0.2-0.9
			c0-0.6,0.2-1.1,0.6-1.5c0.4-0.3,0.9-0.5,1.5-0.5s1.1,0.2,1.5,0.5s0.6,0.8,0.6,1.2s-0.1,0.7-0.3,1c-0.2,0.3-0.5,0.6-0.9,0.8
			l-0.6,0.5l1.9,2.3c0.1-0.2,0.3-0.5,0.4-0.8s0.1-0.6,0.1-0.9h1c0,0.5-0.1,1-0.2,1.4s-0.4,0.8-0.6,1.1l1,1.3l0,0H110l-0.5-0.6
			c-0.3,0.2-0.6,0.4-1,0.5s-0.8,0.2-1.1,0.2c-0.8,0-1.5-0.2-2-0.7C105,60.3,104.8,59.7,104.8,59z M107.5,60.5c0.3,0,0.5,0,0.8-0.1
			s0.5-0.2,0.8-0.4l-2-2.5l-0.2,0.2c-0.3,0.3-0.6,0.5-0.7,0.7S106,58.8,106,59c0,0.4,0.1,0.8,0.4,1.1
			C106.6,60.3,106.9,60.5,107.5,60.5z M106.6,54.8c0,0.2,0,0.4,0.1,0.6s0.3,0.5,0.5,0.7l0.8-0.5c0.2-0.1,0.4-0.3,0.4-0.5
			c0.1-0.2,0.1-0.4,0.1-0.6c0-0.2-0.1-0.4-0.3-0.6c-0.2-0.2-0.4-0.3-0.7-0.3c-0.3,0-0.5,0.1-0.7,0.3
			C106.7,54.3,106.6,54.5,106.6,54.8z"/>
		<path class="st15" d="M121.3,53.9h-2.7v7.4h-1.1v-7.4h-2.7V53h6.5L121.3,53.9L121.3,53.9z"/>
		<path class="st15" d="M126.9,57.4h-3.4v3h4v0.9h-5.1V53h5v0.9h-3.9v2.7h3.4V57.4L126.9,57.4z"/>
		<path class="st15" d="M134.7,58.6L134.7,58.6c0,0.8-0.2,1.5-0.8,2s-1.3,0.8-2.2,0.8s-1.7-0.3-2.3-1s-0.9-1.5-0.9-2.5v-1.5
			c0-1,0.3-1.9,0.9-2.5c0.6-0.7,1.4-1,2.3-1s1.7,0.2,2.2,0.8c0.6,0.5,0.8,1.2,0.8,2l0,0h-1.1c0-0.6-0.2-1-0.5-1.4s-0.8-0.5-1.4-0.5
			s-1.1,0.2-1.5,0.8c-0.4,0.5-0.6,1.1-0.6,1.9V58c0,0.8,0.2,1.4,0.6,1.9c0.4,0.5,0.9,0.8,1.5,0.8s1.1-0.2,1.4-0.5s0.5-0.8,0.5-1.4
			h1.1V58.6z"/>
		<path class="st15" d="M142.4,61.2h-1.1v-3.6h-4v3.6h-1.1v-8.3h1.1v3.7h4v-3.7h1.1V61.2z"/>
		<path class="st15" d="M150.6,61.2h-1.1l-4-6.3l0,0v6.3h-1.1v-8.3h1.1l4,6.3l0,0v-6.3h1.1V61.2z"/>
		<path class="st15" d="M158.8,57.8c0,1-0.3,1.8-0.9,2.5c-0.6,0.7-1.4,1-2.4,1s-1.7-0.3-2.3-1s-0.9-1.5-0.9-2.5v-1.4
			c0-1,0.3-1.8,0.9-2.5c0.6-0.7,1.4-1,2.3-1c1,0,1.8,0.3,2.4,1c0.6,0.7,0.9,1.5,0.9,2.5V57.8z M157.7,56.4c0-0.8-0.2-1.4-0.6-1.9
			s-1-0.7-1.6-0.7c-0.7,0-1.2,0.2-1.5,0.7c-0.4,0.5-0.6,1.1-0.6,1.9v1.5c0,0.8,0.2,1.4,0.6,1.9c0.4,0.5,0.9,0.7,1.5,0.7
			c0.7,0,1.2-0.2,1.6-0.7c0.4-0.5,0.6-1.1,0.6-1.9V56.4L157.7,56.4z"/>
		<path class="st15" d="M161.5,60.4h4v0.9h-5.1V53h1.1V60.4z"/>
		<path class="st15" d="M172.7,57.8c0,1-0.3,1.8-0.9,2.5c-0.6,0.7-1.4,1-2.4,1s-1.7-0.3-2.3-1s-0.9-1.5-0.9-2.5v-1.4
			c0-1,0.3-1.8,0.9-2.5s1.4-1,2.3-1c1,0,1.8,0.3,2.4,1s0.9,1.5,0.9,2.5V57.8z M171.6,56.4c0-0.8-0.2-1.4-0.6-1.9s-1-0.7-1.6-0.7
			c-0.7,0-1.2,0.2-1.5,0.7c-0.4,0.5-0.6,1.1-0.6,1.9v1.5c0,0.8,0.2,1.4,0.6,1.9c0.4,0.5,0.9,0.7,1.5,0.7c0.7,0,1.2-0.2,1.6-0.7
			c0.4-0.5,0.6-1.1,0.6-1.9V56.4L171.6,56.4z"/>
		<path class="st15" d="M180.3,60.1c-0.2,0.3-0.5,0.6-1,0.8s-1.1,0.4-1.9,0.4c-0.9,0-1.7-0.3-2.4-0.9s-0.9-1.5-0.9-2.4v-1.7
			c0-1,0.3-1.8,0.9-2.4s1.4-0.9,2.3-0.9c0.9,0,1.6,0.2,2.2,0.7c0.5,0.5,0.8,1.1,0.8,1.9l0,0h-1.1c0-0.5-0.2-0.9-0.5-1.3
			c-0.3-0.3-0.8-0.5-1.4-0.5c-0.6,0-1.1,0.2-1.5,0.7s-0.6,1.1-0.6,1.8V58c0,0.7,0.2,1.3,0.6,1.8c0.4,0.5,0.9,0.7,1.6,0.7
			c0.5,0,0.9-0.1,1.2-0.2s0.5-0.3,0.6-0.5v-1.9h-1.9V57h3L180.3,60.1L180.3,60.1z"/>
		<path class="st15" d="M184.9,57.2l2.2-4.2h1.3l-2.9,5.3v2.9h-1.1v-3l-2.9-5.3h1.3L184.9,57.2z"/>
		<path class="st15" d="M196.8,59.2c0-0.4-0.1-0.7-0.4-0.9c-0.3-0.3-0.7-0.5-1.4-0.7c-0.8-0.2-1.5-0.5-2-0.9s-0.7-0.9-0.7-1.5
			c0-0.7,0.3-1.2,0.8-1.6c0.5-0.4,1.2-0.7,2-0.7c0.9,0,1.6,0.2,2.1,0.7s0.8,1.1,0.8,1.7l0,0h-1.1c0-0.5-0.2-0.8-0.5-1.2
			c-0.3-0.3-0.8-0.5-1.3-0.5s-0.9,0.1-1.2,0.4c-0.3,0.3-0.4,0.6-0.4,1s0.1,0.7,0.5,0.9c0.3,0.2,0.8,0.5,1.5,0.6
			c0.8,0.2,1.5,0.5,1.9,0.9s0.7,0.9,0.7,1.5c0,0.7-0.3,1.2-0.8,1.6s-1.2,0.6-2.1,0.6c-0.8,0-1.5-0.2-2.1-0.7c-0.6-0.4-0.9-1-0.9-1.8
			l0,0h1.1c0,0.5,0.2,0.9,0.6,1.2c0.4,0.3,0.8,0.4,1.3,0.4s0.9-0.1,1.3-0.4C196.7,59.9,196.8,59.6,196.8,59.2z"/>
		<path class="st15" d="M205.8,57.8c0,1-0.3,1.8-0.9,2.5c-0.6,0.7-1.4,1-2.4,1s-1.7-0.3-2.3-1s-0.9-1.5-0.9-2.5v-1.4
			c0-1,0.3-1.8,0.9-2.5c0.6-0.7,1.4-1,2.3-1c1,0,1.8,0.3,2.4,1s0.9,1.5,0.9,2.5V57.8z M204.7,56.4c0-0.8-0.2-1.4-0.6-1.9
			s-1-0.7-1.6-0.7c-0.7,0-1.2,0.2-1.5,0.7c-0.4,0.5-0.6,1.1-0.6,1.9v1.5c0,0.8,0.2,1.4,0.6,1.9c0.4,0.5,0.9,0.7,1.5,0.7
			c0.7,0,1.2-0.2,1.6-0.7c0.4-0.5,0.6-1.1,0.6-1.9V56.4L204.7,56.4z"/>
		<path class="st15" d="M208.5,60.4h4v0.9h-5.1V53h1.1V60.4z"/>
		<path class="st15" d="M219.6,53v5.5c0,0.9-0.3,1.6-0.9,2.1c-0.6,0.5-1.4,0.8-2.3,0.8c-0.9,0-1.6-0.3-2.2-0.8
			c-0.6-0.5-0.8-1.2-0.8-2.1V53h1.1v5.5c0,0.6,0.2,1.1,0.5,1.5c0.4,0.4,0.8,0.5,1.4,0.5c0.6,0,1.1-0.2,1.5-0.5
			c0.4-0.4,0.6-0.8,0.6-1.5V53H219.6z"/>
		<path class="st15" d="M227.1,53.9h-2.7v7.4h-1.1v-7.4h-2.7V53h6.5V53.9L227.1,53.9z"/>
		<path class="st15" d="M229.5,61.2h-1.1v-8.3h1.1V61.2z"/>
		<path class="st15" d="M237.9,57.8c0,1-0.3,1.8-0.9,2.5c-0.6,0.7-1.4,1-2.4,1s-1.7-0.3-2.3-1s-0.9-1.5-0.9-2.5v-1.4
			c0-1,0.3-1.8,0.9-2.5c0.6-0.7,1.4-1,2.3-1c1,0,1.8,0.3,2.4,1s0.9,1.5,0.9,2.5V57.8z M236.7,56.4c0-0.8-0.2-1.4-0.6-1.9
			s-1-0.7-1.6-0.7c-0.7,0-1.2,0.2-1.5,0.7c-0.4,0.5-0.6,1.1-0.6,1.9v1.5c0,0.8,0.2,1.4,0.6,1.9c0.4,0.5,0.9,0.7,1.5,0.7
			c0.7,0,1.2-0.2,1.6-0.7c0.4-0.5,0.6-1.1,0.6-1.9V56.4L236.7,56.4z"/>
		<path class="st15" d="M245.7,61.2h-1.1l-4-6.3l0,0v6.3h-1.1v-8.3h1.1l4,6.3l0,0v-6.3h1.1V61.2z"/>
		<path class="st15" d="M252,59.2c0-0.4-0.1-0.7-0.4-0.9c-0.3-0.3-0.7-0.5-1.4-0.7c-0.8-0.2-1.5-0.5-2-0.9s-0.7-0.9-0.7-1.5
			c0-0.7,0.3-1.2,0.8-1.6s1.2-0.7,2-0.7c0.9,0,1.6,0.2,2.1,0.7s0.8,1.1,0.8,1.7l0,0H252c0-0.5-0.2-0.8-0.5-1.2
			c-0.3-0.3-0.8-0.5-1.3-0.5s-0.9,0.1-1.2,0.4c-0.3,0.3-0.4,0.6-0.4,1s0.1,0.7,0.5,0.9c0.3,0.2,0.8,0.5,1.5,0.6
			c0.8,0.2,1.5,0.5,1.9,0.9s0.7,0.9,0.7,1.5c0,0.7-0.3,1.2-0.8,1.6s-1.2,0.6-2.1,0.6c-0.8,0-1.5-0.2-2.1-0.7c-0.6-0.4-0.9-1-0.9-1.8
			l0,0h1.1c0,0.5,0.2,0.9,0.6,1.2s0.8,0.4,1.3,0.4s0.9-0.1,1.3-0.4C251.9,59.9,252,59.6,252,59.2z"/>
	</g>
</g>
</svg>
