<?xml version="1.0" encoding="utf-8"?>
<!-- Generator: Adobe Illustrator 24.2.1, SVG Export Plug-In . SVG Version: 6.00 Build 0)  -->
<svg version="1.1" id="Layer_1" xmlns="http://www.w3.org/2000/svg" xmlns:xlink="http://www.w3.org/1999/xlink" x="0px" y="0px"
	 viewBox="0 0 254 68.1" style="enable-background:new 0 0 254 68.1;" xml:space="preserve">
<style type="text/css">
	.st0{fill:#009FDC;}
	.st1{fill:#FFFFFF;}
	.st2{fill:#0948B3;}
	.st3{fill:#020202;}
	.st4{fill:#F67A3C;stroke:#FFFFFF;stroke-miterlimit:10;}
	.st5{fill:none;}
</style>
<g>
	<path class="st0" d="M174.2,0.7c24.3-0.2,48.6,0,72.9-0.1c1.7-0.1,2.8,1.4,3.4,2.8c1.4,3.4,1.4,7.3,0,10.7
		c-0.6,1.4-1.7,2.9-3.4,2.8c-24.2,0-48.4,0-72.6,0c-1.6-0.2-2.5-1.8-3-3.1c-1.1-3.2-1.2-6.6-0.1-9.8C171.9,2.7,172.7,1.1,174.2,0.7z
		 M230.6,13.8c0.5-0.2,1-0.4,1.5-0.7c1,0.6,2.2,0.9,3.3,0.4c2.3-1.3,2.5-4.8,0.8-6.7c-1.1-1.2-3.1-1-4.3,0c0-1.2,0-2.5,0.1-3.7
		l-1.2,0.2C230.5,6.8,230.7,10.3,230.6,13.8z M243.5,3.1c0,1.2,0,2.4,0.1,3.6c-1.1-0.7-2.6-1.2-3.9-0.4c-2.2,1.7-2.1,5.9,0.5,7.2
		c1,0.5,2.2,0.2,3.1-0.4c0.5,0.3,1,0.4,1.5,0.6c0-3.6,0-7.1,0-10.6H243.5L243.5,3.1z M222.7,6l-1,0.2c0,0.2,0,0.6,0,0.8l1,0.2
		c0,1.9-0.2,3.9,0.1,5.8c0.4,1,1.7,0.7,2.6,0.9c0-0.3,0-0.8,0-1.1l-1.4-0.3c-0.1-1.8,0-3.5-0.1-5.3l1.4-0.1c0-0.2,0-0.7,0-1h-1.4
		c0-0.9,0-1.8,0-2.8C222.9,3.8,222.6,4.8,222.7,6L222.7,6z M175.4,8.9c1.1,1.7,3.6,1.1,5,2.7c-0.7,0.6-1.3,1.4-2.2,1.1
		c-1.1,0.1-1.5-1-2.1-1.7c-0.3,0.2-1.2,0.2-0.9,0.8c0.7,2.1,3.4,2.4,5.1,1.5c1.2-0.6,1.7-2.6,0.4-3.4c-1.2-0.7-2.6-0.9-3.9-1.3
		l-0.4-1c1.2-1,2.9-0.8,3.7,0.6l1.2-0.3c-0.6-1.2-1.8-2.2-3.2-2C176.5,5.7,174.6,7.2,175.4,8.9z M184.2,6.8
		c-0.4-0.4-0.8-0.7-1.4-0.9c0,2.6,0,5.2,0,7.8h1.4c0-1.8-0.2-3.7,0.2-5.5c0.4-1.2,2.4-1.7,2.9-0.4c0.3,1.9,0,3.9,0.1,5.8h1.4
		c0-1.8-0.2-3.6,0.1-5.5c0.3-1.2,2.3-1.7,2.9-0.4c0.3,1.9,0.1,3.9,0.1,5.8h1.4c0-2.1,0.2-4.3-0.2-6.4c-0.7-1.9-3.3-1.6-4.5-0.4
		c-1.1-1.2-2.9-1.3-4.2-0.2C184.2,6.7,184.2,6.7,184.2,6.8z M194.7,8.5c0.7,2.2,3.9,1.2,4.8,3.1c-0.8,1.8-3.4,1.3-4-0.4l-1.3,0.2
		c0.5,0.8,0.9,1.9,2,2.2c1.5,0.4,3.6,0.2,4.4-1.5c0.4-1,0-2.2-1.1-2.6c-0.1,0-0.3-0.1-0.5-0.1c-1.1-0.6-3.1-0.3-3.3-1.8
		c0.8-0.8,2.2-0.9,3-0.1l0,0c0.5,0.6,1.2,0.6,1.9,0.5c-0.5-1-1.2-2-2.4-2.1C196.7,5.5,194.2,6.5,194.7,8.5z M206.3,6.1
		c0,2.5,0,5,0,7.5l1.4,0.1c0-1.8-0.2-3.6,0.1-5.4c0.3-1.5,2.9-1.8,3.3-0.2c0.2,1.8,0,3.7,0,5.5h1.4c-0.1-2.1,0.2-4.3-0.2-6.3
		c-0.8-2-3.6-1.7-4.9-0.4c0-0.2,0-0.7,0-0.9L206.3,6.1z M215.3,13.1c1,0.7,2.3,0.8,3.4,0.6c1.1-0.2,1.8-1.4,2.4-2.2l-1.4-0.2
		c-0.7,0.7-1.4,1.8-2.5,1.5c-1.3-0.2-1.7-1.5-2.1-2.5c2,0,4,0,5.9,0c0-2-1.1-4.4-3.5-4.3C214,5.6,212.7,11,215.3,13.1L215.3,13.1z
		 M202.6,12.1c0,0.5,0,1,0,1.5h1.5c0-0.5,0-1,0-1.5H202.6z M226.9,12.1c0,0.5,0,1,0,1.5h1.5c0-0.5,0-1,0-1.5H226.9z"/>
	<path class="st0" d="M215.2,9c0.5-1,1.1-2.3,2.5-2.1c1.2,0,1.7,1.2,2.2,2.1C218.3,9.1,216.7,9.1,215.2,9z"/>
	<path class="st0" d="M232.8,7.3c1.2-1.1,3,0.2,3,1.6c0.4,1.5-0.4,4-2.3,3.7C231.3,12,231.3,8.7,232.8,7.3z"/>
	<path class="st0" d="M240.6,7.2c1.3-0.9,2.9,0.4,2.9,1.7c0.4,1.5-0.2,4-2.2,3.7C239.1,12.1,239,8.5,240.6,7.2z"/>
	<path class="st1" d="M230.6,13.8c0-3.5-0.1-7,0-10.5l1.3-0.2c0,1.2,0,2.5-0.1,3.7c1.2-1,3.2-1.2,4.3,0c1.7,1.8,1.5,5.4-0.8,6.7
		c-1.1,0.6-2.3,0.3-3.3-0.4C231.6,13.3,231.1,13.6,230.6,13.8z M232.8,7.3c-1.5,1.3-1.5,4.7,0.7,5.4c2,0.2,2.7-2.2,2.3-3.7
		C235.8,7.5,234,6.2,232.8,7.3L232.8,7.3z"/>
	<path class="st1" d="M243.5,3.1h1.3c0,3.6,0,7.1,0,10.6c-0.5-0.2-1-0.4-1.5-0.7c-0.9,0.5-2.1,0.9-3.1,0.4c-2.6-1.3-2.8-5.5-0.5-7.2
		c1.2-0.8,2.7-0.4,3.9,0.4C243.5,5.5,243.5,4.3,243.5,3.1z M240.6,7.2c-1.6,1.3-1.5,4.8,0.7,5.5c2,0.2,2.6-2.2,2.2-3.7
		C243.5,7.6,241.9,6.4,240.6,7.2z"/>
	<path class="st1" d="M222.7,6c-0.1-1.2,0.2-2.2,1.4-2.7c0,0.9,0,1.8,0,2.8h1.4c0,0.2,0,0.7,0,1l-1.4,0.1c0,1.8,0,3.5,0.1,5.3
		l1.4,0.3c0,0.3,0,0.8,0,1.1c-0.9-0.2-2.2,0.1-2.6-0.9c-0.3-1.9-0.1-3.8-0.1-5.8l-1-0.2c0-0.2,0-0.6,0-0.8L222.7,6z"/>
	<path class="st1" d="M175.4,8.9c-0.8-1.7,1.1-3.2,2.7-3c1.5-0.2,2.6,0.7,3.2,2l-1.2,0.3c-0.8-1.4-2.5-1.5-3.7-0.6l0.4,1
		c1.3,0.4,2.7,0.7,3.9,1.3c1.2,0.8,0.7,2.8-0.4,3.4c-1.7,0.9-4.5,0.6-5.1-1.5c-0.3-0.5,0.7-0.5,0.9-0.8c0.6,0.7,1.1,1.8,2.1,1.7
		c1,0.2,1.6-0.6,2.2-1.1C179,10,176.5,10.6,175.4,8.9z"/>
	<path class="st1" d="M184.2,6.8c1.2-1.1,3-1.1,4.2,0c0,0,0,0,0.1,0.1c1.2-1.2,3.8-1.5,4.5,0.4c0.4,2.1,0.1,4.3,0.2,6.4h-1.4
		c0-1.9,0.2-3.9-0.1-5.8c-0.6-1.2-2.5-0.8-2.9,0.4c-0.4,1.8-0.1,3.6-0.1,5.4h-1.4c0-1.9,0.2-3.9-0.1-5.8c-0.4-1.4-2.5-0.8-2.9,0.4
		c-0.4,1.8-0.1,3.6-0.2,5.5h-1.4c0-2.6,0-5.2,0-7.8C183.4,6,183.8,6.3,184.2,6.8z"/>
	<path class="st1" d="M194.7,8.5c-0.5-2,2-3,3.6-2.6c1.2,0,1.9,1.1,2.4,2.1c-0.7,0.1-1.4,0.1-1.9-0.5c-0.8-0.8-2.2-0.8-3,0.1l0,0
		c0.2,1.5,2.2,1.2,3.3,1.8c1.1,0.2,1.8,1.1,1.6,2.2c0,0.2-0.1,0.3-0.1,0.5c-0.7,1.7-2.8,1.8-4.4,1.5c-1.1-0.3-1.5-1.4-2-2.2l1.3-0.2
		c0.7,1.7,3.2,2.2,4,0.4C198.5,9.7,195.3,10.8,194.7,8.5z"/>
	<path class="st1" d="M206.3,6.1l1.2-0.1c0,0.2,0,0.7,0,0.9c1.3-1.3,4.1-1.6,4.9,0.4c0.4,2.1,0.1,4.2,0.2,6.3h-1.4
		c0-1.8,0.2-3.7,0-5.5c-0.4-1.6-3-1.3-3.3,0.2c-0.3,1.8-0.1,3.6-0.1,5.4l-1.4-0.1C206.3,11.1,206.3,8.6,206.3,6.1z"/>
	<path class="st1" d="M215.3,13.1c-2.6-2.1-1.4-7.5,2.3-7.2c2.3-0.1,3.4,2.3,3.5,4.3c-2,0-4,0-5.9,0c0.4,1,0.8,2.3,2.1,2.5
		c1.1,0.3,1.9-0.8,2.5-1.5l1.4,0.2c-0.6,0.9-1.2,2-2.4,2.2C217.6,13.9,216.2,13.8,215.3,13.1z M215.2,9c1.5,0,3.1,0,4.7,0
		c-0.5-0.9-1-2.2-2.2-2.1C216.3,6.8,215.7,8.1,215.2,9L215.2,9z"/>
	<path class="st1" d="M202.6,12.1h1.5c0,0.5,0,1,0,1.5h-1.5C202.6,13.1,202.6,12.6,202.6,12.1z"/>
	<path class="st1" d="M226.9,12.1h1.5c0,0.5,0,1,0,1.5h-1.5C226.9,13.1,226.9,12.6,226.9,12.1z"/>
	<path class="st2" d="M58.4,20.1c0.9-2.2,4.7-2,5.3,0.3c3.3,8.8,6.6,17.6,9.9,26.4h-6.5l-1.5-4.1c-3,0-6.1,0-9.1,0
		c-0.5,1.4-1.1,2.7-1.6,4.1h-6.5C51.8,37.9,54.9,28.9,58.4,20.1z M61,30.7c-0.7,1.9-1.5,3.9-2.2,5.8c1.5,0,3,0,4.5,0
		C62.4,34.6,61.7,32.6,61,30.7L61,30.7z"/>
	<path class="st2" d="M74.9,18.7h6.5c0,7.3,0,14.7,0,22c3.9,0,7.8,0,11.6,0c0,2,0,4,0,6c-4.5,0-9,0-13.4,0c-1.4,0.1-2.8-0.6-3.6-1.7
		c-0.9-1.3-1.1-2.9-1.1-4.5C75,33.3,75,26,74.9,18.7z"/>
	<path class="st2" d="M96,18.7c3.9,0,7.9,0,11.8,0c2.7,0,5.7,0.8,7.5,3c2,2.5,2.2,5.8,1.9,8.7c-0.2,2.8-1.7,5.6-4.3,6.9
		c-3.3,1.6-7,1-10.5,1.1c0,2.8,0,5.6,0,8.4c-2.1,0-4.2,0-6.3,0L96,18.7L96,18.7z M102.3,24.7c0,2.5,0,5,0,7.5
		c2.1-0.1,4.3,0.3,6.4-0.4c2.8-1.1,2.7-5.9-0.2-6.8C106.4,24.5,104.3,24.8,102.3,24.7z"/>
	<path class="st2" d="M120.2,18.7h6.4c0,3.7,0,7.5,0,11.2h7.7V18.7h6.4c0,9.4,0,18.7,0,28.1h-6.4c0-3.6,0-7.2,0-10.8h-7.7
		c0,3.6,0,7.2,0,10.8c-2.1,0-4.2,0-6.4,0C120.2,37.4,120.2,28.1,120.2,18.7z"/>
	<path class="st2" d="M153.3,20.3c0.7-2,3.7-2.3,4.9-0.7c0.4,0.8,0.8,1.6,1.1,2.5c3.2,8.2,6.2,16.5,9.3,24.7h-6.5
		c-0.5-1.4-1.1-2.7-1.6-4.1h-9.2l-1.5,4.1h-6.5C146.7,38,150,29.1,153.3,20.3z M156,30.7c-0.7,1.9-1.5,3.9-2.2,5.8h4.5
		C157.4,34.6,156.7,32.6,156,30.7z"/>
	<path class="st1" d="M17.4,26c1.5-0.7,3.6-0.4,4.7,1c0.1,0.6-0.4,1-0.9,1.2c-0.6-0.4-1.1-0.9-1.8-1.3c-0.8-0.4-1.4,0.5-1.9,0.9
		c1.4,0.7,2.9,0.9,4.3,1.7c1.3,0.9,0.6,3-0.8,3.4c-1.6,0.7-4.1,0.5-4.9-1.3c-0.3-0.6,0.5-0.9,0.8-1.3c0.7,1.2,2.6,2.7,3.7,1
		c-0.4-1.8-3.3-1.1-4.3-2.7C15.6,27.7,16.4,26.4,17.4,26z"/>
	<path class="st1" d="M23.9,26.2c0.5-1.1,1.3-0.4,1.9,0.2c1.3-1,2.9-0.8,4.1,0.1c1.1-0.8,2.6-1.3,3.8-0.4c0.9,0.5,0.7,1.7,0.8,2.6
		c0,1.3,0,2.6-0.1,3.9c-0.1,0.9-1.5,0.9-1.8,0c-0.3-1.7,0.2-3.4-0.3-5.1c-0.6-0.9-2-0.3-2.2,0.7c-0.3,1.5,0,3-0.3,4.4
		c-0.1,0.9-1.7,0.8-1.7-0.1c-0.2-1.7,0.1-3.4-0.2-5.1c-0.5-0.5-1.3-0.5-1.8,0c-0.1,0.1-0.3,0.3-0.3,0.5c-0.4,1.5-0.1,3.1-0.3,4.6
		c0,1-1.7,1.1-1.8,0C23.9,30.4,23.9,28.3,23.9,26.2z"/>
	<path class="st1" d="M36.3,28.6c-0.8-2,1.8-3.3,3.4-2.9c1.2,0,2,0.9,2.7,1.8c-0.4,0.2-0.8,0.4-1.2,0.6c-1-0.5-2-2-3.2-1
		c-0.1,0.2-0.3,0.5-0.3,0.7c1.3,0.8,2.9,0.8,4.1,1.7c1.1,0.9,0.5,2.8-0.7,3.3c-1.6,0.7-4,0.6-5.1-1.1c-0.4-0.7,0.3-1.1,0.7-1.5
		c0.5,0.5,1,1.1,1.6,1.5c0.8,0.5,2.2,0.2,2.3-0.9C39.5,29.7,37.3,30,36.3,28.6z"/>
	<path class="st2" d="M57.1,53.3h1.8c0,2.8,0,5.6,0,8.4c0,1.1,1.2,2.2,2.3,1.8c0.9-0.2,1.5-1,1.5-1.9c0-2.8,0-5.5,0-8.4h1.8
		c0,3.1,0.1,6.2-0.1,9.2c-0.4,2.8-4.2,3.8-6.2,2.1c-0.8-0.8-1.2-1.8-1.2-3C57,58.9,57.1,56.1,57.1,53.3z"/>
	<path class="st2" d="M48.7,53.3c1.7,0,3.5-0.5,5,0.4c1.6,1.1,1.5,3.6,0.1,4.8c2.3,1.3,2.3,5.2-0.1,6.3c-1.5,0.7-3.3,0.4-5,0.4
		C48.7,61.3,48.7,57.3,48.7,53.3z M50.5,54.9c0,1,0,2,0,3c1.1,0,2.6-0.1,2.6-1.5C53.3,55,51.6,54.9,50.5,54.9L50.5,54.9z M50.5,59.5
		c0,1.4,0,2.7,0,4c0.9-0.1,1.9,0,2.7-0.6c0.7-0.9,0.7-2.1,0-3C52.4,59.4,51.4,59.6,50.5,59.5L50.5,59.5z"/>
	<path class="st2" d="M66.5,53.3h1.8c0,3.3,0,6.7,0,10.1h4.5c0,0.7,0,1.3,0,1.9c-2.1,0-4.2,0-6.3,0C66.6,61.3,66.6,57.3,66.5,53.3z"
		/>
	<path class="st2" d="M74.3,53.3h1.8c0,1.9,0,3.8,0,5.7c1.2-1.8,2.2-3.7,3.4-5.5c0.7-0.4,1.5-0.1,2.2-0.2c-1.1,1.8-2.2,3.6-3.3,5.3
		c1.3,2.2,2.5,4.5,3.8,6.8c-0.7,0-1.5,0-2.2,0c-1-1.7-1.8-3.4-2.8-5.1c-1.3,1.5-1.1,3.3-1.1,5.1h-1.8C74.3,61.3,74.3,57.3,74.3,53.3
		z"/>
	<path class="st2" d="M88.2,53.5c1.3-0.8,2.9-0.4,4.2,0.2c-0.2,0.6-0.4,1.3-0.5,1.9c-0.7-0.3-1.3-0.7-2.1-0.7
		c-0.7,0-1.3,0.7-1.3,1.4c0,0.2,0.1,0.4,0.2,0.7c0.9,1.4,2.8,1.7,3.6,3.2c0.8,1.6,0.6,3.9-1,4.8c-1.5,0.9-3.2,0.5-4.7-0.2
		c0.2-0.7,0.4-1.4,0.7-2c0.9,0.5,2.2,1.3,3.2,0.6c0.7-0.4,0.6-1.4,0.2-2c-0.9-1.3-2.7-1.7-3.6-3.1C86.3,56.6,86.6,54.4,88.2,53.5z"
		/>
	<path class="st2" d="M93.4,65.3c0.7-4,1.3-8,2.1-12h0.9c0.8,2.6,1.5,5.4,2.2,8c0.8-2.6,1.3-5.3,2.2-7.9l0.9-0.3
		c0.7,4,1.4,8.1,2.1,12.1H102c-0.4-2.1-0.6-4.3-1.1-6.4c-0.8,2.3-1.2,4.8-2.3,6.9c-1.1-2.2-1.5-4.7-2.3-7c-0.5,2.1-0.7,4.3-1.1,6.4
		L93.4,65.3z"/>
	<path class="st2" d="M105.7,53.5c1.3-0.8,2.9-0.4,4.2,0.2c-0.2,0.7-0.4,1.3-0.5,1.9c-0.7-0.3-1.3-0.8-2.1-0.7
		c-0.7,0-1.3,0.6-1.3,1.4c0,0.2,0.1,0.4,0.2,0.7c0.8,1.3,2.5,1.7,3.5,2.9c1.1,1.5,0.9,4-0.8,5.1c-1.5,0.9-3.3,0.5-4.7-0.2
		c0.2-0.7,0.4-1.4,0.7-2c0.9,0.5,2.2,1.3,3.2,0.6c0.8-0.5,0.6-1.6,0-2.2c-0.9-1.1-2.4-1.5-3.3-2.6C103.9,56.9,104.1,54.5,105.7,53.5
		z"/>
	<path class="st2" d="M122.4,53.4c1.3-0.7,2.8-0.3,4.1,0.3c-0.2,0.7-0.4,1.3-0.5,2c-0.8-0.4-1.8-1-2.7-0.6c-0.4,0.4-0.9,1.2-0.5,1.8
		c0.8,1.4,2.6,1.8,3.6,3.1c1,1.5,0.8,3.9-0.8,5c-1.5,1-3.3,0.6-4.7-0.2c0.2-0.7,0.4-1.3,0.7-1.9c1,0.7,2.6,1.4,3.6,0.2
		c0.7-1.8-1.3-2.8-2.5-3.6C120.2,58.2,120.2,54.6,122.4,53.4z"/>
	<path class="st2" d="M127.5,65.3c0.8-4,1.3-8.1,2.2-12l0.8,0.1c0.9,2.6,1.4,5.3,2.2,7.9c0.7-2.6,1.4-5.3,2.1-7.9h1
		c0.7,4,1.4,8,2.1,12c-0.6,0-1.2-0.1-1.8-0.2c-0.4-2.1-0.7-4.2-1-6.3c-0.8,2-1.2,4.2-2,6.2l-0.6,0.6c-0.8-2.2-1.3-4.5-2.2-6.7
		c-0.3,2.1-0.7,4.2-1,6.3H127.5z"/>
	<path class="st2" d="M139.9,53.4c1.3-0.7,2.8-0.2,4,0.3c-0.2,0.7-0.4,1.3-0.5,2c-0.9-0.5-2.5-1.4-3.2-0.1c-0.7,1.5,1.1,2.4,2.1,3.1
		c2,1,2.8,3.9,1.3,5.6c-1.3,1.6-3.7,1.5-5.3,0.5c0.1-0.7,0.3-1.4,0.5-2c0.9,0.5,2,1.2,3,0.7c0.8-0.3,0.9-1.4,0.5-2
		c-0.8-1.3-2.4-1.7-3.4-2.8C137.8,57,138.1,54.4,139.9,53.4z"/>
	<path class="st2" d="M149.7,58.2c0.2-2.3,1.8-4.8,4.2-5.1c1.4-0.3,2.6,0.3,3.7,1c-0.3,0.6-0.5,1.2-0.8,1.8
		c-1.1-0.7-2.5-1.4-3.6-0.5c-2,1.5-2.1,4.6-1,6.7c0.7,1.5,2.6,1.8,4,1c0-0.8,0-1.7,0-2.5h-1.5v-1.8c1.1,0,2.2,0,3.3,0
		c0,1.8,0,3.7,0,5.5c-1.8,1.1-4.1,1.7-5.9,0.5C150,63.4,149.5,60.6,149.7,58.2z"/>
	<path class="st2" d="M158.5,65.3c1.5-4,2.6-8.2,4.1-12.2l0.7,0.2c1.4,4,2.6,8,4,12h-2l-0.7-2.5h-3.4c-0.2,0.8-0.5,1.6-0.7,2.5
		H158.5z M163,56.9c-0.5,1.4-0.8,2.8-1.3,4.2h2.4C163.7,59.8,163.4,58.3,163,56.9z"/>
	<path class="st2" d="M167.5,53.3h8.3c0,0.7,0,1.3,0,1.9h-3.3c0,3.3,0,6.7,0,10.1h-1.8c0-3.3,0-6.7,0-10.1h-3.3
		C167.5,54.6,167.5,53.9,167.5,53.3z"/>
	<path class="st2" d="M176.9,65.3c0-4,0-8,0-12h6.4c0,0.7,0,1.3,0.1,1.9c-1.5,0-3.1,0-4.7,0c0,0.9,0,1.8,0,2.7h3.3
		c0,0.4,0,1.4,0,1.8h-3.3c0,1.2,0,2.4,0,3.6c1.5,0,3,0,4.6,0c0,0.7,0,1.3,0,1.9C181.2,65.3,179.1,65.3,176.9,65.3z"/>
	<path class="st2" d="M184,53.3h1.8c0.7,2.4,1.2,4.8,1.9,7.2c0.7-2.5,1.2-5.1,2.2-7.5l0.7,0.8c0.7,2.2,1.2,4.5,1.9,6.7
		c0.6-2.4,1.2-4.8,1.8-7.2h1.9c-1,3.5-1.9,7.1-2.9,10.6c-0.2,0.7-0.5,1.4-0.9,1.9c-1.1-2.5-1.5-5.3-2.5-7.9c-0.7,2.5-1.3,4.9-2,7.3
		l-0.7,0.1C186.1,61.4,185,57.3,184,53.3z"/>
	<path class="st2" d="M200.5,52.9c1,0.5,1.1,1.6,1.4,2.5c1.1,3.3,2.2,6.6,3.3,9.8h-2c-0.3-0.8-0.5-1.6-0.7-2.5h-3.4
		c-0.2,0.8-0.5,1.6-0.7,2.5h-2.1C197.7,61.2,198.9,56.9,200.5,52.9z M200.6,56.9c-0.4,1.5-0.7,2.9-1.1,4.3h2.4
		C201.5,59.7,201.2,58.3,200.6,56.9L200.6,56.9z"/>
	<path class="st2" d="M205.1,53.3h2c0.8,1.7,1.6,3.3,2.3,5.1c0.8-1.7,1.6-3.4,2.4-5.1h1.9c-1.1,2.3-2.2,4.6-3.3,6.9
		c-0.3,1.7,0,3.4-0.1,5.1h-1.8c-0.2-2.1,0.5-4.4-0.6-6.2C207,57.1,206.1,55.2,205.1,53.3z"/>
	<path class="st2" d="M219.4,54.3c1.1-1.6,3.5-1.5,5-0.4c-0.3,0.5-0.5,1-0.7,1.5c-0.8-0.4-1.8-1.1-2.5-0.4c-1,0.7-0.5,1.9-0.1,2.8
		h2.4c0-0.4,0-1,0-1.3c0.6-0.3,1.2-0.6,1.8-0.8c0,0.7,0,1.5-0.1,2.2c0.6,0,1.1,0,1.8,0v1.8h-1.8c0,1.1,0,2.2,0.1,3.3
		c0.1,0.9,1.2,0.5,1.8,0.5c0,0.6,0,1.2,0,1.8c-1,0.2-2,0.3-2.9-0.3c-1.4,0.4-3.1,0.8-4.3-0.2c-1.6-1.6-1.5-4.4-0.3-6.2
		C218.7,57.3,218.4,55.5,219.4,54.3z M221.1,63.1c0.6,0.7,1.6,0.4,2.4,0.4c0-1.3,0-2.6,0-3.9c-0.8,0-1.7,0-2.5,0
		C220.5,60.7,220.1,62.2,221.1,63.1z"/>
	<path class="st2" d="M232,65.3c1.5-4,2.5-8.1,4.1-12c0.7-0.8,0.9,0.6,1.1,1c1.2,3.7,2.4,7.4,3.7,11h-2c-0.3-0.8-0.5-1.6-0.7-2.4
		c-1.1,0-2.3,0-3.4,0c-0.2,0.8-0.5,1.6-0.7,2.5L232,65.3L232,65.3z M235.2,61.1h2.4c-0.4-1.5-0.8-2.9-1.1-4.4
		C236,58.2,235.7,59.7,235.2,61.1z"/>
	<path class="st2" d="M241.9,53.3c1.7,0,3.5-0.3,5.1,0.5c1.9,1,1.9,3.7,1.1,5.4c-0.8,1.6-2.8,1.8-4.4,1.8c0,1.5,0,2.9,0,4.3h-1.8
		C242,61.3,241.9,57.3,241.9,53.3z M243.8,55.1c0,1.3,0,2.6,0,4c0.7,0,1.5,0,2.1-0.3c0.9-0.5,1.1-1.8,0.7-2.6
		C246,55.1,244.7,55.2,243.8,55.1z"/>
	<path class="st2" d="M250.2,53.3h1.8c0,4,0,8,0,12h-1.8C250.2,61.3,250.2,57.3,250.2,53.3z"/>
	<path class="st1" d="M13.7,57.4c1.8-0.8,4.4,0,4.7,2.1c0.7,2.3-1.6,4.7-3.9,4C11.7,63.2,11.1,58.5,13.7,57.4z"/>
	<path class="st3" d="M112.5,63.4c0.7-0.8,1.8-0.3,2.1,0.6c0.2,1.3-0.4,2.5-1.1,3.5h-1.7c0.5-0.5,1-1.1,1.4-1.7
		C112.7,65,111.6,64.1,112.5,63.4z"/>
	<path class="st4" d="M4.9,13.7c3.6-0.1,7.3,0,10.9-0.1c-1.8,1.4-3.7,2.7-5.1,4.6c-0.6,0.8-1.2,1.9-2.3,1.9
		c-1.8,0.1-3.6-0.1-5.3,0.1c0,11.8-0.1,23.6,0,35.4c8.1,0.2,16.2,0.1,24.3,0c0.1-1.5,0-3,0-4.5c0.3-1.2,1.5-1.9,2.2-2.8
		c0.1,3.8,0,7.7,0,11.5c0,1.7-0.4,3.5-1.9,4.5c-1.2,0.9-2.7,0.8-4.1,0.8c-6.2,0-12.3,0-18.5,0c-2.4,0.1-4.5-2-4.4-4.4
		c0-14.2,0-28.5,0-42.7C0.8,15.9,2.6,13.7,4.9,13.7z M13.7,57.4c-2.6,1.1-2.1,5.8,0.8,6.2c2.3,0.7,4.7-1.8,3.9-4
		C18.1,57.4,15.6,56.6,13.7,57.4L13.7,57.4z"/>
	<path class="st4" d="M21.7,16.1c2.6-0.2,5.2,0,7.8-0.1c3.5,0,7.3-0.4,10.4,1.4c5.8,3.2,8.5,11.3,5.6,17.3c-1.5,3.3-4.2,6-7.6,7.2
		c-2.5,0.9-5.3-0.2-7.7,1.1c-1.9,0.9-3.2,2.7-4.7,4.1c-1.1,1.1-2.3,2.2-3.5,3.1l-0.7-0.7c0.1-2.3,0.5-4.6,0.8-6.9
		c-1.9-0.8-4-1.2-5.7-2.5c-4.7-3.3-6.6-9.8-4.7-15.2C13.1,20.5,17,16.8,21.7,16.1z M17.4,26c-1,0.4-1.8,1.7-1.1,2.7
		c0.9,1.6,3.8,0.8,4.3,2.7c-1.1,1.6-3,0.2-3.7-1c-0.4,0.4-1.1,0.6-0.8,1.3c0.8,1.8,3.3,2,4.9,1.3c1.4-0.4,2.1-2.5,0.8-3.4
		c-1.3-0.8-2.9-1-4.3-1.7c0.5-0.4,1.1-1.3,1.9-0.9c0.7,0.4,1.2,0.9,1.8,1.3c0.5-0.1,1-0.6,0.9-1.2C21,25.6,18.9,25.3,17.4,26z
		 M23.9,26.2c-0.1,2.1-0.1,4.2,0,6.3c0.1,1,1.7,0.9,1.8,0c0.2-1.5-0.1-3.1,0.3-4.6c0.3-0.7,1-1,1.7-0.7c0.2,0.1,0.4,0.2,0.5,0.3
		c0.4,1.7,0,3.4,0.2,5.1c0,0.9,1.6,0.9,1.7,0.1c0.2-1.5,0-3,0.3-4.4c0.1-1,1.5-1.6,2.2-0.7c0.4,1.7,0,3.4,0.3,5.1
		c0.2,0.8,1.6,0.8,1.8,0c0.1-1.3,0.1-2.5,0.1-3.9c0-0.9,0.1-2-0.8-2.6c-1.2-0.9-2.7-0.4-3.8,0.4c-1.2-1-2.9-1.2-4.1-0.1
		C25.3,25.8,24.5,25.1,23.9,26.2z M36.3,28.6c1,1.5,3.2,1.1,4.4,2.3c-0.1,1.1-1.5,1.5-2.3,0.9c-0.6-0.5-1.1-1-1.6-1.5
		c-0.4,0.4-1.1,0.8-0.7,1.5c1,1.7,3.4,1.8,5.1,1.1c1.2-0.5,1.8-2.4,0.7-3.3c-1.2-0.9-2.9-1-4.1-1.7c0.1-0.2,0.3-0.5,0.3-0.7
		c1.1-1,2.2,0.4,3.2,1c0.4-0.2,0.8-0.4,1.2-0.6c-0.7-0.9-1.5-1.8-2.7-1.8C38,25.2,35.5,26.6,36.3,28.6L36.3,28.6z"/>
	<path class="st2" d="M180.4,21.8c1.7-2.2,4.6-3,7.3-3.1c3.5,0,7,0,10.6,0v6.2c-3.7,0-7.3,0-11,0c-2.2,0-2.2,3.6-0.3,4
		c2.9,0.8,5.8,1.3,8.7,2.1c2.2,0.6,4,2.4,4.4,4.7s0.4,4.8-0.6,6.9c-1.3,2.6-4,4.2-6.9,4.2c-4.1,0-8.3,0-12.4,0c0-2,0-4,0-6
		c3.8,0,7.7,0,11.5,0c2.1,0,2.2-3.6,0.4-4c-3.3-1.1-7-0.8-9.9-2.8C178.3,31.4,177.5,25.3,180.4,21.8z"/>
	<path class="st2" d="M203.6,21.2c0-1.4,1.1-2.6,2.6-2.6c1.3-0.1,2.9-0.1,3.6,1.2c2.2,4.3,4.1,8.7,6.3,13c2-4.2,4-8.4,6-12.5
		c1.2-2.6,6.2-2.2,6.5,0.9c0.1,8.5,0,17.1,0.1,25.6c-2.1,0-4.1,0-6.2,0c0-4.2,0-8.4,0.1-12.6c-1.4,2.6-2.3,5.4-3.6,8
		c-1,2-4.4,2-5.4,0c-1.3-2.5-2.3-5.3-3.6-7.8c-0.1,4.1,0,8.3,0,12.4c-2.1,0-4.2,0-6.3,0C203.6,38.2,203.4,29.7,203.6,21.2z"/>
	<path class="st2" d="M236.6,19.4c2.2-0.8,4.7-0.8,7-0.7c2.5,0,5.1,0,7.6,0c0,2.1,0,4.1,0,6.2c-3.7,0-7.5,0-11.2,0.1
		c-2.1,0.1-1.9,3.6,0,4c2.9,0.8,5.8,1.3,8.7,2.1c2.2,0.7,3.9,2.5,4.3,4.8c0.4,2.4,0.4,5-0.9,7.2c-1.4,2.4-4,3.9-6.8,3.8
		c-4.1,0-8.2,0-12.3,0c0-2,0-4,0-6c4-0.1,7.9,0.1,11.8-0.1c2-0.3,1.8-3.6,0-4c-3-0.9-6.2-0.8-9-2.2c-3.2-1.7-4.8-5.6-4-9.1
		C232.2,22.7,234,20.3,236.6,19.4z"/>
	<rect x="172.9" y="2.8" class="st0" width="75.7" height="11.7"/>
	<path class="st5" d="M242.5,6.3c-0.6,0-1.1,0.3-1.5,0.7c-0.4,0.7-0.6,1.4-0.5,2.2c0,0.7,0.1,1.4,0.5,2c0.4,0.5,0.9,0.7,1.5,0.7
		c0.7,0,1.5-0.4,1.8-1.1V7.3C244,6.7,243.3,6.3,242.5,6.3z"/>
	<path class="st5" d="M218.5,6.3c-0.5,0-1,0.2-1.3,0.6c-0.4,0.4-0.6,1-0.7,1.6h3.8V8.4c0-0.6-0.2-1.1-0.5-1.5
		C219.4,6.5,219,6.3,218.5,6.3z"/>
	<path class="st5" d="M234.7,11.9c0.6,0,1.1-0.3,1.5-0.7c0.4-0.7,0.6-1.4,0.5-2.2c0-0.7-0.1-1.4-0.5-2c-0.4-0.5-0.9-0.7-1.5-0.7
		c-0.8,0-1.5,0.4-1.8,1.2v3.3C233.1,11.5,233.8,12,234.7,11.9z"/>
	<path class="st1" d="M181,9c-0.5-0.2-1-0.4-1.6-0.5c-0.4-0.1-0.9-0.2-1.3-0.4c-0.3-0.1-0.4-0.4-0.4-0.7s0.1-0.6,0.4-0.8
		c0.3-0.2,0.7-0.4,1.1-0.3c0.4,0,0.8,0.1,1.1,0.4c0.3,0.2,0.4,0.6,0.4,0.9h1.3c0-0.7-0.3-1.3-0.8-1.7c-0.6-0.5-1.3-0.7-2.1-0.7
		c-0.7,0-1.5,0.2-2,0.6c-0.5,0.4-0.8,1-0.8,1.6c0,0.4,0.1,0.7,0.3,1s0.5,0.5,0.8,0.7c0.5,0.2,1,0.4,1.5,0.5s1,0.3,1.4,0.5
		c0.3,0.2,0.4,0.5,0.4,0.8s-0.2,0.6-0.4,0.8c-0.4,0.2-0.7,0.3-1.2,0.3c-0.4,0-0.9-0.1-1.3-0.4c-0.3-0.3-0.5-0.6-0.5-1H176
		c0,0.4,0.1,0.9,0.4,1.2c0.3,0.4,0.7,0.7,1.1,0.9c0.5,0.2,1.1,0.4,1.6,0.3c0.7,0,1.5-0.2,2.1-0.6c0.5-0.4,0.8-1,0.8-1.6
		c0-0.4-0.1-0.7-0.3-1C181.7,9.5,181.4,9.2,181,9z"/>
	<path class="st1" d="M192,5.2c-0.5,0-1,0.1-1.5,0.4c-0.4,0.2-0.7,0.5-1,0.9c-0.4-0.8-1.1-1.2-2.2-1.2c-0.9,0-1.7,0.3-2.2,1V5.5
		h-1.2v7.6h1.3V7.6c0.3-0.7,1-1.1,1.8-1.1c1.1,0,1.6,0.6,1.6,1.6v5h1.3v-5c0-0.4,0.2-0.8,0.5-1.1s0.7-0.4,1.2-0.4
		c0.4,0,0.9,0.1,1.2,0.4c0.3,0.4,0.4,0.8,0.4,1.2v5h1.3V8.1C194.5,6.1,193.6,5.2,192,5.2z"/>
	<path class="st1" d="M200.9,9c-0.5-0.2-1-0.4-1.6-0.5c-0.4-0.1-0.9-0.2-1.3-0.4c-0.3-0.1-0.4-0.4-0.4-0.7s0.1-0.6,0.4-0.8
		c0.3-0.2,0.7-0.3,1.1-0.3s0.8,0.1,1.1,0.4c0.3,0.2,0.4,0.6,0.4,0.9h1.3c0-0.7-0.3-1.3-0.8-1.7c-0.6-0.5-1.3-0.7-2.1-0.7
		c-0.7,0-1.5,0.2-2,0.7c-0.5,0.4-0.8,1-0.8,1.6c0,0.4,0.1,0.7,0.3,1s0.5,0.5,0.8,0.7c0.5,0.2,1,0.4,1.5,0.5s1,0.3,1.4,0.5
		c0.3,0.2,0.4,0.5,0.4,0.8s-0.2,0.6-0.4,0.8c-0.4,0.2-0.7,0.3-1.2,0.3c-0.4,0-0.9-0.1-1.3-0.4c-0.3-0.3-0.5-0.6-0.5-1h-1.1
		c0,0.4,0.1,0.9,0.4,1.2c0.3,0.4,0.7,0.7,1.1,0.9c0.5,0.2,1.1,0.4,1.6,0.3c0.7,0,1.5-0.2,2.1-0.6c0.5-0.4,0.8-1,0.8-1.6
		c0-0.4-0.1-0.7-0.3-1C201.6,9.5,201.3,9.2,200.9,9z"/>
	<path class="st1" d="M204.6,11.5c-0.2,0-0.4,0-0.6,0.2c-0.1,0.2-0.2,0.4-0.2,0.6s0,0.4,0.2,0.5c0.2,0.2,0.4,0.2,0.6,0.2
		c0.2,0,0.4,0,0.6-0.2c0.1-0.1,0.2-0.4,0.2-0.5c0-0.2,0-0.4-0.2-0.6C205.1,11.5,204.9,11.4,204.6,11.5z"/>
	<path class="st1" d="M211.1,5.2c-0.9,0-1.7,0.4-2.3,1.1V5.4h-1.2v7.5h1.3V7.5c0.2-0.4,0.4-0.7,0.7-0.9s0.7-0.4,1.1-0.4
		c0.4,0,0.8,0.1,1.1,0.4c0.3,0.4,0.4,0.8,0.4,1.2v5h1.3v-5C213.5,6.1,212.7,5.2,211.1,5.2z"/>
	<path class="st1" d="M218.5,5.2c-0.6,0-1.2,0.2-1.7,0.5c-0.5,0.4-0.9,0.8-1.2,1.4c-0.3,0.6-0.4,1.3-0.4,2v0.2c0,1,0.3,2,1,2.7
		s1.6,1.1,2.5,1c1.1,0,2.2-0.5,2.9-1.5l-0.8-0.6c-0.2,0.3-0.5,0.6-0.8,0.7c-0.4,0.2-0.7,0.3-1.1,0.3c-0.6,0-1.2-0.2-1.6-0.7
		c-0.4-0.5-0.7-1.1-0.7-1.8h5.1V9c0-1-0.2-2-0.8-2.8C220.1,5.5,219.3,5.2,218.5,5.2z M220.3,8.4h-3.8c0-0.6,0.3-1.1,0.7-1.6
		c0.4-0.4,0.8-0.6,1.3-0.6s1,0.2,1.3,0.5C220.1,7.2,220.3,7.8,220.3,8.4L220.3,8.4z"/>
	<path class="st1" d="M223.5,5.3h-1.4v1h1.4V11c0,0.5,0.1,1.1,0.4,1.5c0.4,0.4,0.8,0.6,1.3,0.5c0.4,0,0.7,0,1-0.1v-1.1
		c-0.2,0-0.4,0.1-0.6,0.1c-0.2,0-0.5,0-0.7-0.2c-0.1-0.2-0.2-0.4-0.2-0.7V6.3h1.4v-1h-1.4V3.5h-1.3v1.8H223.5z"/>
	<path class="st1" d="M228.5,11.5c-0.2,0-0.4,0-0.6,0.2c-0.1,0.2-0.2,0.4-0.2,0.6s0,0.4,0.2,0.5c0.2,0.2,0.4,0.2,0.6,0.2
		c0.2,0,0.4,0,0.6-0.2c0.1-0.1,0.2-0.4,0.2-0.5c0-0.4-0.3-0.7-0.7-0.8C228.6,11.5,228.6,11.5,228.5,11.5z"/>
	<path class="st1" d="M231.5,12.9h1.2l0.1-0.9c0.5,0.7,1.4,1.1,2.2,1c0.8,0,1.6-0.4,2.2-1.1c0.6-0.8,0.8-1.8,0.8-2.8V9
		c0-1-0.2-2-0.8-2.9C236.7,5.4,235.9,5,235,5c-0.8,0-1.6,0.3-2.2,1V3.5h-1.3V12.9z M232.8,7.5c0.3-0.7,1.1-1.2,1.8-1.2
		c0.6,0,1.1,0.3,1.5,0.7c0.4,0.6,0.6,1.3,0.5,2c0,0.7-0.1,1.5-0.5,2.2c-0.3,0.5-0.9,0.7-1.5,0.7c-0.8,0-1.5-0.4-1.8-1.2V7.5z"/>
	<path class="st1" d="M244.3,3.5v2.6c-1.1-1.1-2.8-1.2-4-0.2c-0.1,0.1-0.2,0.2-0.3,0.3C239.4,7,239.1,8,239.2,9v0.1
		c0,1,0.3,2,0.8,2.8c0.5,0.7,1.3,1.1,2.2,1.1c0.8,0,1.6-0.3,2.2-1v0.8h1.2V3.5H244.3z M244.3,10.8c-0.3,0.7-1,1.1-1.8,1.1
		c-0.6,0-1.1-0.3-1.5-0.7c-0.4-0.6-0.6-1.3-0.5-2c0-0.7,0.1-1.5,0.5-2.2c0.4-0.5,0.9-0.8,1.5-0.7c0.7,0,1.5,0.4,1.8,1.1V10.8
		L244.3,10.8z"/>
</g>
</svg>
