<?xml version="1.0" encoding="utf-8"?>
<!-- Generator: Adobe Illustrator 24.2.1, SVG Export Plug-In . SVG Version: 6.00 Build 0)  -->
<svg version="1.1" id="Layer_1" xmlns="http://www.w3.org/2000/svg" xmlns:xlink="http://www.w3.org/1999/xlink" x="0px" y="0px"
	 viewBox="0 0 254 72" style="enable-background:new 0 0 254 72;" xml:space="preserve">
<style type="text/css">
	.st0{fill:#0C5E9C;}
	.st1{fill:#FFFFFF;}
	.st2{fill:#2E3192;}
	.st3{fill:#E88325;}
	.st4{clip-path:url(#SVGID_2_);}
	.st5{fill:#F4BB19;}
	.st6{clip-path:url(#SVGID_4_);}
</style>
<g>
	<path class="st0" d="M249.7,22.1h-81c-1.9,0-3.4-1.5-3.4-3.4l0,0V3.9c0-1.9,1.5-3.4,3.4-3.4l0,0h81c1.9,0,3.4,1.5,3.4,3.4v14.7
		C253.2,20.5,251.6,22,249.7,22.1z"/>
	<path class="st1" d="M171.5,18.8V8.3h1.6v1.2c0.2-0.4,0.5-0.8,0.9-1.1c0.5-0.2,1-0.4,1.5-0.4c0.9,0,1.8,0.4,2.3,1.1
		c0.6,0.8,0.9,1.8,0.9,2.8c0.1,1-0.2,2-0.9,2.8c-1,1-2.5,1.4-3.8,0.8c-0.4-0.2-0.8-0.5-1-0.9v4.3h-1.7L171.5,18.8z M173.1,11.8
		c0,0.6,0.2,1.3,0.6,1.8c0.4,0.4,0.9,0.7,1.5,0.6c0.6,0,1.1-0.2,1.4-0.6c0.4-0.5,0.5-1.1,0.5-1.8c0-0.6-0.2-1.3-0.6-1.8
		c-0.4-0.4-0.9-0.7-1.5-0.6c-0.6,0-1.1,0.2-1.4,0.6C173.2,10.6,173.1,11.2,173.1,11.8z"/>
	<path class="st1" d="M182.2,3.7v5.8c0.2-0.4,0.5-0.8,0.9-1.1c0.5-0.2,1-0.4,1.5-0.4c0.9,0,1.8,0.4,2.3,1.1c0.6,0.8,0.9,1.8,0.9,2.8
		c0.1,1-0.2,2-0.9,2.8c-1,1-2.5,1.4-3.8,0.8c-0.4-0.2-0.8-0.5-1-0.9v0.9h-1.6V3.7H182.2z M182.2,11.8c0,0.6,0.2,1.3,0.6,1.8
		c0.4,0.4,0.9,0.7,1.5,0.6c0.6,0,1.1-0.2,1.4-0.6c0.4-0.5,0.5-1.1,0.5-1.8c0-0.6-0.2-1.3-0.6-1.8c-0.4-0.4-0.9-0.7-1.5-0.6
		c-0.6,0-1.1,0.2-1.4,0.6C182.3,10.6,182.2,11.2,182.2,11.8z"/>
	<path class="st1" d="M190.9,15.5H189l2.7-3.8l-2.3-3.3h1.8l1,1.5c0.1,0.1,0.2,0.3,0.3,0.4l0.2,0.4c0.1-0.1,0.1-0.2,0.2-0.4
		c0.1-0.2,0.2-0.3,0.3-0.5l1-1.5h1.8l-2.3,3.3l2.7,3.8h-1.8l-1.4-1.9l-0.1-0.1c-0.2-0.3-0.4-0.6-0.5-0.9c-0.1,0.2-0.2,0.4-0.3,0.6
		s-0.2,0.3-0.3,0.4L190.9,15.5z"/>
	<path class="st1" d="M197,14.6c0-0.5,0.5-1,1-1s1,0.5,1,1s-0.5,1-1,1c-0.3,0-0.5-0.1-0.7-0.3C197.1,15.1,197,14.9,197,14.6z"/>
	<path class="st1" d="M205.7,10.3c-0.2-0.3-0.5-0.5-0.9-0.6c-0.3-0.1-0.7-0.2-1.1-0.2c-0.6,0-1.2,0.2-1.6,0.6
		c-0.4,0.5-0.7,1.1-0.6,1.7c0,0.7,0.2,1.3,0.6,1.8c0.5,0.4,1.1,0.7,1.7,0.6c0.4,0,0.7-0.1,1.1-0.2c0.3-0.2,0.6-0.4,0.9-0.7v1.9
		c-0.3,0.2-0.6,0.3-1,0.4s-0.8,0.1-1.1,0.1c-2,0.1-3.7-1.4-3.8-3.5c0-0.1,0-0.3,0-0.4c0-1,0.4-2.1,1.1-2.8c0.8-0.7,1.8-1.1,2.9-1.1
		c0.4,0,0.7,0.1,1.1,0.1c0.3,0.1,0.6,0.2,0.9,0.4L205.7,10.3L205.7,10.3z"/>
	<path class="st1" d="M206.3,11.8c0-0.5,0.1-1,0.3-1.5s0.5-0.9,0.9-1.3c0.4-0.4,0.8-0.7,1.3-0.9s1-0.3,1.5-0.3s1.1,0.1,1.6,0.3
		c1,0.4,1.7,1.2,2.1,2.1c0.2,0.5,0.3,1,0.3,1.5c0,1-0.4,2-1.1,2.7c-0.4,0.3-0.8,0.6-1.3,0.9c-1,0.4-2,0.4-3,0s-1.7-1.2-2.1-2.1
		C206.4,12.8,206.3,12.3,206.3,11.8z M212.5,11.8c0-0.6-0.2-1.2-0.6-1.7c-0.8-0.9-2.1-1-2.9-0.2c-0.1,0.1-0.1,0.1-0.2,0.2
		c-0.4,0.5-0.7,1.1-0.6,1.7c0,0.6,0.2,1.2,0.6,1.7c0.8,0.9,2.1,1,2.9,0.2c0.1-0.1,0.1-0.1,0.2-0.2C212.3,13.1,212.5,12.5,212.5,11.8
		L212.5,11.8z"/>
	<path class="st1" d="M216.5,15.5h-1.6V8.3h1.6v1.2c0.3-0.4,0.7-0.8,1.1-1.1c0.5-0.2,1-0.4,1.5-0.4s1,0.1,1.4,0.4
		c0.4,0.3,0.7,0.6,0.9,1.1c0.3-0.4,0.7-0.8,1.2-1.1c0.5-0.2,1-0.4,1.5-0.4c0.4,0,0.8,0.1,1.2,0.3s0.7,0.4,0.9,0.8
		c0.1,0.2,0.2,0.4,0.2,0.6c0.1,0.3,0.1,0.6,0.1,0.9v4.9h-1.6v-3.7c0.1-0.7,0-1.3-0.3-1.9c-0.3-0.3-0.7-0.5-1.1-0.4
		c-0.5-0.1-1.1,0.2-1.4,0.6c-0.3,0.7-0.5,1.4-0.4,2.1v3.3H220v-3.7c0-0.6-0.1-1.3-0.4-1.8c-0.3-0.4-0.7-0.6-1.1-0.5
		c-0.3,0-0.6,0.1-0.9,0.2c-0.3,0.1-0.5,0.4-0.6,0.6c-0.1,0.2-0.2,0.4-0.2,0.6c-0.1,0.4-0.1,0.9-0.1,1.4v3.1L216.5,15.5z"/>
	<path class="st1" d="M227.5,14.6c0-0.5,0.5-1,1-1s1,0.5,1,1s-0.5,1-1,1c-0.3,0-0.5-0.1-0.7-0.3C227.6,15.1,227.5,14.9,227.5,14.6z"
		/>
	<path class="st1" d="M232.5,3.7v5.8c0.2-0.4,0.5-0.8,0.9-1.1c0.5-0.2,1-0.4,1.5-0.4c0.9,0,1.8,0.4,2.3,1.1c0.6,0.8,0.9,1.8,0.9,2.8
		c0.1,1-0.2,2-0.9,2.8c-1,1-2.5,1.4-3.8,0.8c-0.4-0.2-0.8-0.5-1-0.9v0.9h-1.6V3.7H232.5z M232.4,11.8c0,0.6,0.2,1.3,0.6,1.8
		c0.4,0.4,0.9,0.7,1.5,0.6c0.6,0,1.1-0.2,1.4-0.6c0.4-0.5,0.5-1.1,0.5-1.8c0-0.6-0.2-1.3-0.6-1.8c-0.4-0.4-0.9-0.7-1.5-0.6
		c-0.6,0-1.1,0.2-1.4,0.6C232.6,10.6,232.4,11.2,232.4,11.8z"/>
	<path class="st1" d="M245.3,3.7h1.6v11.7h-1.6v-0.9c-0.3,0.4-0.6,0.7-1,0.9c-0.4,0.2-0.9,0.3-1.4,0.3c-0.9,0-1.8-0.4-2.4-1.1
		c-0.6-0.8-0.9-1.8-0.9-2.8c-0.1-1,0.3-2,0.9-2.8c0.6-0.7,1.4-1.1,2.3-1.1c0.5,0,1,0.1,1.5,0.4c0.4,0.2,0.8,0.6,0.9,1.1L245.3,3.7
		L245.3,3.7z M245.4,11.8c0.1-0.6-0.1-1.2-0.5-1.7c-0.4-0.4-0.9-0.7-1.4-0.6c-0.6,0-1.1,0.2-1.5,0.6c-0.4,0.5-0.6,1.1-0.6,1.8
		c-0.1,0.6,0.1,1.3,0.5,1.8c0.7,0.8,1.9,0.9,2.7,0.2c0.1-0.1,0.1-0.1,0.2-0.2C245.2,13.2,245.4,12.5,245.4,11.8z"/>
	<path class="st2" d="M92.2,48.1l-3.3-7.4H77.6l-3.3,7.4h-4.9l13.9-29.8l13.9,29.8H92.2z M79.3,36.9h8l-2.9-6.5
		C84.3,30,84,29.5,83.9,29s-0.4-1.1-0.6-1.8c-0.1,0.6-0.4,1.2-0.5,1.8c-0.1,0.5-0.3,1-0.6,1.5L79.3,36.9z"/>
	<path class="st2" d="M99.5,48.1V17.7h4.3V48L99.5,48.1L99.5,48.1z"/>
	<path class="st2" d="M109.6,56.8V29.5h4.3v3.1c0.5-1.1,1.3-2.1,2.3-2.7c1.2-0.7,2.5-1,3.9-0.9c2.3-0.1,4.5,0.9,6,2.7
		c1.6,1.8,2.3,4.2,2.3,7.2c0,3.1-0.8,5.5-2.3,7.4c-1.5,1.8-3.8,2.8-6.2,2.7c-1.2,0-2.4-0.3-3.5-0.8c-1.1-0.6-2-1.4-2.6-2.4v11.1
		L109.6,56.8L109.6,56.8z M113.7,38.7c-0.1,1.7,0.4,3.3,1.4,4.6c0.9,1.1,2.3,1.8,3.8,1.7c1.4,0.1,2.8-0.5,3.7-1.6
		c1-1.3,1.4-2.9,1.4-4.5c0-1.9-0.4-3.5-1.4-4.5c-0.9-1.1-2.3-1.7-3.8-1.6c-1.4-0.1-2.8,0.5-3.8,1.6
		C114.1,35.6,113.6,37.1,113.7,38.7L113.7,38.7z"/>
	<path class="st2" d="M132.7,48.1V17.7h4v14.8c0.7-1.2,1.8-2.1,3-2.8c1.3-0.6,2.7-0.9,4.2-0.9c1.2,0,2.4,0.2,3.6,0.6
		c0.9,0.4,1.7,1.1,2.3,1.9c0.4,0.5,0.6,1.1,0.7,1.8c0.2,1.2,0.2,2.4,0.2,3.6V48h-4.3v-9.5c0-2.4-0.3-4.1-0.9-4.8
		c-0.6-0.8-1.6-1.2-3.1-1.2c-0.9,0-1.8,0.2-2.6,0.6c-0.8,0.3-1.4,0.9-1.8,1.6c-0.3,0.5-0.5,1.1-0.6,1.7c-0.2,1.1-0.2,2.2-0.2,3.3
		v8.5L132.7,48.1L132.7,48.1z"/>
	<path class="st2" d="M173.5,48.1h-4.3v-2.4c-0.7,1-1.6,1.8-2.6,2.4c-1.1,0.6-2.3,0.8-3.5,0.8c-2.4,0.1-4.7-0.9-6.2-2.7
		s-2.3-4.3-2.3-7.4c-0.1-2.6,0.7-5.1,2.3-7.2c1.5-1.8,3.7-2.8,6-2.7c1.4,0,2.7,0.3,3.9,0.9c1,0.6,1.9,1.6,2.3,2.7v-3.1h4.3
		L173.5,48.1z M169.3,38.7c0.1-1.6-0.4-3.2-1.4-4.5c-1.9-2.1-5.2-2.2-7.3-0.2c-0.1,0.1-0.2,0.2-0.2,0.2c-0.9,1.1-1.4,2.6-1.4,4.5
		s0.4,3.5,1.4,4.5c1.8,2,5,2.2,7,0.4c0.2-0.1,0.3-0.3,0.4-0.4C168.9,41.9,169.4,40.3,169.3,38.7z"/>
	<path class="st3" d="M191.2,35.9v12.9h-4.3V20.1h7c1.5,0,3.1,0.1,4.6,0.4c0.9,0.2,1.8,0.6,2.6,1.1c0.9,0.7,1.7,1.6,2.1,2.7
		c0.5,1.2,0.8,2.4,0.8,3.7s-0.3,2.6-0.8,3.8c-0.4,1.1-1.2,2-2.1,2.7c-0.8,0.5-1.6,0.9-2.6,1.1c-1.5,0.3-3.1,0.4-4.6,0.4L191.2,35.9
		L191.2,35.9z M191.5,32.1h1.2c2.6,0,4.3-0.3,5.2-0.9c0.9-0.6,1.3-1.6,1.3-3s-0.4-2.6-1.4-3.2s-2.6-0.9-5-0.9h-1.2L191.5,32.1
		L191.5,32.1z"/>
	<path class="st3" d="M207.7,48.7V20.1h7.2c1.5,0,3,0.1,4.5,0.4c0.9,0.2,1.7,0.5,2.5,1.1c0.9,0.7,1.6,1.5,2.1,2.6s0.7,2.3,0.7,3.5
		c0,1.4-0.3,2.7-1.1,3.8c-0.8,1-1.8,1.8-3.1,2.1c1.6,0.2,3,1,3.9,2.3c1,1.4,1.5,3.1,1.4,4.8c0,1.1-0.2,2.2-0.6,3.3
		c-0.4,1-1,1.9-1.7,2.6c-0.8,0.8-1.8,1.4-2.9,1.7c-1.9,0.4-3.9,0.6-5.8,0.5L207.7,48.7L207.7,48.7z M212.3,32.2h1.8
		c2.2,0,3.8-0.3,4.7-0.9c1-0.7,1.5-1.9,1.4-3.1c0-1.6-0.4-2.6-1.3-3.3S216.4,24,214,24h-1.8L212.3,32.2L212.3,32.2z M212.3,44.8h1.6
		c1.2,0,2.4,0,3.6-0.2c0.7-0.1,1.3-0.3,1.9-0.7c0.6-0.4,1-0.9,1.4-1.5c0.7-1.4,0.7-3.1-0.1-4.5c-0.4-0.7-0.9-1.2-1.6-1.6
		c-0.5-0.2-1-0.4-1.5-0.5c-0.8-0.1-1.5-0.1-2.3-0.1h-3.1C212.3,35.6,212.3,44.8,212.3,44.8z"/>
	<path class="st3" d="M226.9,48.7l9.3-15L228,20.1h4.9l4.1,7c0.2,0.4,0.6,1.1,1.2,2.3l0.3,0.6c0.2-0.4,0.4-0.9,0.7-1.3
		c0.3-0.5,0.6-1,0.9-1.5l4.3-7h4.8l-8.4,13.6l9,15.1h-5.1l-4.8-8.1l-0.1-0.1c-0.5-1-1-1.9-1.4-2.8c-0.2,0.4-0.5,0.9-0.7,1.4
		s-0.6,1-0.9,1.4l-5,8.2L226.9,48.7L226.9,48.7z"/>
	<path class="st0" d="M30,69.4L2.8,41.9C0,39.1,0,34.6,2.8,31.7L30.9,3.3c2.7-2.8,7.2-2.9,10-0.1L41,3.3l27.2,27.5
		c2.8,2.8,2.8,7.3,0,10.2L40.1,69.4C37.4,72.2,32.9,72.3,30,69.4C30.1,69.5,30.1,69.5,30,69.4z"/>
	<g>
		<g>
			<defs>
				<path id="SVGID_1_" d="M30,69.4L2.8,41.9C0,39.1,0,34.6,2.8,31.7L30.9,3.3c2.7-2.8,7.2-2.9,10-0.1L41,3.3l27.2,27.5
					c2.8,2.8,2.8,7.3,0,10.2L40.1,69.4C37.4,72.2,32.9,72.3,30,69.4C30.1,69.5,30.1,69.5,30,69.4z"/>
			</defs>
			<clipPath id="SVGID_2_">
				<use xlink:href="#SVGID_1_"  style="overflow:visible;"/>
			</clipPath>
			<g class="st4">
				<rect x="5.6" y="55.3" class="st5" width="58.7" height="23.7"/>
			</g>
		</g>
	</g>
	<g>
		<g>
			<defs>
				<path id="SVGID_3_" d="M30,69.4L2.8,41.9C0,39.1,0,34.6,2.8,31.7L30.9,3.3c2.7-2.8,7.2-2.9,10-0.1L41,3.3l27.2,27.5
					c2.8,2.8,2.8,7.3,0,10.2L40.1,69.4C37.4,72.2,32.9,72.3,30,69.4C30.1,69.5,30.1,69.5,30,69.4z"/>
			</defs>
			<clipPath id="SVGID_4_">
				<use xlink:href="#SVGID_3_"  style="overflow:visible;"/>
			</clipPath>
			<g class="st6">
				<rect x="6.6" y="-6.3" class="st5" width="58.7" height="23.7"/>
			</g>
		</g>
	</g>
	<path class="st1" d="M28,51.4l3.9-4c1.1-1.1,1.1-2.9,0-4l-0.6-0.6l-7.9,8l0.6,0.6C25.1,52.5,26.8,52.6,28,51.4
		C28,51.5,28,51.5,28,51.4z"/>
	<path class="st1" d="M30.1,38.8L38,31c0.8-0.8,1.9-0.8,2.8-0.1l7.8-7.9c-4-3.4-9.9-3.2-13.6,0.5L22.6,35.8
		c-3.7,3.7-3.9,9.7-0.4,13.6l7.8-7.9C29.3,40.7,29.4,39.5,30.1,38.8z"/>
	<path class="st1" d="M42.7,32.7c1.1,1.1,2.9,1.1,4,0l3.9-4c1.1-1.1,1.1-2.9,0-4L50,24.1L42.1,32L42.7,32.7z"/>
	<polygon class="st0" points="69.6,58.5 69.6,59.5 70.7,59.5 70.7,65.6 70.6,65.6 70.6,65.6 69.6,65.6 69.6,66.5 73.2,66.5 
		73.2,65.6 72,65.6 72,59.5 72.2,59.5 72.2,59.5 73.2,59.5 73.2,58.5 	"/>
	<path class="st0" d="M79.3,63.2c0.1-0.1,0.3-0.2,0.4-0.4c0.2-0.2,0.4-0.5,0.4-0.8c0.1-0.3,0.2-0.7,0.1-1.1c0-0.4-0.1-0.8-0.2-1.1
		c-0.1-0.3-0.3-0.6-0.6-0.8c-0.2-0.2-0.5-0.3-0.8-0.4c-0.3-0.1-0.7-0.1-1.1-0.1H75v8h1.3v-2.8h0.1v-0.1h1.3c0.2,0,0.5,0,0.7-0.1
		c0.1,0,0.1-0.1,0.3-0.1c0.1,0,0.1,0,0.1-0.1C79,63.4,79.1,63.3,79.3,63.2z M78.6,62.2c-0.1,0.1-0.2,0.2-0.4,0.2
		c-0.1,0.1-0.1,0.1-0.2,0.1c-0.1,0.1-0.2,0.1-0.3,0.1c-0.1,0-0.3,0.1-0.5,0.1h-0.9v-3.1h0.1v-0.1h1.3c0.2,0,0.4,0.1,0.6,0.1
		c0.2,0.1,0.4,0.2,0.5,0.4c0.1,0.2,0.2,0.5,0.2,0.8c0,0.2,0,0.5-0.1,0.7C78.8,61.9,78.7,62,78.6,62.2z"/>
	<path class="st0" d="M89.5,59c-0.2-0.2-0.5-0.3-0.8-0.4c-0.3-0.1-0.7-0.1-1.1-0.1h-2.8v8h1.4v-2.8h1.3c0.2,0,0.5,0,0.7-0.1
		s0.4-0.1,0.6-0.2s0.3-0.2,0.5-0.3c0.1-0.1,0.3-0.3,0.4-0.4c0.2-0.2,0.4-0.5,0.4-0.8c0.1-0.3,0.2-0.7,0.1-1.1c0-0.4-0.1-0.8-0.2-1.1
		C90,59.5,89.8,59.2,89.5,59z M88.4,61.6c-0.1,0.2-0.2,0.3-0.3,0.4c-0.1,0.1-0.2,0.2-0.3,0.2c-0.1,0.1-0.2,0.1-0.4,0.1
		c-0.1,0.1-0.3,0.1-0.4,0.1h-0.6v-2.6h1c0.2,0,0.4,0.1,0.6,0.1c0.2,0.1,0.3,0.2,0.4,0.4c0.1,0.2,0.1,0.4,0.1,0.6
		C88.5,61.2,88.5,61.4,88.4,61.6z"/>
	<path class="st0" d="M97.1,65.2c0.1-0.3,0.2-0.7,0.2-1c0-0.4-0.1-0.9-0.4-1.2c-0.3-0.3-0.6-0.5-1-0.6l-0.2-0.1v-0.4l0.1-0.1
		c0.3-0.1,0.5-0.4,0.6-0.6c0.2-0.3,0.3-0.6,0.3-1c0-0.3-0.1-0.6-0.2-0.9c-0.1-0.2-0.3-0.4-0.5-0.6c-0.2-0.1-0.5-0.2-0.7-0.3
		c-0.4-0.1-0.9-0.1-1.3-0.1h-2.3v8h2.8c0.4,0,0.8-0.1,1.2-0.1c0.3-0.1,0.6-0.2,0.8-0.4C96.8,65.6,97,65.5,97.1,65.2z M93,59.6
		L93,59.6L93,59.6l1.3-0.1c0.2,0,0.4,0.1,0.6,0.1c0.2,0.1,0.4,0.2,0.4,0.4c0.1,0.2,0.1,0.3,0.1,0.5s-0.1,0.4-0.1,0.6
		c-0.1,0.2-0.2,0.4-0.4,0.4c-0.1,0.1-0.2,0.1-0.3,0.1c-0.1,0.1-0.2,0.1-0.4,0.1H93L93,59.6L93,59.6z M95.8,64.8
		c-0.1,0.2-0.3,0.4-0.5,0.5c-0.1,0.1-0.2,0.1-0.4,0.1c-0.2,0.1-0.3,0.1-0.5,0.1H93v-2.6h0.1v-0.1h1.5c0.2,0,0.4,0.1,0.6,0.1
		c0.2,0.1,0.4,0.2,0.6,0.4c0.2,0.2,0.2,0.5,0.2,0.8C95.9,64.4,95.8,64.6,95.8,64.8z"/>
	<polygon class="st0" points="104.6,58.5 103.1,58.5 101.5,61.3 101.5,61.2 101.4,61.4 99.8,58.5 98.3,58.5 100.6,62.4 98.2,66.5 
		99.7,66.5 101.3,63.6 101.4,63.7 101.5,63.5 103.1,66.5 104.6,66.5 102.2,62.4 	"/>
	<path class="st0" d="M114.5,65.1c0.1-0.3,0.2-0.7,0.2-1c0-0.4-0.1-0.9-0.4-1.2c-0.3-0.3-0.6-0.5-1-0.6l-0.2-0.1v-0.4l0.1-0.1
		c0.3-0.1,0.5-0.4,0.6-0.6c0.2-0.3,0.3-0.6,0.3-1c0-0.3-0.1-0.6-0.2-0.9c-0.1-0.2-0.3-0.4-0.5-0.6c-0.2-0.1-0.5-0.2-0.8-0.3
		c-0.4-0.1-0.9-0.1-1.3-0.1H109v8h2.8c0.4,0,0.8-0.1,1.2-0.1c0.3-0.1,0.6-0.2,0.8-0.4C114.2,65.6,114.4,65.3,114.5,65.1z
		 M110.4,59.4L110.4,59.4L110.4,59.4l1.3-0.1c0.2,0,0.4,0.1,0.6,0.1c0.2,0.1,0.4,0.2,0.4,0.4c0.1,0.2,0.1,0.3,0.1,0.5
		s-0.1,0.4-0.1,0.6c-0.1,0.2-0.2,0.4-0.4,0.4c-0.1,0.1-0.2,0.1-0.3,0.1c-0.1,0.1-0.2,0.1-0.4,0.1h-1.2L110.4,59.4L110.4,59.4z
		 M113.2,64.6c-0.1,0.2-0.3,0.4-0.5,0.5c-0.1,0.1-0.2,0.1-0.4,0.1c-0.2,0.1-0.3,0.1-0.5,0.1h-1.4v-2.6h1.6c0.2,0,0.4,0.1,0.6,0.1
		c0.2,0.1,0.4,0.2,0.6,0.4c0.2,0.2,0.2,0.5,0.2,0.8C113.3,64.2,113.3,64.4,113.2,64.6z"/>
	<path class="st0" d="M119.8,60.5v4.4l-0.1,0.1c-0.2,0.1-0.4,0.2-0.6,0.3H119c-0.4,0.2-0.8,0.2-1.2,0c-0.2-0.1-0.3-0.2-0.4-0.4
		c-0.1-0.2-0.1-0.4-0.1-0.6v-3.8h-1.2v3.9c-0.1,0.6,0.1,1.2,0.4,1.6c0.3,0.3,0.7,0.5,1.1,0.5c0.1,0,0.3,0,0.4-0.1
		c0.1,0,0.1-0.1,0.2-0.1c0.3-0.2,0.6-0.4,0.9-0.6l0.4-0.4v0.1l0.1-0.1v1.1h1.1v-5.9h-1.1l0,0H119.8z"/>
	<path class="st0" d="M126.7,65.4c0.1-0.2,0.2-0.5,0.1-0.8c0-0.4-0.1-0.7-0.3-1c-0.2-0.3-0.5-0.5-0.9-0.6c-0.2-0.1-0.4-0.1-0.6-0.1
		c-0.2-0.1-0.4-0.1-0.6-0.1c-0.3-0.1-0.5-0.2-0.7-0.3c-0.3-0.3-0.3-0.8,0-1.1c0.1-0.1,0.1-0.1,0.2-0.1c0.1-0.1,0.2-0.1,0.4-0.1
		c0.4-0.1,0.9-0.1,1.3,0c0.2,0.1,0.4,0.1,0.6,0.2c0.1,0.1,0.2,0.2,0.4,0.2v-0.9c-0.2-0.1-0.4-0.1-0.7-0.2c-0.7-0.1-1.4-0.1-2.1,0
		c-0.3,0.1-0.5,0.2-0.7,0.4c-0.2,0.1-0.4,0.3-0.4,0.6c-0.1,0.2-0.1,0.5-0.1,0.7c0,0.4,0.1,0.8,0.3,1.1c0.2,0.3,0.6,0.5,0.9,0.6
		c0.1,0.1,0.4,0.1,0.6,0.1c0.2,0.1,0.4,0.1,0.6,0.1s0.5,0.1,0.6,0.3c0.1,0.2,0.2,0.4,0.2,0.6c0,0.3-0.2,0.5-0.4,0.6
		c-0.1,0-0.1,0-0.1,0.1l0,0c-0.5,0.2-1,0.2-1.6,0.1c-0.2-0.1-0.4-0.2-0.6-0.3l-0.4-0.2v1c0.2,0.1,0.5,0.2,0.8,0.3
		c0.7,0.2,1.5,0.2,2.3,0c0.3-0.1,0.5-0.2,0.7-0.4C126.5,65.9,126.6,65.6,126.7,65.4z"/>
	<rect x="128.2" y="58" class="st0" width="1.3" height="1"/>
	<rect x="128.3" y="60.5" class="st0" width="1.1" height="5.9"/>
	<path class="st0" d="M135.7,60.8c-0.3-0.3-0.7-0.5-1.1-0.5c-0.1,0-0.3,0-0.4,0.1c-0.1,0-0.2,0.1-0.3,0.1c-0.3,0.2-0.6,0.4-0.9,0.6
		l-0.4,0.4v-0.1l-0.1,0.1v-1.1h-1.1v5.9h1.1v-4.5l0.1-0.1c0.2-0.1,0.4-0.3,0.6-0.4h0.1c0.4-0.1,0.8-0.1,1.1,0
		c0.2,0.1,0.3,0.2,0.4,0.4c0.1,0.2,0.1,0.4,0.1,0.6V66h1.2v-3.9C136.2,61.8,136,61.3,135.7,60.8z"/>
	<path class="st0" d="M142.7,66.1V65l-0.4,0.2c-0.1,0.1-0.2,0.1-0.4,0.1s-0.3,0.1-0.4,0.1c-0.5,0.1-1,0.1-1.4,0
		c-0.2-0.1-0.4-0.2-0.6-0.3c-0.2-0.2-0.4-0.3-0.5-0.6c-0.1-0.3-0.2-0.6-0.2-0.9v-0.3h0.1v-0.1h3.9v-0.4c0.1-0.8-0.2-1.5-0.6-2.1
		c-0.5-0.5-1.2-0.8-1.8-0.7c-0.4,0-0.8,0.1-1.1,0.2s-0.6,0.4-0.9,0.6c-0.5,0.7-0.8,1.5-0.8,2.3c-0.1,0.8,0.2,1.7,0.8,2.3
		c0.7,0.5,1.5,0.8,2.3,0.8c0.2,0,0.5,0,0.7-0.1c0.2,0,0.4-0.1,0.6-0.1c0.1,0,0.1-0.1,0.2-0.1h0.1L142.7,66.1z M138.8,62.6
		c0-0.4,0.1-0.8,0.4-1.1c0.2-0.2,0.4-0.3,0.6-0.4c0.2-0.1,0.4-0.1,0.6-0.1c0.4,0,0.8,0.1,1,0.4s0.3,0.7,0.4,1.1v0.3h-0.1v0.1h-2.8
		L138.8,62.6z"/>
	<path class="st0" d="M148,65.4c0.1-0.2,0.2-0.5,0.1-0.8c0-0.4-0.1-0.7-0.3-1s-0.5-0.5-0.9-0.6c-0.2-0.1-0.4-0.1-0.6-0.1
		c-0.2-0.1-0.4-0.1-0.6-0.1c-0.3-0.1-0.5-0.2-0.7-0.3c-0.3-0.3-0.3-0.8,0-1.1c0.1-0.1,0.1-0.1,0.2-0.1c0.1-0.1,0.2-0.1,0.4-0.1
		c0.4-0.1,0.9-0.1,1.3,0c0.2,0.1,0.4,0.1,0.6,0.2c0.1,0.1,0.2,0.1,0.4,0.2v-0.9c-0.2-0.1-0.4-0.1-0.7-0.2c-0.7-0.1-1.4-0.1-2.1,0
		c-0.3,0.1-0.5,0.2-0.7,0.4c-0.2,0.2-0.4,0.3-0.5,0.6c-0.1,0.2-0.1,0.5-0.1,0.7c0,0.4,0.1,0.8,0.3,1.1c0.2,0.3,0.6,0.5,0.9,0.6
		c0.1,0.1,0.4,0.1,0.6,0.1s0.4,0.1,0.6,0.1c0.2,0,0.5,0.1,0.6,0.3c0.1,0.2,0.2,0.4,0.2,0.6c0,0.3-0.2,0.5-0.4,0.6
		c-0.1,0-0.1,0-0.1,0.1l0,0c-0.5,0.2-1,0.2-1.6,0.1c-0.2-0.1-0.4-0.2-0.6-0.3l-0.4-0.2v1c0.2,0.1,0.5,0.2,0.8,0.3
		c0.7,0.2,1.5,0.2,2.3,0c0.3-0.1,0.5-0.2,0.7-0.4C147.7,65.8,147.9,65.6,148,65.4z"/>
	<path class="st0" d="M149.9,66.4c0.7,0.2,1.5,0.2,2.3,0c0.3-0.1,0.5-0.2,0.7-0.4c0.2-0.2,0.4-0.3,0.5-0.6c0.1-0.2,0.2-0.5,0.1-0.8
		c0-0.4-0.1-0.7-0.3-1s-0.5-0.5-0.9-0.6c-0.2-0.1-0.4-0.1-0.6-0.1c-0.2-0.1-0.4-0.1-0.6-0.1c-0.3-0.1-0.5-0.2-0.7-0.3
		c-0.1-0.2-0.2-0.4-0.2-0.6c0-0.3,0.2-0.5,0.4-0.6c0.1-0.1,0.2-0.1,0.4-0.1c0.4-0.1,0.9-0.1,1.3,0c0.2,0.1,0.4,0.1,0.6,0.2
		c0.1,0.1,0.2,0.2,0.4,0.2v-0.9c-0.2-0.1-0.4-0.1-0.7-0.2c-0.7-0.1-1.4-0.1-2.1,0c-0.3,0.1-0.5,0.2-0.7,0.4
		c-0.2,0.1-0.4,0.3-0.4,0.6c-0.1,0.2-0.1,0.5-0.1,0.7c0,0.4,0.1,0.8,0.3,1.1c0.2,0.3,0.6,0.5,0.9,0.6c0.1,0.1,0.4,0.1,0.6,0.1
		c0.2,0.1,0.4,0.1,0.6,0.1c0.2,0,0.5,0.1,0.6,0.3c0.1,0.2,0.2,0.4,0.2,0.6c0,0.3-0.2,0.5-0.4,0.6c-0.1,0-0.1,0-0.1,0.1l0,0
		c-0.5,0.2-1,0.2-1.6,0.1c-0.2-0.1-0.4-0.2-0.6-0.3l-0.4-0.2v1C149.5,66.2,149.7,66.3,149.9,66.4z"/>
	<polygon class="st0" points="163.4,59.3 163.4,58.3 157.5,58.3 157.5,59.3 159.8,59.3 159.8,66.2 161.1,66.2 161.1,59.4 
		161.2,59.4 161.2,59.3 	"/>
	<path class="st0" d="M168.8,60.9c-0.5-0.5-1.2-0.8-1.8-0.7c-0.4,0-0.8,0.1-1.1,0.2s-0.6,0.4-0.9,0.6c-0.5,0.7-0.8,1.5-0.8,2.3
		c-0.1,0.8,0.2,1.7,0.8,2.3c0.7,0.6,1.5,0.8,2.3,0.8c0.2,0,0.5,0,0.7-0.1c0.2,0,0.4-0.1,0.6-0.1c0.1,0,0.1-0.1,0.2-0.1h0.1l0.3-0.1
		v-1.1l-0.4,0.2c-0.1,0.1-0.2,0.1-0.4,0.1s-0.3,0.1-0.4,0.1c-0.5,0.1-1,0.1-1.4,0c-0.2-0.1-0.4-0.2-0.6-0.3
		c-0.2-0.2-0.4-0.3-0.5-0.6c-0.1-0.3-0.2-0.6-0.2-0.9v-0.3h0.1v-0.1h3.9v-0.4C169.4,62.2,169.2,61.5,168.8,60.9z M168.1,62.7h-2.8
		v-0.3c0-0.4,0.1-0.8,0.4-1.1c0.2-0.2,0.4-0.3,0.6-0.4c0.2-0.1,0.4-0.1,0.6-0.1c0.4,0,0.8,0.1,1,0.4s0.3,0.7,0.4,1.1v0.3L168.1,62.7
		z"/>
	<rect x="170.8" y="57.8" class="st0" width="1.2" height="8.4"/>
	<path class="st0" d="M178,60.9c-0.5-0.5-1.2-0.8-1.8-0.7c-0.4,0-0.8,0.1-1.1,0.2s-0.6,0.4-0.9,0.6c-0.5,0.7-0.8,1.5-0.8,2.3
		c-0.1,0.8,0.2,1.7,0.8,2.3c0.7,0.5,1.5,0.8,2.3,0.8c0.2,0,0.5,0,0.7-0.1c0.2,0,0.4-0.1,0.6-0.1c0.1,0,0.1-0.1,0.2-0.1h0.1
		c0.1-0.1,0.1-0.1,0.3-0.1v-1.1l-0.4,0.2c-0.1,0.1-0.2,0.1-0.4,0.1s-0.3,0.1-0.4,0.1c-0.5,0.1-1,0.1-1.4,0c-0.2-0.1-0.4-0.2-0.6-0.3
		c-0.2-0.1-0.4-0.3-0.4-0.6c-0.2-0.3-0.2-0.6-0.2-0.9v-0.3h0.1v-0.1h3.9v-0.4C178.7,62.2,178.5,61.5,178,60.9z M177.4,62.7h-2.8
		v-0.3c0-0.4,0.1-0.8,0.4-1.1c0.2-0.2,0.4-0.3,0.6-0.4c0.2-0.1,0.4-0.1,0.6-0.1c0.4,0,0.8,0.1,1,0.4s0.3,0.7,0.4,1.1v0.3L177.4,62.7
		z"/>
	<path class="st0" d="M184.5,65.6c0.5-0.7,0.7-1.5,0.6-2.3c0.1-0.8-0.1-1.6-0.5-2.3c-0.3-0.5-0.8-0.8-1.4-0.8c-0.1,0-0.3,0-0.4,0.1
		c-0.1,0-0.2,0.1-0.3,0.1c-0.3,0.2-0.5,0.4-0.8,0.6l-0.4,0.4v-0.1l-0.1,0.1v-1H180v8.2h1.2v-2.8l0.1,0.1v-0.1l0.4,0.3
		c0.2,0.1,0.4,0.2,0.6,0.3c0.2,0.1,0.5,0.1,0.7,0.1c0.1,0,0.3,0,0.4-0.1C183.9,66.1,184.2,65.9,184.5,65.6z M183.6,64.8
		c-0.1,0.2-0.4,0.4-0.6,0.5c-0.2,0.1-0.5,0.1-0.7,0.1h-0.4c-0.1,0-0.3-0.1-0.4-0.1l-0.1-0.1v-3.6l0.1-0.1c0.2-0.1,0.4-0.2,0.6-0.3
		h0.1c0.2-0.1,0.4-0.1,0.6-0.1c0.4,0,0.8,0.2,1.1,0.6c0.2,0.5,0.3,1,0.3,1.5C184,63.8,183.9,64.4,183.6,64.8z"/>
	<path class="st0" d="M191.1,60.7c-0.3-0.4-0.7-0.5-1.2-0.5c-0.1,0-0.3,0-0.4,0.1c-0.1,0-0.2,0.1-0.3,0.1c-0.3,0.2-0.6,0.4-0.9,0.6
		l-0.4,0.4v-0.1l-0.1,0.1v-3.6h-1.1v8.4h1.1v-4.4l0.1-0.1c0.2-0.1,0.4-0.3,0.6-0.4h0.1c0.4-0.1,0.8-0.1,1.1,0
		c0.2,0.1,0.3,0.2,0.4,0.4c0.1,0.2,0.1,0.4,0.1,0.6V66h1.2v-3.9C191.5,61.7,191.4,61.1,191.1,60.7z"/>
	<path class="st0" d="M198.3,63.3c0-0.8-0.2-1.7-0.7-2.3c-0.5-0.6-1.3-0.9-2.1-0.9c-0.4,0-0.7,0.1-1.1,0.1c-0.3,0.1-0.6,0.3-0.9,0.6
		c-0.9,1.4-0.9,3.3,0,4.7c0.5,0.6,1.3,0.9,2.1,0.9c0.4,0,0.7-0.1,1.1-0.1c0.3-0.1,0.6-0.3,0.9-0.6C198.1,65,198.4,64.1,198.3,63.3z
		 M197,64.3c-0.1,0.3-0.1,0.5-0.3,0.7c-0.1,0.2-0.3,0.3-0.5,0.4c-0.1,0-0.1,0-0.1,0.1l0,0c-0.2,0.1-0.4,0.1-0.6,0.1
		c-0.2,0-0.4-0.1-0.6-0.1c-0.2-0.1-0.4-0.2-0.5-0.4c-0.1-0.2-0.2-0.4-0.3-0.6c-0.1-0.3-0.1-0.7-0.1-1c0-0.4,0.1-0.8,0.1-1.1
		c0.1-0.3,0.1-0.5,0.3-0.7c0.1-0.2,0.3-0.3,0.5-0.4h0.1c0.4-0.1,0.8-0.1,1.1,0c0.2,0.1,0.4,0.2,0.5,0.4c0.1,0.2,0.2,0.5,0.3,0.7
		c0.1,0.3,0.1,0.7,0.1,1C197.1,63.7,197.1,64,197,64.3z"/>
	<path class="st0" d="M204.2,60.7c-0.3-0.4-0.7-0.5-1.2-0.5c-0.1,0-0.3,0-0.4,0.1c-0.1,0-0.2,0.1-0.3,0.1c-0.3,0.2-0.6,0.4-0.9,0.6
		l-0.4,0.4v-0.1l-0.1,0.1v-1.1h-1.1v5.9h1.1v-4.4l0.1-0.1c0.2-0.1,0.4-0.3,0.6-0.4h0.1c0.4-0.1,0.8-0.1,1.1,0
		c0.2,0.1,0.3,0.2,0.4,0.4c0.1,0.2,0.1,0.4,0.1,0.6V66h1.2v-3.9C204.7,61.7,204.6,61.1,204.2,60.7z"/>
	<path class="st0" d="M210.6,60.9c-0.5-0.5-1.2-0.8-1.8-0.7c-0.4,0-0.8,0.1-1.1,0.2s-0.6,0.4-0.9,0.6c-0.5,0.7-0.8,1.5-0.8,2.3
		c-0.1,0.8,0.2,1.7,0.8,2.3c0.7,0.5,1.5,0.8,2.3,0.8c0.2,0,0.5,0,0.7-0.1c0.2,0,0.4-0.1,0.6-0.1c0.1,0,0.1-0.1,0.2-0.1h0.1L211,66
		v-1.1l-0.4,0.2c-0.1,0.1-0.2,0.1-0.4,0.1c-0.1,0.1-0.3,0.1-0.4,0.1c-0.5,0.1-1,0.1-1.4,0c-0.2-0.1-0.4-0.2-0.6-0.3
		c-0.2-0.1-0.4-0.3-0.4-0.6c-0.2-0.3-0.2-0.6-0.2-0.9v-0.3h0.1v-0.1h3.9v-0.4C211.3,62.2,211.1,61.5,210.6,60.9z M210,62.7h-2.8
		v-0.3c0-0.4,0.1-0.8,0.4-1.1c0.2-0.2,0.4-0.3,0.6-0.4c0.2-0.1,0.4-0.1,0.6-0.1c0.4,0,0.8,0.1,1,0.4s0.3,0.7,0.4,1.1v0.3L210,62.7z"
		/>
	<path class="st0" d="M220.2,58.3c-0.4-0.1-0.9-0.1-1.4-0.1c-0.4,0-0.8,0.1-1.1,0.1c-0.3,0.1-0.6,0.3-0.9,0.5
		c-0.6,0.4-0.9,1.1-0.9,1.8c0,0.5,0.1,0.9,0.4,1.4c0.3,0.4,0.7,0.7,1.2,0.9l0.8,0.2l0.9,0.2c0.2,0.1,0.5,0.2,0.6,0.4
		c0.2,0.2,0.3,0.4,0.3,0.7c0,0.2-0.1,0.5-0.2,0.6c-0.1,0.1-0.3,0.3-0.4,0.4c-0.1,0.1-0.1,0.1-0.3,0.1c-0.1,0.1-0.3,0.1-0.4,0.1
		c-0.2,0-0.4,0.1-0.5,0.1c-0.5,0-1-0.1-1.5-0.3c-0.3-0.2-0.7-0.4-1-0.6v1.3c0.3,0.2,0.7,0.3,1.1,0.4c0.5,0.1,1,0.2,1.5,0.1
		c0.4,0,0.9-0.1,1.3-0.1c0.3-0.1,0.6-0.3,0.9-0.5c0.6-0.4,0.9-1.1,0.9-1.8c0.1-0.9-0.5-1.8-1.4-2.1c-0.3-0.1-0.5-0.2-0.8-0.2
		l-0.8-0.2c-0.3-0.1-0.6-0.2-0.9-0.4c-0.2-0.2-0.3-0.4-0.3-0.7c0-0.2,0.1-0.4,0.2-0.6c0.1-0.1,0.3-0.3,0.4-0.4
		c0.1-0.1,0.2-0.1,0.4-0.1c0.1-0.1,0.2-0.1,0.4-0.1c0.1,0,0.4-0.1,0.5-0.1c0.5,0,1,0.1,1.4,0.3c0.2,0.1,0.5,0.3,0.7,0.4v-1.2
		C220.9,58.4,220.6,58.3,220.2,58.3z"/>
	<polygon class="st0" points="223.6,68.6 224.9,68.6 227.7,60.3 226.5,60.3 225.2,65 225.1,64.8 225,65 223.6,60.3 222.4,60.3 
		224.4,66.4 	"/>
	<path class="st0" d="M232,60.3c-0.7-0.1-1.4-0.1-2.1,0c-0.3,0.1-0.5,0.2-0.7,0.4c-0.2,0.2-0.4,0.3-0.5,0.6
		c-0.1,0.2-0.1,0.5-0.1,0.7c0,0.4,0.1,0.8,0.3,1.1c0.2,0.3,0.6,0.5,0.9,0.6c0.1,0.1,0.4,0.1,0.6,0.1c0.2,0.1,0.4,0.1,0.6,0.1
		c0.2,0,0.5,0.1,0.6,0.3c0.1,0.2,0.2,0.4,0.2,0.6c0,0.3-0.2,0.5-0.4,0.6c-0.1,0-0.1,0-0.1,0.1l0,0c-0.5,0.2-1,0.2-1.6,0.1
		c-0.2-0.1-0.4-0.2-0.6-0.3l-0.4-0.2v1c0.2,0.1,0.5,0.2,0.8,0.3c0.7,0.2,1.5,0.2,2.3,0c0.3-0.1,0.5-0.2,0.7-0.4
		c0.2-0.2,0.4-0.3,0.5-0.6c0.1-0.2,0.2-0.5,0.1-0.8c0-0.4-0.1-0.7-0.3-1s-0.5-0.5-0.9-0.6c-0.2-0.1-0.4-0.1-0.6-0.1
		c-0.2-0.1-0.4-0.1-0.6-0.1c-0.3-0.1-0.5-0.2-0.7-0.3c-0.3-0.3-0.3-0.8,0-1.1c0.1-0.1,0.1-0.1,0.2-0.1c0.1-0.1,0.2-0.1,0.4-0.1
		c0.4-0.1,0.9-0.1,1.3,0c0.2,0.1,0.4,0.1,0.6,0.2c0.1,0.1,0.2,0.2,0.4,0.2v-1.1C232.5,60.5,232.3,60.4,232,60.3z"/>
	<path class="st0" d="M234.4,61.2v3.3c-0.1,0.5,0.1,1.1,0.4,1.5c0.4,0.3,0.9,0.5,1.4,0.4c0.3,0,0.5,0,0.8-0.1c0.1,0,0.2,0,0.3-0.1
		v-0.9c-0.1,0-0.1,0.1-0.1,0.1c-0.1,0-0.3,0.1-0.4,0.1c-0.2,0-0.5-0.1-0.7-0.1c-0.1-0.1-0.3-0.3-0.4-0.4c-0.1-0.2-0.1-0.4-0.1-0.6
		v-3.1h0.1v-0.1h1.6v-0.9h-1.8v-1.8h-1.2v1.8h-0.1v0.1h-0.6v0.9h0.8V61.2z"/>
	<path class="st0" d="M238.2,63.3c-0.1,0.8,0.2,1.7,0.8,2.3c0.7,0.5,1.5,0.8,2.3,0.8c0.2,0,0.5,0,0.7-0.1c0.2,0,0.4-0.1,0.6-0.1
		c0.1,0,0.1-0.1,0.2-0.1h0.1l0.3-0.1v-1.1l-0.4,0.2c-0.1,0.1-0.2,0.1-0.4,0.1c-0.1,0.1-0.3,0.1-0.4,0.1c-0.5,0.1-1,0.1-1.4,0
		c-0.2-0.1-0.4-0.2-0.6-0.3c-0.2-0.1-0.4-0.3-0.4-0.6c-0.2-0.3-0.2-0.6-0.2-0.9v-0.3h0.1v-0.1h3.9v-0.4c0.1-0.8-0.2-1.5-0.6-2.1
		c-0.5-0.5-1.2-0.8-1.8-0.7c-0.4,0-0.8,0.1-1.1,0.2s-0.6,0.4-0.9,0.6C238.4,61.6,238.1,62.4,238.2,63.3z M239.4,62.4
		c0-0.4,0.1-0.8,0.4-1.1c0.2-0.2,0.4-0.3,0.6-0.4c0.2-0.1,0.4-0.1,0.6-0.1c0.4,0,0.8,0.1,1,0.4s0.3,0.7,0.4,1.1v0.3h-0.3v0.1h-2.8
		L239.4,62.4z"/>
	<path class="st0" d="M252.9,61.3c-0.1-0.2-0.2-0.5-0.4-0.6c-0.1-0.1-0.3-0.3-0.4-0.4c-0.3-0.1-0.7-0.2-1.1-0.1
		c-0.1,0.1-0.2,0.1-0.3,0.1c-0.3,0.2-0.7,0.5-0.9,0.8l-0.3,0.3v-0.1l-0.1,0.1l-0.1-0.4c-0.1-0.3-0.3-0.5-0.5-0.7
		c-0.2-0.1-0.5-0.2-0.8-0.2c-0.1,0-0.2,0-0.4,0.1c-0.1,0-0.1,0.1-0.2,0.1c-0.3,0.2-0.6,0.4-0.8,0.6l-0.4,0.4v-0.2l-0.1,0.1v-1.1
		h-1.2V66h1.2v-4.4l0.1-0.1c0.1-0.1,0.3-0.2,0.4-0.3c0.1-0.1,0.2-0.1,0.4-0.1c0.3-0.1,0.7-0.1,1,0.1c0.2,0.1,0.3,0.2,0.4,0.4
		c0.1,0.2,0.1,0.4,0.1,0.6V66h1.2v-4.4l0.1-0.1c0.1-0.1,0.3-0.2,0.5-0.3c0.1-0.1,0.1-0.1,0.3-0.1c0.1-0.1,0.3-0.1,0.4-0.1
		c0.2,0,0.4,0,0.6,0.1c0.2,0.1,0.3,0.2,0.4,0.4c0.1,0.2,0.1,0.4,0.1,0.6v3.8h1.2V62C253.1,62,253,61.7,252.9,61.3z"/>
</g>
</svg>
