<?xml version="1.0" encoding="utf-8"?>
<!-- Generator: Adobe Illustrator 24.2.1, SVG Export Plug-In . SVG Version: 6.00 Build 0)  -->
<svg version="1.1" id="Layer_1" xmlns="http://www.w3.org/2000/svg" xmlns:xlink="http://www.w3.org/1999/xlink" x="0px" y="0px"
	 viewBox="0 0 254 51.9" style="enable-background:new 0 0 254 51.9;" xml:space="preserve">
<style type="text/css">
	.st0{fill:#F15A29;}
	.st1{fill:#2B3990;}
	.st2{fill:#FFFFFF;}
	.st3{fill:#58595B;}
	.st4{fill:#808285;}
	.st5{fill:#414042;}
	.st6{fill:#F26522;}
</style>
<g>
	<g id="XMLID_1_">
		<rect id="XMLID_14_" x="0.6" y="26.9" class="st0" width="26.4" height="23.1"/>
		<rect id="XMLID_13_" x="0.5" y="1.8" class="st1" width="17.5" height="21"/>
		<g id="XMLID_33_">
			<path id="XMLID_34_" class="st2" d="M14.4,5.5l-1,2.2c-0.6-0.6-1.5-0.9-2.7-0.9s-2.2,0.5-3,1.5s-1.1,2.3-1.1,3.9s0.3,2.9,1,3.8
				s1.7,1.4,2.9,1.4c1.4,0,2.4-0.5,3.2-1.5L15,18c-1,1.1-2.6,1.7-4.7,1.7s-3.8-0.8-5-2c-1.1-1.3-1.7-3.2-1.7-5.5
				c0-2.2,0.6-4,1.8-5.4c1.3-1.5,2.9-2.2,4.8-2.2C12,4.5,13.3,4.9,14.4,5.5z"/>
		</g>
		<rect id="XMLID_11_" x="19.4" y="1.8" class="st1" width="17.5" height="21"/>
		<g id="XMLID_30_">
			<path id="XMLID_31_" class="st2" d="M26.3,7v3.4h5.1v2.2h-5.1v6.7h-2.6V4.7h9.6V7C33.3,7,26.3,7,26.3,7z"/>
		</g>
		<rect id="XMLID_9_" x="38.5" y="1.8" class="st1" width="17.5" height="21"/>
		<g id="XMLID_27_">
			<path id="XMLID_28_" class="st2" d="M43.4,19.6V5H46v12.3h6.6v2.3H43.4z"/>
		</g>
		<rect id="XMLID_7_" x="29.3" y="26.9" class="st0" width="26.4" height="23.1"/>
		<rect id="XMLID_6_" x="0.6" y="24.3" class="st3" width="55.1" height="1.5"/>
		<g id="XMLID_24_">
			<path id="XMLID_25_" class="st2" d="M12.5,45.7V31h2.6v14.6h-2.6V45.7z"/>
		</g>
		<g id="XMLID_21_">
			<path id="XMLID_22_" class="st2" d="M42.8,33.3v12.3h-2.6V33.3h-4.7V31h12.1v2.3H42.8z"/>
		</g>
	</g>
	<g>
		<rect id="XMLID_5_" x="73.1" y="45" class="st4" width="41.5" height="3.1"/>
		<rect id="XMLID_16_" x="212.3" y="45.1" class="st4" width="41.2" height="3.1"/>
		<g id="XMLID_111_">
			<path id="XMLID_112_" class="st5" d="M96.6,7.9c0,1-0.3,1.9-0.9,2.5s-1.4,0.9-2.3,0.9c-1,0-1.8-0.3-2.4-1.1
				c-0.6-0.8-0.9-1.8-0.9-3.1V5.3C90.1,4,90.4,3,91,2.2c0.6-0.8,1.5-1.1,2.5-1.1s1.7,0.3,2.3,0.9c0.6,0.6,0.8,1.4,0.9,2.5h-1.3
				c0-0.8-0.2-1.4-0.6-1.7c-0.3-0.3-0.7-0.6-1.4-0.6c-0.7,0-1.3,0.2-1.6,0.8c-0.3,0.6-0.6,1.4-0.6,2.4v1.8c0,1,0.2,1.8,0.6,2.3
				c0.3,0.6,0.8,0.8,1.5,0.8s1.1-0.1,1.4-0.5c0.2-0.3,0.5-0.9,0.6-1.7h1.3V7.9z"/>
			<path id="XMLID_114_" class="st5" d="M106,6.5h-3.5V10h4.1v1h-5.4V1.1h5.4v1h-4.1v3.2h3.5V6.5z"/>
			<path id="XMLID_116_" class="st5" d="M117.6,11.1h-1.4l-4-7.8v7.8H111v-10h1.3l4,7.8V1.1h1.3L117.6,11.1L117.6,11.1z"/>
			<path id="XMLID_118_" class="st5" d="M128.5,2.2h-2.6v9h-1.3v-9H122V1.1h6.5C128.5,1.1,128.5,2.2,128.5,2.2z"/>
			<path id="XMLID_120_" class="st5" d="M135.8,7h-1.7v4.1h-1.3v-10h2.9c1,0,1.7,0.2,2.3,0.8s0.8,1.3,0.8,2.3c0,0.6-0.1,1.1-0.5,1.6
				c-0.2,0.5-0.7,0.8-1.1,1l1.9,4.2v0.1h-1.4L135.8,7z M134.1,6h1.5c0.6,0,0.9-0.1,1.3-0.5c0.3-0.3,0.5-0.8,0.5-1.4
				c0-1.3-0.6-1.9-1.7-1.9h-1.5V6H134.1z"/>
			<path id="XMLID_123_" class="st5" d="M147.8,8.5h-3.4l-0.8,2.6h-1.3L145.5,1h1l3.2,10.1h-1.3L147.8,8.5z M144.7,7.5h2.7L146,2.9
				L144.7,7.5z"/>
			<path id="XMLID_126_" class="st5" d="M155.4,10.1h4v1h-5.3v-10h1.3V10.1z"/>
			<path id="XMLID_128_" class="st5" d="M174.5,6.7H171v4.5h-1.3V1.1h5.3v1h-4v3.4h3.4v1.2H174.5z"/>
			<path id="XMLID_130_" class="st5" d="M180.6,10.1h4v1h-5.3v-10h1.3V10.1z"/>
			<path id="XMLID_132_" class="st5" d="M195,7c0,1.4-0.3,2.4-0.9,3.2c-0.6,0.7-1.4,1.1-2.5,1.1c-1,0-1.8-0.3-2.4-1
				s-0.9-1.7-0.9-3.1V5.3c0-1.4,0.3-2.4,0.9-3.2c0.6-0.8,1.4-1.1,2.5-1.1c1,0,1.8,0.3,2.5,1.1c0.6,0.7,0.9,1.8,0.9,3.1L195,7L195,7z
				 M193.8,5.2c0-1-0.2-1.8-0.6-2.4c-0.3-0.6-0.9-0.8-1.6-0.8c-0.7,0-1.3,0.2-1.6,0.8c-0.3,0.6-0.6,1.3-0.6,2.3v1.8
				c0,1,0.2,1.8,0.6,2.4c0.3,0.6,0.9,0.8,1.6,0.8c0.7,0,1.3-0.2,1.6-0.8c0.3-0.5,0.6-1.3,0.6-2.3V5.2z"/>
			<path id="XMLID_135_" class="st5" d="M202.8,7h-1.7v4.1h-1.3v-10h2.9c1,0,1.7,0.2,2.3,0.8s0.8,1.3,0.8,2.3c0,0.6-0.1,1.1-0.5,1.6
				c-0.2,0.5-0.7,0.8-1.1,1l1.9,4.2v0.1h-1.4L202.8,7z M201.1,6h1.5c0.6,0,0.9-0.1,1.3-0.5c0.3-0.3,0.5-0.8,0.5-1.4
				c0-1.3-0.6-1.9-1.7-1.9h-1.5V6H201.1z"/>
			<path id="XMLID_138_" class="st5" d="M211.5,11.1h-1.3v-10h1.3V11.1z"/>
			<path id="XMLID_140_" class="st5" d="M216.5,11.1v-10h2.4c1.1,0,2.1,0.3,2.7,1.1c0.7,0.7,1,1.7,1,3.1V7c0,1.4-0.3,2.4-1,3.1
				s-1.6,1.1-2.9,1.1h-2.3v-0.1H216.5z M217.8,2.2v7.9h1c0.9,0,1.5-0.2,1.9-0.8c0.5-0.5,0.6-1.3,0.6-2.3V5.2c0-1-0.2-1.8-0.6-2.3
				c-0.5-0.5-1-0.8-1.8-0.8L217.8,2.2L217.8,2.2L217.8,2.2z"/>
			<path id="XMLID_143_" class="st5" d="M232.1,8.5h-3.4l-0.8,2.6h-1.3L229.8,1h1l3.2,10.1h-1.1L232.1,8.5z M229.1,7.5h2.7l-1.4-4.6
				L229.1,7.5z"/>
		</g>
		<g id="XMLID_84_">
			<path id="XMLID_85_" class="st1" d="M73.4,37.3V17.6h3.5v19.8L73.4,37.3L73.4,37.3z"/>
			<path id="XMLID_87_" class="st1" d="M89.7,20.6v16.6h-3.5V20.6h-6.3v-3.1h16.4v3.1H89.7z"/>
			<path id="XMLID_89_" class="st6" d="M113.2,37.4c0,0-0.5-0.1-1.3-0.2c-0.8-0.2-1.6-0.5-2.4-0.8c-0.7-0.3-1.4-0.8-2.1-1.4l1.7-2.1
				c0.8,0.7,1.6,1.1,2.5,1.5c0.9,0.3,1.8,0.5,3,0.5c1.4,0,2.5-0.2,3.3-0.8s1.1-1.3,1.1-2.3l0,0c0-0.7-0.2-1.3-0.6-1.6
				c-0.3-0.3-0.8-0.7-1.4-0.9s-1.3-0.3-2.2-0.6c0,0,0,0-0.1,0h-0.1h-0.2c-1.3-0.2-2.4-0.5-3.2-0.8c-0.8-0.2-1.5-0.8-2.1-1.6
				s-0.9-1.8-0.9-3.2l0,0c0-1.3,0.2-2.3,0.8-3.1c0.6-0.9,1.4-1.5,2.4-1.9c1-0.5,2.3-0.7,3.8-0.7c0.7,0,1.4,0.1,2.1,0.2
				s1.4,0.3,2.1,0.7c0.7,0.3,1.3,0.7,1.9,1.1l-1.6,2.2c-0.8-0.6-1.5-0.9-2.3-1.3c-0.7-0.2-1.5-0.5-2.3-0.5c-1.4,0-2.4,0.2-3.1,0.8
				s-1.1,1.3-1.1,2.3l0,0c0,0.7,0.2,1.3,0.6,1.6c0.3,0.3,0.9,0.7,1.4,0.8c0.6,0.2,1.4,0.3,2.4,0.6h0.1h0.1h0.1h0.1
				c1.1,0.2,2.2,0.6,3,0.9c0.8,0.3,1.5,0.9,1.9,1.6c0.6,0.7,0.8,1.7,0.8,3.1l0,0c0,1.1-0.2,2.2-0.8,3.1c-0.6,0.9-1.4,1.5-2.5,1.9
				c-1,0.5-2.4,0.7-3.9,0.7C113.6,37.4,113.2,37.4,113.2,37.4z"/>
			<path id="XMLID_91_" class="st6" d="M128.7,36.6c-1-0.6-1.8-1.5-2.4-2.5c-0.6-1.1-0.8-2.4-0.8-3.8v-5.6c0-1.5,0.2-2.7,0.8-3.8
				c0.6-1.1,1.4-1.9,2.4-2.5c1-0.6,2.3-0.9,3.7-0.9s2.5,0.3,3.7,0.9c1,0.6,1.8,1.5,2.4,2.5c0.6,1,0.8,2.4,0.8,3.8v5.5
				c0,1.5-0.3,2.7-0.8,3.8s-1.4,1.9-2.4,2.5s-2.3,0.9-3.7,0.9C131,37.4,129.7,37.2,128.7,36.6z M134.4,34.2c0.6-0.3,1.1-0.9,1.5-1.6
				c0.3-0.7,0.5-1.5,0.5-2.3v-5.7c0-0.9-0.1-1.6-0.5-2.3c-0.3-0.7-0.8-1.1-1.5-1.6s-1.4-0.6-2.2-0.6s-1.5,0.2-2.2,0.6
				c-0.7,0.3-1.1,0.9-1.4,1.6c-0.3,0.7-0.5,1.5-0.5,2.3v5.7c0,0.9,0.1,1.6,0.5,2.3c0.3,0.7,0.8,1.1,1.4,1.6s1.4,0.6,2.2,0.6
				S133.9,34.6,134.4,34.2z"/>
			<path id="XMLID_94_" class="st6" d="M144.2,17.7h2.7v19.6h-2.7C144.2,37.2,144.2,17.7,144.2,17.7z M145.5,34.7h11.2v2.6h-11.2
				V34.7z"/>
			<path id="XMLID_97_" class="st6" d="M163,36.6c-1-0.6-1.8-1.4-2.4-2.5c-0.6-1.1-0.8-2.4-0.8-3.9V17.7h2.7v12.6
				c0,1.5,0.3,2.5,1,3.3s1.7,1.1,3.1,1.1c1.4,0,2.3-0.3,3.1-1.1s1-1.9,1-3.3V17.7h2.7v12.6c0,1.5-0.2,2.9-0.8,3.9s-1.4,1.9-2.4,2.5
				s-2.3,0.8-3.8,0.8C165.2,37.4,164,37.2,163,36.6z"/>
			<path id="XMLID_99_" class="st6" d="M176.2,17.7H190v2.6h-13.8V17.7z M181.8,19.3h2.7v18h-2.7V19.3z"/>
			<path id="XMLID_102_" class="st6" d="M196.2,37.3h-2.7V17.7h2.7V37.3z"/>
			<path id="XMLID_104_" class="st6" d="M204.5,36.6c-1-0.6-1.8-1.5-2.4-2.5s-0.8-2.4-0.8-3.8v-5.6c0-1.5,0.3-2.7,0.8-3.8
				c0.5-1,1.4-1.9,2.4-2.5c1-0.6,2.3-0.9,3.7-0.9s2.5,0.3,3.7,0.9c1,0.6,1.8,1.5,2.4,2.5c0.6,1,0.8,2.4,0.8,3.8v5.5
				c0,1.5-0.3,2.7-0.8,3.8s-1.4,1.9-2.4,2.5s-2.3,0.9-3.7,0.9C206.8,37.4,205.6,37.2,204.5,36.6z M210.4,34.2
				c0.6-0.3,1.1-0.9,1.4-1.6c0.3-0.7,0.5-1.5,0.5-2.3v-5.7c0-0.9-0.1-1.6-0.5-2.3c-0.3-0.7-0.8-1.1-1.4-1.6
				c-0.6-0.3-1.4-0.6-2.2-0.6s-1.5,0.2-2.2,0.6c-0.7,0.3-1.1,0.9-1.5,1.6c-0.3,0.7-0.5,1.5-0.5,2.3v5.7c0,0.9,0.1,1.6,0.5,2.3
				c0.3,0.7,0.8,1.1,1.5,1.6s1.4,0.6,2.2,0.6C209,34.8,209.7,34.6,210.4,34.2z"/>
			<path id="XMLID_107_" class="st6" d="M220,17.7h2.5l9.6,15.2l-0.3,0.3V17.7h2.7v19.6H232l-9.6-15l0.3-0.3v15.3H220V17.7z"/>
			<path id="XMLID_109_" class="st6" d="M244.4,37.4c0,0-0.5-0.1-1.3-0.2c-0.8-0.2-1.6-0.5-2.4-0.8c-0.7-0.3-1.4-0.8-2.1-1.4
				l1.7-2.1c0.8,0.7,1.6,1.1,2.5,1.5c0.9,0.3,1.8,0.5,3,0.5c1.4,0,2.5-0.2,3.3-0.8s1.1-1.3,1.1-2.3l0,0c0-0.7-0.2-1.3-0.6-1.6
				c-0.3-0.3-0.8-0.7-1.4-0.9c-0.6-0.2-1.3-0.3-2.2-0.6c0,0,0,0-0.1,0s-0.1,0-0.1,0h-0.2c-1.3-0.2-2.4-0.5-3.2-0.8
				c-0.8-0.2-1.5-0.8-2.1-1.6s-0.9-1.8-0.9-3.2l0,0c0-1.3,0.2-2.3,0.8-3.1c0.6-0.9,1.4-1.5,2.4-1.9c1-0.5,2.3-0.7,3.8-0.7
				c0.7,0,1.4,0.1,2.1,0.2c0.7,0.1,1.4,0.3,2.1,0.7c0.7,0.3,1.3,0.7,1.9,1.1l-1.6,2.2c-0.8-0.6-1.5-0.9-2.3-1.3
				c-0.8-0.3-1.5-0.5-2.3-0.5c-1.4,0-2.4,0.2-3.1,0.8c-0.7,0.6-1.1,1.3-1.1,2.3l0,0c0,0.7,0.2,1.3,0.6,1.6c0.3,0.3,0.9,0.7,1.5,0.8
				c0.6,0.2,1.4,0.3,2.4,0.6h0.1h0.1h0.1h0.1c1.1,0.2,2.2,0.6,3,0.9c0.8,0.3,1.5,0.9,1.9,1.6s0.8,1.7,0.8,3.1l0,0
				c0,1.1-0.2,2.2-0.8,3.1c-0.6,0.8-1.4,1.5-2.5,1.9c-1,0.5-2.4,0.7-3.9,0.7C244.9,37.4,244.4,37.4,244.4,37.4z"/>
		</g>
		<g id="XMLID_54_">
			<path id="XMLID_55_" class="st3" d="M120.5,48.2l0.1,1l0.2-0.9l1.6-5.6h0.9l1.5,5.6l0.2,0.9l0.1-1l1.3-5.5h1l-1.9,8h-0.9
				l-1.6-5.8l-0.1-0.6l-0.1,0.6l-1.7,5.8h-0.9l-1.9-8h1L120.5,48.2z"/>
			<path id="XMLID_57_" class="st3" d="M130.4,48.2l0.1,1l0.2-0.9l1.6-5.6h0.9l1.5,5.6l0.2,0.9l0.1-1l1.3-5.5h1l-1.9,8h-0.9
				l-1.6-5.8l-0.1-0.6l-0.1,0.6l-1.7,5.8h-0.9l-1.9-8h1L130.4,48.2z"/>
			<path id="XMLID_59_" class="st3" d="M140.4,48.2l0.1,1l0.2-0.9l1.6-5.6h0.9l1.5,5.6l0.2,0.9l0.1-1l1.3-5.5h1l-1.9,8h-0.9
				l-1.6-5.8l-0.1-0.6l-0.1,0.6l-1.7,5.8h-1l-1.9-8h1L140.4,48.2z"/>
			<path id="XMLID_61_" class="st3" d="M147.8,50.1c0-0.2,0-0.3,0.1-0.5c0.1-0.1,0.2-0.2,0.5-0.2s0.3,0.1,0.5,0.2
				c0.1,0.1,0.1,0.2,0.1,0.5c0,0.1,0,0.3-0.1,0.5c-0.1,0.1-0.2,0.1-0.5,0.1s-0.3,0-0.5-0.1C147.8,50.5,147.8,50.4,147.8,50.1z"/>
			<path id="XMLID_63_" class="st3" d="M156.7,48.2c-0.1,0.8-0.5,1.5-0.9,1.9c-0.5,0.5-1.3,0.7-2.1,0.7c-0.9,0-1.7-0.3-2.3-1
				c-0.6-0.7-0.8-1.6-0.8-2.7v-0.8c0-0.7,0.1-1.4,0.3-1.9c0.2-0.6,0.7-1,1.1-1.3c0.5-0.3,1-0.5,1.7-0.5c0.8,0,1.5,0.2,2.1,0.7
				c0.5,0.5,0.8,1.1,0.9,1.9h-1c-0.1-0.7-0.3-1.1-0.6-1.4c-0.3-0.3-0.7-0.5-1.3-0.5c-0.7,0-1.1,0.2-1.6,0.8
				c-0.3,0.5-0.6,1.3-0.6,2.2v0.8c0,0.9,0.2,1.6,0.6,2.1c0.3,0.5,0.9,0.8,1.5,0.8s1-0.1,1.4-0.3c0.3-0.2,0.6-0.7,0.6-1.4L156.7,48.2
				L156.7,48.2z"/>
			<path id="XMLID_65_" class="st3" d="M162.6,47.2h-3.3v3.5h-1v-8h4.9v0.9h-3.9v2.7h3.3V47.2L162.6,47.2z"/>
			<path id="XMLID_67_" class="st3" d="M165.4,49.9h3.8v0.9h-4.8v-8h1V49.9z"/>
			<path id="XMLID_69_" class="st3" d="M172.4,47.7h-2.6v-0.8h2.6V47.7z"/>
			<path id="XMLID_71_" class="st3" d="M174.6,50.7h-1v-8h1V50.7z"/>
			<path id="XMLID_73_" class="st3" d="M182,43.6h-2.5v7.1h-1v-7.1H176v-0.9h6.2v0.9C182.2,43.6,182,43.6,182,43.6z"/>
			<path id="XMLID_75_" class="st3" d="M181.9,50.1c0-0.2,0-0.3,0.1-0.5c0.1-0.1,0.2-0.2,0.5-0.2s0.3,0.1,0.5,0.2
				c0.1,0.1,0.1,0.2,0.1,0.5c0,0.1,0,0.3-0.1,0.5c-0.1,0.1-0.2,0.1-0.5,0.1s-0.3,0-0.5-0.1C182,50.5,181.9,50.4,181.9,50.1z"/>
			<path id="XMLID_77_" class="st3" d="M190.8,48.2c-0.1,0.8-0.5,1.5-0.9,1.9c-0.5,0.5-1.3,0.7-2.1,0.7c-0.9,0-1.7-0.3-2.3-1
				c-0.6-0.7-0.8-1.6-0.8-2.7v-0.8c0-0.7,0.1-1.4,0.3-1.9c0.2-0.6,0.7-1,1.1-1.3c0.5-0.3,1-0.5,1.7-0.5c0.8,0,1.5,0.2,2.1,0.7
				c0.5,0.5,0.8,1.1,0.9,1.9h-1c-0.1-0.7-0.3-1.1-0.6-1.4c-0.3-0.3-0.7-0.5-1.3-0.5c-0.7,0-1.1,0.2-1.6,0.8
				c-0.3,0.5-0.6,1.3-0.6,2.2v0.8c0,0.9,0.2,1.6,0.6,2.1c0.3,0.5,0.9,0.8,1.5,0.8s1-0.1,1.4-0.3c0.3-0.2,0.6-0.7,0.6-1.4L190.8,48.2
				L190.8,48.2z"/>
			<path id="XMLID_79_" class="st3" d="M198.5,46.9c0,0.8-0.1,1.5-0.3,2.1s-0.7,1-1.1,1.4s-1,0.5-1.7,0.5c-0.6,0-1.1-0.1-1.7-0.5
				c-0.5-0.3-0.9-0.8-1.1-1.4c-0.2-0.6-0.5-1.3-0.5-1.9v-0.6c0-0.8,0.1-1.5,0.3-2.1s0.7-1,1.1-1.4c0.5-0.3,1-0.5,1.7-0.5
				s1.3,0.1,1.7,0.5c0.5,0.3,0.9,0.8,1.1,1.4c0.2,0.6,0.3,1.3,0.3,2.1L198.5,46.9L198.5,46.9z M197.3,46.5c0-0.9-0.2-1.7-0.6-2.2
				c-0.3-0.5-0.9-0.8-1.6-0.8c-0.7,0-1.1,0.2-1.6,0.8c-0.3,0.5-0.6,1.3-0.6,2.1v0.5c0,0.9,0.2,1.6,0.6,2.2c0.3,0.6,0.9,0.8,1.6,0.8
				s1.3-0.2,1.6-0.7s0.6-1.3,0.6-2.2V46.5z"/>
			<path id="XMLID_82_" class="st3" d="M201.3,42.7l2.6,6.5l2.6-6.5h1.4v8h-1v-3.1l0.1-3.3l-2.6,6.4h-0.8l-2.6-6.4l0.1,3.3v3.1h-1
				v-8C200.1,42.7,201.3,42.7,201.3,42.7z"/>
		</g>
	</g>
</g>
</svg>
