<?xml version="1.0" encoding="utf-8"?>
<!-- Generator: Adobe Illustrator 24.2.1, SVG Export Plug-In . SVG Version: 6.00 Build 0)  -->
<svg version="1.1" id="Layer_1" xmlns="http://www.w3.org/2000/svg" xmlns:xlink="http://www.w3.org/1999/xlink" x="0px" y="0px"
	 viewBox="0 0 260 74.4" style="enable-background:new 0 0 260 74.4;" xml:space="preserve">
<style type="text/css">
	.st0{fill:none;stroke:#B9999C;stroke-width:2;}
	.st1{fill:none;stroke:#A4CDDF;stroke-width:2;}
	.st2{fill:#FFFFFF;}
	.st3{fill:#723339;}
	.st4{fill:#499ABF;}
</style>
<g>
	<path vector-effect="non-scaling-stroke" class="st0" d="M25.8,52.5v5c0,0.5,0.3,0.8,0.8,0.8h9.6c0.4,0,0.7-0.3,0.7-0.6l0,0v-56
		c0-0.5-0.3-0.8-0.8-0.8H25.6C25.2,1,25,1.2,25,1.6v17.1c0,0.6-0.2,0.7-0.6,0.2c-2.3-2.8-4.9-4.1-8-3.8C6.6,15.8,3.7,24,2.7,32.9
		C1.8,41.4,3.5,58.1,15,58.7c4.7,0.3,8.1-1.9,10.3-6.4C25.6,51.7,25.8,51.7,25.8,52.5"/>
	<path vector-effect="non-scaling-stroke" class="st0" d="M97.5,1.1c0-0.2-0.2-0.4-0.4-0.4l0,0H86.2c-0.2,0-0.4,0.2-0.4,0.4l0,0V12
		c0,0.2,0.2,0.4,0.4,0.4l0,0h10.9c0.2,0,0.4-0.2,0.4-0.4l0,0V1.1"/>
	<path vector-effect="non-scaling-stroke" class="st0" d="M81.1,73.2C94.2,75.6,97.4,70,97.5,58c0.1-8.8,0.1-22.6,0-41.5
		c0-0.3-0.2-0.5-0.5-0.5H86.3c-0.3,0-0.5,0.2-0.5,0.5c0,14.4-0.1,28.8-0.3,43.2c0,3.1-1.5,4.3-4.5,3.7c-0.3-0.1-0.7,0.1-0.8,0.5V64
		v8.2C80.3,72.7,80.6,73.1,81.1,73.2"/>
	<path vector-effect="non-scaling-stroke" class="st0" d="M21.8,23.4c-3.9-1.7-5.9,1.2-6.5,4.8c-0.7,4.2-1.9,19,2.3,21.6
		c5.8,3.6,7.2-4.5,7.3-8.1C25,36.1,26.1,25.3,21.8,23.4"/>
	<path vector-effect="non-scaling-stroke" class="st0" d="M46.4,51.2c7.1,12.5,26.7,10.2,30.3-3.8c2.7-10.3,2.3-27.6-10-31.6
		c-4.9-1.6-9.7-1.2-14.4,1.1C41.8,22.1,41.7,42.9,46.4,51.2"/>
	<path vector-effect="non-scaling-stroke" class="st0" d="M109.7,55.5c6.3,4.9,16.2,5.1,22.1-0.2c5.5-4.8,6.4-13.5,6.1-20.3
		c-0.4-8.5-2.7-16.5-11.3-19.3c-4.8-1.5-9.5-1.2-14.2,1.2C101.3,22.3,100.5,48.2,109.7,55.5"/>
	<path vector-effect="non-scaling-stroke" class="st0" d="M162.7,45c4.8,6.4-8.5,10.3-10.4,0.9c-0.1-0.4-0.3-0.5-0.7-0.5l-8.2,1.3
		c-0.3,0-0.5,0.2-0.5,0.6c1.1,12.9,18.2,15,26.6,8.5c7.8-6.1,6-18.4-3.5-21.9c-4.3-1.6-14.3-3.3-10.1-10.3c0.2-0.3,0.5-0.5,0.9-0.6
		c4-0.7,6.5,1,7.6,4.9c0.1,0.3,0.4,0.5,0.8,0.4l0,0l7.4-2.1c0.5-0.1,0.6-0.4,0.5-0.9c-2.9-7.5-8.1-10.9-15.4-10.2
		c-6.9,0.7-12.4,4.3-13.5,11.4c-1.5,10.4,6.9,13.5,15.5,16.6C161.2,43.6,162.2,44.2,162.7,45"/>
	<path vector-effect="non-scaling-stroke" class="st1" d="M225,34.5h-1.6c-0.4,0-0.6,0.2-0.6,0.6v3.6c0,0.5,0.3,0.8,0.8,0.8h1.5
		c0.3,0,0.5,0.2,0.5,0.5v17.5c0,0.4,0.3,0.7,0.7,0.7h5.1c0.4,0,0.7-0.3,0.7-0.7l0,0V40.2c0-0.5,0.3-0.8,0.8-0.8h2.8
		c0.5,0,0.8-0.3,0.8-0.8V35c0-0.4-0.2-0.6-0.6-0.6h-3.1c-0.5,0-0.7-0.3-0.6-0.8l0.5-2.7c0.1-0.4,0.3-0.6,0.8-0.7l2.9-0.2
		c0.3,0,0.5-0.2,0.4-0.5v-3.7c0-0.4-0.2-0.6-0.6-0.7c-7.6-1.8-9.8,2.5-10.5,8.8C225.4,34.3,225.3,34.5,225,34.5"/>
	<path vector-effect="non-scaling-stroke" class="st1" d="M197,26.4c0-0.2-0.2-0.4-0.4-0.4l0,0H191c-0.2,0-0.4,0.2-0.4,0.4l0,0V32
		c0,0.2,0.2,0.4,0.4,0.4l0,0h5.6c0.2,0,0.4-0.2,0.4-0.4l0,0V26.4"/>
	<path vector-effect="non-scaling-stroke" class="st1" d="M207.8,35.2v-0.4c0-0.2-0.2-0.4-0.4-0.4h-5.2c-0.4,0-0.6,0.2-0.6,0.6v22.4
		c0,0.5,0.2,0.7,0.7,0.7h5.2c0.3,0,0.6-0.3,0.6-0.6c0-5.1,0.1-10.2,0.3-15.3c0.2-4.6,5.2-4.4,5.2-0.6c0,5.2,0,10.4,0,15.7
		c0,0.5,0.3,0.8,0.8,0.8h5.1c0.4,0,0.6-0.3,0.6-0.6c0-5,1.1-16.4-0.9-20.6c-1.8-3.6-6.8-4-9.9-1.3C208.4,36.4,207.9,36.2,207.8,35.2
		"/>
	<path vector-effect="non-scaling-stroke" class="st1" d="M256.3,42.8c0-4.7-3.8-8.6-8.5-8.6l0,0h-1.4c-4.7,0-8.6,3.8-8.6,8.5l0,0
		l-0.1,7.3c0,4.7,3.8,8.6,8.5,8.6l0,0h1.4c4.7,0,8.6-3.8,8.6-8.5l0,0L256.3,42.8"/>
	<path vector-effect="non-scaling-stroke" class="st1" d="M197,35c0-0.3-0.3-0.6-0.6-0.6H191c-0.3,0-0.6,0.3-0.6,0.6v22.6
		c0,0.3,0.3,0.6,0.6,0.6h5.4c0.3,0,0.6-0.3,0.6-0.6V35"/>
	<path vector-effect="non-scaling-stroke" class="st1" d="M185.2,51.9c0-0.4-0.3-0.7-0.7-0.7h-5.1c-0.4,0-0.7,0.3-0.7,0.7v5.6
		c0,0.4,0.3,0.7,0.7,0.7h5.1c0.4,0,0.7-0.3,0.7-0.7V51.9"/>
	<path vector-effect="non-scaling-stroke" class="st0" d="M56.6,47.4c0.9,5.2,7.6,4.5,8.4-0.7c1-6.3,1-12.7,0.1-19.1
		c-0.8-5.4-7.4-6-8.5-0.9C55.3,33,55.3,39.8,56.6,47.4"/>
	<path vector-effect="non-scaling-stroke" class="st0" d="M116.7,47.4c0.6,3.4,4.4,4.6,6.7,2.6c3.3-2.9,3.8-23.8-0.9-26.3
		c-2.4-1.3-5.4,0.4-6,3.1C115.3,33.2,115.3,40.1,116.7,47.4"/>
	<path vector-effect="non-scaling-stroke" class="st1" d="M246.5,54.1c1.1,0.3,2.2-0.2,2.5-1.3c0,0,0-0.1,0-0.2
		c0.6-2.3,2.5-15.5-3.1-13.8c-0.5,0.2-0.9,0.6-1.1,1.1C244.3,42.6,243,53,246.5,54.1"/>
</g>
<path class="st2" d="M23.4-1.8H38c1.1,1.4,1.7,2.6,1.7,3.8c0,18.7,0,37.1,0,55.3c0,2.1-1.7,3.9-3.8,3.9c-2.9,0-10.2,0.8-12-1.2
	c-0.2-0.2-0.5-0.3-0.8-0.1C9.7,66.1,2,56,0,44.1V29.4C2.3,17.9,8.6,10,21.5,12.9c0.5,0.1,0.7-0.1,0.6-0.6C21.6,6.9,22,2.2,23.4-1.8z
	 M25.8,52.5v5c0,0.5,0.3,0.8,0.8,0.8h9.6c0.4,0,0.7-0.3,0.7-0.6l0,0v-56c0-0.5-0.3-0.8-0.8-0.8H25.6C25.2,1,25,1.2,25,1.6v17.1
	c0,0.6-0.2,0.7-0.6,0.2c-2.3-2.8-4.9-4.1-8-3.8C6.6,15.8,3.7,24,2.7,32.9C1.8,41.4,3.5,58.1,15,58.7c4.7,0.3,8.1-1.9,10.3-6.4
	C25.6,51.7,25.8,51.7,25.8,52.5z"/>
<path class="st2" d="M83.9-1.8h15.4c1.4,4.5,1.7,9.6,0.8,14.6c-0.4,1.9,0.5,3.3,0.4,4.9c-0.3,13.3-0.3,26.7,0,40
	c0.3,13.6-5.2,21.5-19.9,18.3c-3.8-0.8-3.4-2.9-3.5-6.4c-0.1-2.2,0.1-4.5,0.4-6.7c0-0.3,0.2-0.6,0.4-0.9c1.2-1.1,2.6-1.6,4.2-1.5
	c0.3,0,0.5-0.1,0.5-0.5c0-14.2,0-28.4,0-42.5c0-2,0.5-2.8,0.1-5.3C82,7.5,82.4,2.8,83.9-1.8z M97.5,1.1c0-0.2-0.2-0.4-0.4-0.4l0,0
	H86.2c-0.2,0-0.4,0.2-0.4,0.4l0,0V12c0,0.2,0.2,0.4,0.4,0.4l0,0h10.9c0.2,0,0.4-0.2,0.4-0.4l0,0V1.1z M81.1,73.2
	C94.2,75.6,97.4,70,97.5,58c0.1-8.8,0.1-22.6,0-41.5c0-0.3-0.2-0.5-0.5-0.5H86.3c-0.3,0-0.5,0.2-0.5,0.5c0,14.4-0.1,28.8-0.3,43.2
	c0,3.1-1.5,4.3-4.5,3.7c-0.3-0.1-0.7,0.1-0.8,0.5V64v8.2C80.3,72.7,80.6,73.1,81.1,73.2z"/>
<path class="st3" d="M86.2,0.7h10.9c0.2,0,0.4,0.2,0.4,0.4V12c0,0.2-0.2,0.4-0.4,0.4H86.2c-0.2,0-0.4-0.2-0.4-0.4V1.1
	C85.7,0.9,85.9,0.7,86.2,0.7z"/>
<path class="st3" d="M25.3,52.3c-2.1,4.5-5.6,6.7-10.3,6.4C3.5,58.1,1.8,41.4,2.7,32.9c1-8.9,3.9-17.1,13.8-17.8c3-0.2,5.7,1,8,3.8
	c0.4,0.5,0.6,0.4,0.6-0.2V1.6c0-0.4,0.2-0.6,0.6-0.6H36c0.5,0,0.8,0.3,0.8,0.8v55.8c0,0.4-0.3,0.7-0.6,0.7l0,0h-9.6
	c-0.5,0-0.8-0.3-0.8-0.8v-5C25.8,51.7,25.6,51.7,25.3,52.3z M21.8,23.4c-3.9-1.7-5.9,1.2-6.5,4.8c-0.7,4.2-1.9,19,2.3,21.6
	c5.8,3.6,7.2-4.5,7.3-8.1C25,36.1,26.1,25.3,21.8,23.4z"/>
<path class="st2" d="M47.4,57.5c-9.1-7.5-9-30.7-1.3-39.6c5.1-5.8,14.3-7.3,21.4-5C82.8,17.9,83,39,78.4,51.2
	C73.7,63.6,56.9,65.2,47.4,57.5z M46.4,51.2c7.1,12.5,26.7,10.2,30.3-3.8c2.7-10.3,2.3-27.6-10-31.6c-4.9-1.6-9.7-1.2-14.4,1.1
	C41.8,22.1,41.7,42.9,46.4,51.2z"/>
<path class="st2" d="M150,42.6c-8.6-5.4-11-12.5-7.2-21.4C148.6,8,170.7,9.1,175.4,23c2.3,6.6-3.7,6.3-7.9,7.6
	c-0.5,0.2-0.5,0.3,0,0.5c7.5,3.1,10.7,8.8,9.9,17c0,0.3,0.1,0.4,0.4,0.4c2.9-0.4,7.1-1.1,9.7,0.9c0.2,0.1,0.3,0.1,0.2-0.1
	c-0.2-3.8-0.2-7.7-0.1-11.5c0.1-3.2-0.5-9.1,0.6-13.6c0.1-0.3,0.3-0.6,0.6-0.7c3.4-0.9,6.3-1.1,8.7-0.4c3.2,0.9,2.5,6.1,2.5,8.5
	c0,0.4,0.2,0.5,0.5,0.4c2.7-0.9,5.5-1,8.2-0.1c0.3,0.1,0.6,0.1,0.9-0.1c3.4-1.5,6.6-1.3,9.6,0.8c1,0.7,2.4,0.4,3.1-0.6
	c0.2-0.3,0.3-0.6,0.4-0.9c1-7,5.3-10,13.1-9c4.7,0.6,4.3,7.3,2.6,10.1c-0.2,0.4-0.1,0.8,0.3,1c0.2,0.1,0.5,0.1,0.7,0
	c5.2-2.9,9.9-3,14.3-0.4c6.8,4.1,6.7,15.1,4.3,21.6c-3.7,10.2-19.8,9.4-22.4-1.1c0-0.1-0.2-0.2-0.3-0.2s-0.2,0.1-0.2,0.2
	c-0.3,3,0.9,6.7-3,7.5c-3.5,0.8-6.6,0.3-9.1-1.3c-0.2-0.2-0.5-0.1-0.6,0.1c-2.1,2.9-9,1.3-11.4-0.1c-0.2-0.2-0.5-0.1-0.6,0.1
	c-1.8,2.5-8.2,1.5-10.4,0.5c-0.3-0.1-0.6-0.1-0.9,0c-3.8,1.6-7.5,1.4-11-0.6c-0.3-0.2-0.5-0.1-0.7,0.1c-2.1,2.4-9.4,1.9-10.9-0.4
	c-1-1.5-0.6-4.2-0.6-6.1c0-0.4-0.1-0.4-0.3-0.1c-6.7,11.5-27.5,12.8-33.8,0.1c-0.7-1.4-1.1-3.4-1.7-5.2c-0.1-0.1-0.2-0.2-0.4-0.2
	c-0.1,0-0.2,0.1-0.2,0.2c-2.9,13.4-18.2,17.5-28.9,11.5c-9.1-5-10.2-16.4-9.8-25.7c0.5-10.8,4.9-19.8,16.5-21.7
	c20.3-3.4,26.1,16.6,23.1,32.1c-0.1,0.3,0.1,0.4,0.3,0.3c3-1.2,6.1-1.9,9.3-1.9C150.2,42.7,150.2,42.7,150,42.6z M109.7,55.5
	c6.3,4.9,16.2,5.1,22.1-0.2c5.5-4.8,6.4-13.5,6.1-20.3c-0.4-8.5-2.7-16.5-11.3-19.3c-4.8-1.5-9.5-1.2-14.2,1.2
	C101.3,22.3,100.5,48.2,109.7,55.5z M162.7,45c4.8,6.4-8.5,10.3-10.4,0.9c-0.1-0.4-0.3-0.5-0.7-0.5l-8.2,1.3c-0.3,0-0.5,0.2-0.5,0.6
	c1.1,12.9,18.2,15,26.6,8.5c7.8-6.1,6-18.4-3.5-21.9c-4.3-1.6-14.3-3.3-10.1-10.3c0.2-0.3,0.5-0.5,0.9-0.6c4-0.7,6.5,1,7.6,4.9
	c0.1,0.3,0.4,0.5,0.8,0.4l0,0l7.4-2.1c0.5-0.1,0.6-0.4,0.5-0.9c-2.9-7.5-8.1-10.9-15.4-10.2c-6.9,0.7-12.4,4.3-13.5,11.4
	c-1.5,10.4,6.9,13.5,15.5,16.6C161.2,43.6,162.2,44.2,162.7,45z M225,34.5h-1.6c-0.4,0-0.6,0.2-0.6,0.6v3.6c0,0.5,0.3,0.8,0.8,0.8
	h1.5c0.3,0,0.5,0.2,0.5,0.5v17.5c0,0.4,0.3,0.7,0.7,0.7h5.1c0.4,0,0.7-0.3,0.7-0.7l0,0V40.2c0-0.5,0.3-0.8,0.8-0.8h2.8
	c0.5,0,0.8-0.3,0.8-0.8V35c0-0.4-0.2-0.6-0.6-0.6h-3.1c-0.5,0-0.7-0.3-0.6-0.8l0.5-2.7c0.1-0.4,0.3-0.6,0.8-0.7l2.9-0.2
	c0.3,0,0.5-0.2,0.4-0.5v-3.7c0-0.4-0.2-0.6-0.6-0.7c-7.6-1.8-9.8,2.5-10.5,8.8C225.4,34.3,225.3,34.5,225,34.5z M159.7,25.7
	c-0.2-0.3-0.6-0.3-0.9-0.2c-0.6,0.3-0.9,0.7-0.7,1.2c0.1,0.3,0.3,0.5,0.6,0.7c0.9,0.6,1.9,1.2,3,1.6c0.2,0.1,0.4,0,0.5-0.2
	c0-0.1,0-0.3-0.1-0.4L159.7,25.7z M197,26.4c0-0.2-0.2-0.4-0.4-0.4l0,0H191c-0.2,0-0.4,0.2-0.4,0.4l0,0V32c0,0.2,0.2,0.4,0.4,0.4
	l0,0h5.6c0.2,0,0.4-0.2,0.4-0.4l0,0V26.4z M207.8,35.2v-0.4c0-0.2-0.2-0.4-0.4-0.4h-5.2c-0.4,0-0.6,0.2-0.6,0.6v22.4
	c0,0.5,0.2,0.7,0.7,0.7h5.2c0.3,0,0.6-0.3,0.6-0.6c0-5.1,0.1-10.2,0.3-15.3c0.2-4.6,5.2-4.4,5.2-0.6c0,5.2,0,10.4,0,15.7
	c0,0.5,0.3,0.8,0.8,0.8h5.1c0.4,0,0.6-0.3,0.6-0.6c0-5,1.1-16.4-0.9-20.6c-1.8-3.6-6.8-4-9.9-1.3C208.4,36.4,207.9,36.2,207.8,35.2z
	 M256.3,42.8c0-4.7-3.8-8.6-8.5-8.6l0,0h-1.4c-4.7,0-8.6,3.8-8.6,8.5l0,0l-0.1,7.3c0,4.7,3.8,8.6,8.5,8.6l0,0h1.4
	c4.7,0,8.6-3.8,8.6-8.5l0,0L256.3,42.8z M197,35c0-0.3-0.3-0.6-0.6-0.6H191c-0.3,0-0.6,0.3-0.6,0.6v22.6c0,0.3,0.3,0.6,0.6,0.6h5.4
	c0.3,0,0.6-0.3,0.6-0.6V35z M160.8,47l-5.1-2.6c-0.1,0-0.1,0-0.2,0.1l0,0v0.1c-0.6,1.2,0.1,2.7,1.5,3.4l0.2,0.1
	c1.4,0.7,3.1,0.4,3.7-0.8l0,0v-0.1C160.9,47.1,160.9,47,160.8,47z M185.2,51.9c0-0.4-0.3-0.7-0.7-0.7h-5.1c-0.4,0-0.7,0.3-0.7,0.7
	v5.6c0,0.4,0.3,0.7,0.7,0.7h5.1c0.4,0,0.7-0.3,0.7-0.7V51.9z"/>
<path class="st3" d="M46.4,51.2c-4.7-8.3-4.6-29.1,6-34.3c4.7-2.3,9.5-2.7,14.4-1.1c12.3,4,12.6,21.3,10,31.6
	C73.1,61.4,53.5,63.6,46.4,51.2z M56.6,47.4c0.9,5.2,7.6,4.5,8.4-0.7c1-6.3,1-12.7,0.1-19.1c-0.8-5.4-7.4-6-8.5-0.9
	C55.3,33,55.3,39.8,56.6,47.4z"/>
<path class="st3" d="M109.7,55.5c-9.2-7.3-8.4-33.2,2.7-38.6c4.7-2.3,9.4-2.7,14.2-1.2c8.6,2.8,10.9,10.8,11.3,19.3
	c0.3,6.9-0.5,15.5-6.1,20.3C125.8,60.6,115.9,60.4,109.7,55.5z M116.7,47.4c0.6,3.4,4.4,4.6,6.7,2.6c3.3-2.9,3.8-23.8-0.9-26.3
	c-2.4-1.3-5.4,0.4-6,3.1C115.3,33.2,115.3,40.1,116.7,47.4z"/>
<path class="st3" d="M152.3,45.8c1.9,9.4,15.2,5.6,10.4-0.9c-0.5-0.7-1.5-1.3-2.9-1.9c-8.6-3.1-17-6.3-15.5-16.6
	c1.1-7.1,6.6-10.7,13.5-11.4c7.3-0.7,12.5,2.7,15.4,10.2c0.2,0.5,0,0.8-0.5,0.9l-7.4,2.1c-0.3,0.1-0.7-0.1-0.8-0.4l0,0
	c-1.1-3.9-3.7-5.5-7.6-4.9c-0.4,0.1-0.7,0.3-0.9,0.6c-4.2,7,5.8,8.7,10.1,10.3c9.5,3.5,11.3,15.7,3.5,21.9
	c-8.4,6.6-25.5,4.4-26.6-8.5c0-0.3,0.1-0.5,0.5-0.6l8.2-1.3C152,45.3,152.3,45.4,152.3,45.8z"/>
<path class="st3" d="M81.1,73.2c-0.5-0.1-0.8-0.5-0.8-1v-8.3c0-0.3,0.3-0.6,0.6-0.6H81c3,0.6,4.5-0.6,4.5-3.7
	c0.2-14.4,0.3-28.8,0.3-43.2c0-0.3,0.2-0.5,0.5-0.5H97c0.3,0,0.5,0.2,0.5,0.5c0.1,18.8,0.1,32.7,0,41.5C97.4,70,94.2,75.6,81.1,73.2
	z"/>
<path class="st2" d="M21.8,23.4c4.3,1.9,3.2,12.7,3.1,18.3c0,3.5-1.5,11.7-7.3,8.1c-4.2-2.6-2.9-17.4-2.3-21.6
	C15.9,24.6,17.9,21.7,21.8,23.4z M18.7,26.8C16.9,32.2,17.6,41,18.5,46c0.1,0.6,0.4,1.1,0.8,1.3c0.6,0.4,1.4,0.2,1.7-0.3
	c0-0.1,0.1-0.1,0.1-0.2c2-4.3,1-14.8,0.5-19.7c-0.1-0.8-0.8-1.4-1.6-1.3C19.4,25.8,18.9,26.2,18.7,26.8z"/>
<path class="st2" d="M65,46.7c-0.8,5.2-7.5,5.9-8.4,0.7c-1.3-7.5-1.3-14.4,0-20.6c1.1-5.2,7.7-4.5,8.5,0.9C66,34,66,40.3,65,46.7z
	 M60.7,48.2c1.2,0,2.1-5,2.1-11.1l0,0c0-6.2-0.9-11.1-2.1-11.1l0,0c-1.2,0-2.1,5-2.1,11.1l0,0C58.7,43.2,59.6,48.2,60.7,48.2
	L60.7,48.2z"/>
<path class="st2" d="M123.4,49.9c-2.3,2.1-6.1,0.8-6.7-2.6c-1.3-7.3-1.3-14.1-0.1-20.6c0.5-2.7,3.6-4.4,6-3.1
	C127.2,26.1,126.6,47,123.4,49.9z M120.7,48.2c1.2,0,2.1-5,2.1-11.1l0,0c0-6.2-0.9-11.1-2.1-11.1l0,0c-1.2,0-2.1,5-2.1,11.1
	S119.6,48.2,120.7,48.2z"/>
<path class="st4" d="M225.4,34c0.7-6.3,2.8-10.6,10.5-8.8c0.4,0.1,0.6,0.3,0.6,0.7v3.7c0,0.3-0.2,0.5-0.4,0.5l-2.9,0.2
	c-0.4,0-0.7,0.3-0.8,0.7l-0.5,2.7c-0.1,0.5,0.1,0.8,0.6,0.8h3.1c0.4,0,0.6,0.2,0.6,0.6v3.6c0,0.5-0.3,0.8-0.8,0.8h-2.8
	c-0.5,0-0.8,0.3-0.8,0.8v17.3c0,0.4-0.3,0.7-0.7,0.7l0,0H226c-0.4,0-0.7-0.3-0.7-0.7V40c0-0.3-0.2-0.5-0.5-0.5h-1.5
	c-0.5,0-0.8-0.3-0.8-0.8v-3.6c0-0.4,0.2-0.6,0.6-0.6h1.6C225.3,34.5,225.4,34.3,225.4,34z"/>
<path class="st4" d="M190.9,26h5.6c0.2,0,0.4,0.2,0.4,0.4V32c0,0.2-0.2,0.4-0.4,0.4h-5.6c-0.2,0-0.4-0.2-0.4-0.4v-5.6
	C190.5,26.2,190.7,26,190.9,26z"/>
<path class="st4" d="M209.2,35.7c3.1-2.8,8.2-2.4,9.9,1.3c2,4.2,0.9,15.6,0.9,20.6c0,0.4-0.3,0.6-0.6,0.6h-5.1
	c-0.5,0-0.8-0.3-0.8-0.8c0-5.3,0-10.5,0-15.7c0-3.8-5-4-5.2,0.6c-0.2,5.1-0.3,10.2-0.3,15.3c0,0.3-0.3,0.6-0.6,0.6h-5.2
	c-0.5,0-0.7-0.2-0.7-0.7V35.1c0-0.4,0.2-0.6,0.6-0.6h5.2c0.2,0,0.4,0.1,0.4,0.4v0.4C207.9,36.2,208.4,36.4,209.2,35.7z"/>
<path class="st4" d="M256.3,50c0,4.7-3.9,8.6-8.6,8.5l0,0h-1.4c-4.7,0-8.6-3.9-8.5-8.6l0,0l0.1-7.3c0-4.7,3.9-8.6,8.6-8.5l0,0h1.4
	c4.7,0,8.6,3.9,8.5,8.6l0,0L256.3,50z M246.5,54.1c1.1,0.3,2.2-0.2,2.5-1.3c0,0,0-0.1,0-0.2c0.6-2.3,2.5-15.5-3.1-13.8
	c-0.5,0.2-0.9,0.6-1.1,1.1C244.3,42.6,243,53,246.5,54.1z"/>
<path class="st4" d="M191.1,34.5h5.4c0.3,0,0.6,0.3,0.6,0.6v22.6c0,0.3-0.3,0.6-0.6,0.6h-5.4c-0.3,0-0.6-0.3-0.6-0.6V35
	C190.5,34.7,190.8,34.5,191.1,34.5z"/>
<path class="st2" d="M246.5,54.1c-3.5-1.1-2.2-11.5-1.6-14.2c0.1-0.5,0.5-1,1.1-1.1c5.6-1.7,3.7,11.5,3.1,13.8
	c-0.3,1.1-1.3,1.7-2.4,1.5C246.6,54.1,246.6,54.1,246.5,54.1z"/>
<path class="st4" d="M179.4,51.2h5.1c0.4,0,0.7,0.3,0.7,0.7v5.6c0,0.4-0.3,0.7-0.7,0.7h-5.1c-0.4,0-0.7-0.3-0.7-0.7v-5.6
	C178.7,51.6,179,51.2,179.4,51.2z"/>
</svg>
