<?xml version="1.0" encoding="utf-8"?>
<!-- Generator: Adobe Illustrator 24.2.1, SVG Export Plug-In . SVG Version: 6.00 Build 0)  -->
<svg version="1.1" id="Layer_1" xmlns="http://www.w3.org/2000/svg" xmlns:xlink="http://www.w3.org/1999/xlink" x="0px" y="0px"
	 viewBox="0 0 254 49.1" style="enable-background:new 0 0 254 49.1;" xml:space="preserve">
<style type="text/css">
	.st0{fill:#66B032;}
	.st1{fill:#0D7BFE;}
</style>
<g>
	<g>
		<path class="st0" d="M52.7,0.5c1.8,0,3.6-0.1,5.4,0c0.1,0.3,0.2,0.6,0.2,0.9c0,1.3,0,2.5,0,3.8c0,0.3-0.1,0.6-0.2,0.9
			c-1.8,0.1-3.6,0-5.4,0c-0.1-0.3-0.3-0.6-0.3-1c0-1.3,0-2.7,0-4C52.4,1,52.6,0.7,52.7,0.5z"/>
		<path class="st0" d="M46.7,4.2c1.4-0.1,2.8-0.1,4.2,0C51,5.6,51,7,50.9,8.4c-1.4,0.1-2.8,0.1-4.2,0C46.6,7,46.6,5.6,46.7,4.2z"/>
		<path class="st0" d="M52.4,9.2c0.9,0,1.9,0,2.8,0c0.1,0.9,0,1.9,0,2.8c-0.9,0.1-1.8,0.1-2.7,0.1c-0.1-0.1-0.2-0.2-0.2-0.2
			C52.3,11,52.2,10.1,52.4,9.2z"/>
		<g>
			<g>
				<g>
					<path class="st0" d="M51.5,15.4c-1-1.3-2.1-2.4-3.3-3.4c-2.9-2.4-6.4-3.9-10.1-4.4h0.1c-0.9,0-1.8-0.1-2.6-0.1
						c-2,0-4,0.3-6,0.9c-2.4,0.7-4.7,2-6.7,3.6c-2.2,1.8-3.9,4-5.2,6.4c-1,2.2-1.9,4.6-2,7c1-1,2.1-1.9,3.2-2.8
						c1.6-1.4,3.3-2.7,4.9-4c0.9-0.7,1.9-1.5,2.9-2.2c1-0.7,2-1.4,3-2.1c1.9-1.2,3.7-2.4,5.7-3.5c1.3,0.1,2.7,0.4,4,0.7
						c-2.8,1.3-5.6,2.8-8.3,4.4c-1.1,0.7-2.2,1.5-3.4,2.1v0.1c-1.2,0.7-2.2,1.5-3.4,2.3c-1.6,1.2-3.2,2.3-4.7,3.6
						c-4.5,3.5-8.7,7.3-12.8,11.3c-1.8,1.8-3.5,3.6-5.2,5.4c1.5-2,3.2-3.9,4.8-5.8c2.1-2.4,4.3-4.7,6.6-6.9c-0.1-4.6,1.3-9,4-12.7
						c1.1-1.5,2.4-2.8,3.8-4c2.1-1.8,4.6-3.1,7.2-3.8c3.4-1,7-1.2,10.5-0.4C43.8,7.9,48.5,11.1,51.5,15.4z"/>
				</g>
			</g>
			<g>
				<g>
					<path class="st0" d="M49.4,41.9c-2.1,2.2-4.7,4.1-7.7,5.2c-3.5,1.3-7.4,1.7-11.1,1.1c-4.2-0.7-8.1-2.7-11.1-5.6
						c-0.4-0.4-0.7-0.7-1-1.1c-1.8-2-3.2-4.3-4.1-6.8c-0.5,0.2-1,0.6-1.5,0.9c1.1-1,2.4-1.9,3.6-2.9c2.8-2.2,5.6-4.2,8.5-6.2
						c1.7-1.2,3.5-2.2,5.2-3.3c1.1-0.7,2.2-1.3,3.4-1.9c0.9-0.4,1.7-0.9,2.6-1.3c0.9-0.5,1.8-0.8,2.7-1.3l0,0
						c1.2-0.6,2.4-1.1,3.7-1.5c-0.5,1.1-1.1,2.1-1.6,3.2c-0.4,0.1-0.9,0.3-1.3,0.5c-0.7,0.3-1.4,0.6-2.1,0.8
						c-1.1,0.4-2.1,0.9-3.2,1.4c-1.2,0.6-2.4,1.2-3.6,1.8c-1.8,0.9-3.6,1.9-5.3,2.9c-3,1.6-5.8,3.5-8.6,5.2
						c-0.4,0.2-0.3,0.6-0.2,0.9c0.7,1.9,1.6,3.7,2.8,5.2c0.7,0.9,1.4,1.7,2.2,2.5c3.6,3.5,8.7,5.6,13.8,5.6c2.2,0.1,4.5-0.4,6.7-1.1
						c2.6-1,5.1-2.4,7.1-4.4C49.2,41.8,49.3,41.9,49.4,41.9z"/>
				</g>
			</g>
		</g>
		<g>
			<g>
				<path class="st0" d="M54.2,34.4L54.2,34.4c0,0.2-0.2,0.5-0.3,0.9c-1,2.5-2.6,4.7-4.5,6.6c-0.1,0-0.3-0.1-0.3-0.1
					c1.2-1.4,2.5-3,2.5-4.9c0.1-0.9-0.3-1.8-0.8-2.6c-1.7-1.2-3.9-0.9-5.8-0.3c-1,0.3-1.9,0.7-2.8,1.2c-1.5,1-2.7,2.2-3.9,3.6
					c-0.5,0.7-1.5,0.1-2.1,0.2c-3.1-0.3-6.1-0.7-9.2-0.9c0.5-1.8,1.6-3.3,2.7-4.7c1.2-1.5,2.6-3,4.1-4.2c1.2-1,2.4-1.8,3.8-2.6
					c1-0.6,2-1,3.1-1.5c3.8-1.5,8.6-1.9,12,0.7c0.7,0.6,1.3,1.4,1.6,2.3C55,30,54.8,32.3,54.2,34.4z"/>
			</g>
		</g>
		<path class="st0" d="M45.3,12.3c-0.6,0.9-1,1.9-1.6,2.8c-0.2,0.3-0.6,0.3-0.8,0.3l0.1,0.1c-0.9,0.3-1.8,0.7-2.8,1.2
			c-1.3,0.6-2.6,1.3-4,1.9v0.1c-3.7,1.9-7.2,4.1-10.6,6.3c-1.3,0.8-2.5,1.8-3.9,2.5v0.1c-1,0.6-1.9,1.4-2.9,2.1
			c-0.7,0.6-1.5,1.1-2.3,1.7c-0.7,0.6-1.5,1.2-2.2,1.7c-0.4,0.4-1,0.8-1.5,1.3c-0.7,0.6-1.3,1.1-1.9,1.7c-0.7,0.7-1.4,1.4-2.1,2.1
			c-0.7,0.7-1.3,1.5-1.9,2.2l0,0c-0.7,0.8-1.3,1.7-1.7,2.7c-0.1,0.4-0.3,1,0,1.4c0.4,0.6,1.3,0.7,1.9,0.9c3.8,0.2,7.6-0.6,11.3-1.5
			C15,45.3,11.6,46.7,8,47.4l0.1,0.1c-2,0.3-4.2,0.7-6.1,0C1,47.2,0.8,46,0.9,45c0.3-1.8,1.4-3.4,2.5-4.9c0.5-0.7,1-1.4,1.6-2
			c0.7-0.9,1.5-1.7,2.3-2.4c0.5-0.6,1.1-1.2,1.7-1.8c0.8-0.8,1.6-1.5,2.4-2.2c0.6-0.6,1.3-1.2,2-1.8c0.8-0.6,1.5-1.3,2.3-1.9
			c0.6-0.5,1.2-1,1.9-1.5c1.3-1,2.7-2,4-3c1.5-1,2.8-2.1,4.4-3v-0.1c1.5-0.9,3-1.9,4.4-2.8h0.1c2-1.3,4.1-2.5,6.2-3.6l0,0
			c0.9-0.5,1.9-0.9,2.8-1.4c1-0.3,2-1.2,3.1-0.9C43.6,12,44.4,12.2,45.3,12.3z"/>
		<g>
			<g>
				<path class="st0" d="M70.1,11c2.6,0,4.9,0.6,7,1.7s3.7,2.9,4.9,5.3c1.2,2.4,1.8,5.6,1.8,9.5s-0.6,7-1.8,9.4
					c-1.2,2.4-2.9,4.2-4.9,5.3s-4.4,1.7-7,1.7c-2.5,0-4.9-0.6-7-1.7c-2.1-1.1-3.7-2.9-5-5.3c-1.2-2.4-1.8-5.5-1.8-9.4s0.6-7,1.8-9.5
					s2.9-4.2,5-5.3C65.2,11.6,67.5,11,70.1,11z M70.1,12.2c-2.3,0-4.2,1.2-5.7,3.6s-2.2,6.3-2.2,11.7s0.7,9.3,2.2,11.7
					s3.4,3.6,5.7,3.6s4.2-1.2,5.7-3.6C77.3,36.8,78,33,78,27.5s-0.7-9.3-2.2-11.7C74.2,13.4,72.4,12.2,70.1,12.2z"/>
			</g>
		</g>
	</g>
	<g>
		<g>
			<path class="st1" d="M99.9,37.5c-1.4-1.4-1.7-3.6-0.8-5.5c0.3-0.7,0.9-1.4,1.7-2.2c0.7-0.7,1.5-1.5,2.3-2.2l0.2-0.2
				c2.1-2.1,4.3-4.3,6.5-6.4c0.3-0.3,0.3-0.3,0.3-0.3l0,0c0,0,0.1,0,0.3,0.2c0.1,0.2,0.3,0.4,0.5,0.5c0.1,0.1,0.2,0.1,0.2,0.2
				c0.6,0.5,1,0.9,1,1.1c0,0.2-0.4,0.6-1,1.2l-0.3,0.3c-2,2-4.3,4.3-6.6,6.5C102.4,32.5,100.3,34.5,99.9,37.5L99.9,37.5L99.9,37.5z"
				/>
		</g>
		<g>
			<g>
				<path class="st1" d="M131.2,43.6c-1.1,0-2.3-0.7-2.3-2.2V14.3c0-1.5,1.1-2.2,2.2-2.2c1.1,0,2.2,0.7,2.2,2.2v27.2
					c0,0.7-0.2,1.2-0.7,1.6C132.3,43.5,131.8,43.6,131.2,43.6L131.2,43.6z"/>
			</g>
			<g>
				<path class="st1" d="M154,43.8c-7.2,0-13.5-4.7-15.4-11.5c-1.3-4.7-0.4-9.6,2.5-13.5c3-4.1,7.7-6.5,12.7-6.6h0.1
					c1.3,0,1.9,1,1.9,2s-0.6,2.1-2,2.2c-4.7,0-8.9,2.8-10.7,7.1s-0.8,9.4,2.5,12.7c2.2,2.2,5.2,3.4,8.2,3.4c1.6,0,3.1-0.3,4.5-0.9
					c3.3-1.4,5.9-4.4,6.8-8c0-0.1,0-0.3-0.1-0.4c-0.1-0.1-0.2-0.2-0.4-0.2h-10.8c-1.4,0-2-1-2-2.1c0-0.6,0.2-1.1,0.5-1.5
					c0.4-0.4,0.9-0.6,1.5-0.6h13.7c0.6,0,1.1,0.2,1.5,0.7c0.4,0.4,0.6,0.9,0.6,1.4c-0.1,5.6-3,10.7-7.7,13.6
					C159.5,43,156.8,43.8,154,43.8L154,43.8z"/>
			</g>
			<g>
				<path class="st1" d="M176.1,43.6c-1.1,0-2.3-0.7-2.3-2.2V14.3c0-1.5,1.1-2.2,2.3-2.2c1.1,0,2.3,0.7,2.3,2.2v27.2
					c0,0.7-0.2,1.2-0.7,1.6C177.3,43.5,176.7,43.6,176.1,43.6L176.1,43.6z"/>
			</g>
			<g>
				<path class="st1" d="M194.3,43.7c-1.1,0-2.4-0.7-2.4-2.2V17.2c0-0.3-0.2-0.5-0.5-0.5H184c-1.6,0-2.2-1.2-2.2-2.3
					c0-1.2,0.7-2.3,2.2-2.3h20.4c1.5,0,2.2,1.2,2.2,2.3c0,1.1-0.7,2.4-2.2,2.4h-7.3c-0.3,0-0.5,0.2-0.5,0.5v24.2
					C196.6,43.1,195.5,43.7,194.3,43.7z"/>
			</g>
			<path class="st1" d="M226.1,43.7c-1.1,0-1.9-0.6-2.3-1.6l-0.9-2.7c-1-2.9-2-5.9-3-8.8c-0.1-0.2-0.3-0.3-0.5-0.3h-6.6
				c-0.2,0-0.4,0.1-0.5,0.3c-1.3,3.8-2.6,7.7-3.9,11.5c-0.3,1-1.2,1.6-2.3,1.6c-0.8,0-1.6-0.4-2.1-1c-0.3-0.5-0.4-1.1-0.2-1.8
				c1.2-3.5,2.4-6.9,3.6-10.4c1.9-5.6,3.8-11.1,5.8-16.7c0.4-1,1.2-1.6,2.3-1.6c0.2,0,0.3,0,0.5,0h0.1h0.1c0.2,0,0.3,0,0.5,0
				c1.1,0,1.9,0.6,2.3,1.6c1.9,5.6,3.9,11.3,5.8,16.9c1.2,3.4,2.3,6.8,3.5,10.2c0.2,0.7,0.2,1.3-0.2,1.8
				C227.7,43.3,226.9,43.7,226.1,43.7L226.1,43.7z M216.1,20.7c-0.2,0-0.4,0.1-0.5,0.3c-0.4,1.3-0.9,2.6-1.3,3.9
				c0,0.1,0,0.3,0.1,0.4c0.1,0.1,0.3,0.2,0.4,0.2h2.7c0.1,0,0.3-0.1,0.4-0.2c0.1-0.1,0.1-0.3,0.1-0.4c-0.4-1.3-0.9-2.6-1.3-3.9
				C216.5,20.8,216.3,20.7,216.1,20.7L216.1,20.7z"/>
			<g>
				<path class="st1" d="M235.1,43.8c-0.6,0-1.2-0.2-1.6-0.7c-0.4-0.4-0.7-0.9-0.7-1.6V14.4c0-1.5,1.1-2.2,2.2-2.2
					c1.1,0,2.3,0.7,2.3,2.2v24.4c0,0.3,0.2,0.5,0.5,0.5H251c0.7,0,1.2,0.2,1.6,0.7c0.3,0.4,0.6,1,0.6,1.6c0,1.1-0.7,2.3-2.2,2.3
					L235.1,43.8L235.1,43.8z"/>
			</g>
			<path class="st1" d="M109.1,43.9c-0.6,0-1.3-0.1-1.9-0.2c-1.9-0.4-3.3-1.8-3.9-3.6s-0.1-3.7,1.2-5.1c1.9-2,3.8-3.9,5.3-5.4l1-1
				c0.1-0.1,0.1-0.3,0.1-0.4c0-0.1-0.1-0.3-0.2-0.4l-0.4-0.3c0.3-0.1,0.7-0.3,1-0.5c1.2-0.6,2.4-1.2,3.7-1.8c-0.1,1.2-0.2,2.4-0.3,4
				c0,0.4-0.1,0.8-0.1,1.2v0.3l-0.6-0.4c-0.1-0.1-0.2-0.1-0.3-0.1c-0.1,0-0.3,0-0.4,0.1l-3.4,3.5l-0.1,0.1l-1.9,1.8
				c-0.4,0.4-0.8,0.8-1.1,1.2c-0.6,0.8-0.7,1.6-0.4,2.4c0.4,0.9,1.2,1.3,2.1,1.3c3,0,5.7-1,8.1-2.8c4.3-3.4,6-7.9,4.9-13
				c-1.1-5.4-4.4-8.9-10.1-10.4c-0.9-0.3-1.8-0.3-2.7-0.3c-0.2,0-0.4,0-0.6,0c-1.7,0-3.4,0-5,0h-1.5c-1,0-2.1,0-3.1,0h-0.1
				c-0.2,0-0.6,0-0.9,0.3c-0.2,0.2-0.3,0.4-0.3,0.9c0,1.5,0,3.1,0,4.6v0.2c0,0.7,0,1.5,0,2.3l0,0c0,0.5,0.1,0.7,0.5,0.9
				c0.1,0,0.1,0,0.2,0c0.3,0,0.6-0.2,0.7-0.3l0.2-0.2c0.9-0.9,1.8-1.8,2.7-2.7l1.2-1.2l0.8-0.8c0.6-0.5,1.2-1.2,1.8-1.8
				c0.2-0.2,0.3-0.2,0.3-0.2s0.1,0,0.3,0.2l0,0c1,0.8,1.6,1.3,1.6,1.7s-0.6,0.9-1.5,1.8c-0.6,0.6-1.2,1.1-1.7,1.7l-0.6,0.6
				c-1.5,1.5-3.2,3.2-4.9,4.7c-2.1,1.9-3.3,4-3.7,6.5l0,0l0,0c-1-1-1.2-2.3-1.3-3.5c-0.1-1.2-0.1-2.4,0-3.5v-0.2c0-0.5,0-0.9,0-1.4
				c0-4.3,0-8.6,0-13c0-0.3,0-0.4,0.1-0.5c0,0,0.1-0.1,0.4-0.1c0.9,0,1.8,0,2.7,0c0.7,0,2.2,0,2.2,0h0.9c1,0,2,0,3,0
				c2.1,0,3.6,0,5,0c4.1,0.1,8,1.6,11,4.2s4.9,6.2,5.4,10.1c0.1,0.7,0.1,1.4,0.1,2.1c0,6.9-4.4,12.9-11.1,15.4
				C112.6,43.3,110.9,43.9,109.1,43.9z"/>
		</g>
	</g>
</g>
</svg>
