<?xml version="1.0" encoding="utf-8"?>
<!-- Generator: Adobe Illustrator 24.2.1, SVG Export Plug-In . SVG Version: 6.00 Build 0)  -->
<svg version="1.1" id="Layer_1" xmlns="http://www.w3.org/2000/svg" xmlns:xlink="http://www.w3.org/1999/xlink" x="0px" y="0px"
	 viewBox="0 0 254 45.9" style="enable-background:new 0 0 254 45.9;" xml:space="preserve">
<style type="text/css">
	.st0{fill:#0E0A31;}
	.st1{fill:#FAAE42;}
	.st2{fill:#EA1D25;}
	.st3{fill:#3BB44A;}
	.st4{fill:#0E75BB;}
	.st5{fill:#59585A;}
</style>
<g>
	<path class="st0" d="M240.8,2c3.7,0,7.5,0,11.2,0c0,0.7,0,2,0.1,2.7c-2.7-0.1-5.3-0.1-8,0c0,1.8,0,3.6,0,5.4c2.7,0.1,5.3,0.1,8,0
		c0,0.9,0,1.9,0,2.9c-2.7,0-5.3,0-7.9,0c-0.1,2.2-0.1,4.3,0,6.5c2.7,0.1,5.3,0.3,7.9,0.2c0,0.6,0,2,0,2.6c-3.7,0-7.5,0-11.2,0
		C240.8,15.5,240.8,8.8,240.8,2z"/>
	<g>
		<g>
			<path class="st1" d="M9.5,1.7c5.8-1.8,12.3,2.2,13.8,8c2.3,6.8-3.8,14.7-11,14.3c-6.5,0.3-12-6.2-11.2-12.6
				C1.6,6.9,5.2,3,9.5,1.7z"/>
		</g>
		<g>
			<g>
				<path class="st2" d="M25.4,1.2c7,0.2,14.1-0.4,21.1,0.4c4.8,0.5,9,4.1,10.4,8.7c2,6.2,1,14.3-4.7,18.2
					c-4.7,2.9-10.4,2.1-15.6,2.2c-0.1,4.7,0,9.3,0,14c-3.7,0-7.4,0-11,0c0-7,0-14,0-21c-0.4-3.8,2.5-7,2.2-10.9
					C28,8.8,25,5.4,25.4,1.2z M36.5,10.6c0,3.7,0,7.3,0,10.9c3-0.1,6.6,0.4,8.8-2c1.2-2.1,1.2-4.9,0-7
					C43.1,10.1,39.5,10.7,36.5,10.6z"/>
			</g>
		</g>
		<g>
			<g>
				<path class="st3" d="M62.8,1.2c8.3,0.4,16.9-1,25,1.3c6,1.7,8.6,9.4,5.7,14.7c-1.2,2.2-3.6,3.3-5.8,4.1c2.3,0.9,4.9,1.7,6.5,3.7
					c3,3.8,3.1,9.6,0.8,13.7c-1.8,3.2-5.4,4.8-8.9,5.3c-7.7,1.2-15.5,0.5-23.3,0.7C62.7,30.3,62.8,15.8,62.8,1.2z M73.7,9.8
					c0,3.1,0,6.2,0,9.3c2.3,0,4.8,0.2,7-0.5c3.3-0.6,3.7-5.3,1.7-7.5C79.9,9.4,76.6,9.9,73.7,9.8z M73.7,26.1
					c-0.1,3.4-0.1,6.7,0,10.1c2.9-0.1,6,0.3,8.8-0.5c4.1-1,4-8,0-9C79.6,25.8,76.6,26.2,73.7,26.1z"/>
			</g>
		</g>
		<g>
			<path class="st4" d="M97.7,1.2c4.6,0,9.3,0,13.9,0c2.3,4.5,4.4,9,6.8,13.5c1.9-4.6,4.5-9,6.6-13.5c4.6,0,9.2,0,13.8,0
				c-4.8,7-9.6,14-14.4,20.9c5.3,7.5,10.6,15,15.8,22.6c-4.4,0-8.7,0-13,0c-3-5.4-6.6-10.5-8.8-16.3c-2.4,5.7-6.1,10.8-8.9,16.2
				c-4.4,0-8.9,0-13.3,0c5.4-7.6,10.9-15.2,16-23C107.2,15,102.6,8,97.7,1.2z"/>
		</g>
		<g>
			<path class="st0" d="M146.8,2c2.9,0,5.9-0.2,8.8,0.5c3.7,1.5,4,7,1.2,9.5c-2,1.5-4.6,1.1-6.9,1.1c-0.1,3,0,6,0,9
				c-1,0-2.1,0-3.1,0C146.8,15.5,146.8,8.8,146.8,2z M150.1,4.6c0,2,0,4,0,6.1c1.4-0.1,2.8-0.2,4.2-0.3c0.3-0.3,0.9-1,1.1-1.3
				c-0.1-1.1,0.1-2.3-0.6-3.3C153.5,4.5,151.7,4.8,150.1,4.6z"/>
		</g>
		<path class="st0" d="M164.7,2c1.1,0,2.2,0,3.3,0c0,2.6,0,5.2,0,7.8c3.3,0,6.6,0,9.9,0c0-2.6,0-5.2,0-7.8c1.1,0,2.2,0,3.3,0
			c0,6.7,0,13.5,0,20.2c-1.1,0-2.2,0-3.3,0c0-3.2,0-6.4,0-9.6c-3.3,0-6.6,0-9.9,0c0,3.2,0,6.4,0,9.6c-1.1,0-2.2,0-3.3,0
			C164.7,15.5,164.7,8.8,164.7,2z"/>
		<g>
			<path class="st0" d="M195.3,2.6c6-2.2,13.3,2.4,13.9,8.7c0.6,6.6-6.6,12.3-12.9,10.6c-4.2-0.9-8-4.5-8.4-8.9
				C187.5,8.3,191.1,4,195.3,2.6z M196,5.5c-4.5,1.6-6.3,8.1-2.7,11.4c3.6,4.5,12.1,2,12.5-3.8C206.8,7.7,200.8,3.5,196,5.5z"/>
		</g>
		<path class="st0" d="M216,1.2c4.9,5,10.1,9.7,14.8,14.8c0-4.7,0-9.3,0-14c1,0,2.1,0,3.1,0c0,6.9,0.1,13.9-0.1,20.8
			c-5-4.8-10-9.5-14.7-14.6c0,4.7,0,9.3,0,14c-1,0-2.1,0-3.1,0C216,15.2,216,8.2,216,1.2z"/>
		<g>
			<path class="st5" d="M8,27.4c3.4,0.6,7,0.7,10.4-0.5c0,5.9,0.1,11.8,0,17.7c-3.4,0.1-6.9,0.1-10.3,0C8,38.9,7.8,33.2,8,27.4z"/>
		</g>
		<path class="st0" d="M202.8,32.5c-0.5-0.7-1.2-1-2.1-1s-1.6,0.3-2,1c-0.5,0.7-0.8,1.7-0.8,3.1c0,1.2,0.2,2.2,0.7,2.8
			c0.5,0.7,1.2,1,2.1,1c0.9,0,1.6-0.4,2.1-1c0.5-0.7,0.7-1.7,0.7-3C203.6,34.1,203.3,33.2,202.8,32.5z M202.8,32.5
			c-0.5-0.7-1.2-1-2.1-1s-1.6,0.3-2,1c-0.5,0.7-0.8,1.7-0.8,3.1c0,1.2,0.2,2.2,0.7,2.8c0.5,0.7,1.2,1,2.1,1c0.9,0,1.6-0.4,2.1-1
			c0.5-0.7,0.7-1.7,0.7-3C203.6,34.1,203.3,33.2,202.8,32.5z M147.3,26v18.8H253V26H147.3L147.3,26z M179.9,37.3
			c-0.5,0.5-1.1,0.7-2,0.7c-0.8,0-1.5-0.2-2-0.7s-0.7-1.1-0.7-1.8s0.2-1.4,0.7-1.9s1.1-0.7,2-0.7s1.5,0.2,2,0.7s0.7,1.1,0.7,1.9
			C180.6,36.2,180.4,36.8,179.9,37.3z M186.9,38.5c0.5,0.6,1.1,0.9,2,0.9c0.7,0,1.2-0.2,1.6-0.6c0.4-0.4,0.7-0.9,0.7-1.4h2.5
			c0,0.7-0.2,1.4-0.7,2c-0.4,0.6-1,1.1-1.7,1.5s-1.5,0.5-2.4,0.5c-1.6,0-3-0.5-3.9-1.6c-1-1.1-1.5-2.5-1.5-4.4v-0.3
			c0-1.8,0.5-3.2,1.4-4.3s2.3-1.6,3.9-1.6c1.4,0,2.5,0.4,3.4,1.2s1.3,1.9,1.4,3.2h-2.5c0-0.7-0.3-1.2-0.7-1.7
			c-0.4-0.4-1-0.6-1.6-0.6c-0.9,0-1.5,0.3-2,0.9c-0.5,0.6-0.7,1.6-0.7,2.8v0.4C186.2,36.9,186.5,37.9,186.9,38.5z M205.5,38.7
			c-0.4,0.9-1.1,1.6-1.9,2.1c-0.8,0.5-1.8,0.7-2.9,0.7c-1.7,0-3-0.5-4-1.6s-1.5-2.6-1.5-4.4v-0.1c0-1.2,0.2-2.2,0.7-3.1
			c0.5-0.9,1.1-1.6,1.9-2.1c0.8-0.5,1.8-0.7,2.8-0.7c1.6,0,2.9,0.5,3.9,1.5s1.5,2.4,1.6,4.1v0.6C206.2,36.7,206,37.7,205.5,38.7z
			 M225.1,41.4h-2.7v-7.6c0-0.8-0.2-1.3-0.5-1.6c-0.3-0.4-0.9-0.5-1.6-0.5c-0.6,0-1.1,0.2-1.5,0.5c-0.4,0.3-0.6,0.7-0.8,1.3v8.1
			h-2.7v-7.7c0-1.4-0.7-2.1-2.1-2.1c-1.1,0-1.8,0.4-2.3,1.3v8.5h-2.7v-12h2.5l0.1,1.2c0.8-1,2-1.5,3.4-1.5c1.6,0,2.7,0.6,3.2,1.8
			c0.9-1.2,2.1-1.8,3.6-1.8c1.3,0,2.3,0.4,2.9,1.1c0.6,0.7,1,1.8,1,3.2L225.1,41.4L225.1,41.4z M200.7,31.4c-0.9,0-1.6,0.3-2,1
			c-0.5,0.7-0.8,1.7-0.8,3.1c0,1.2,0.2,2.2,0.7,2.8c0.5,0.7,1.2,1,2.1,1c0.9,0,1.6-0.4,2.1-1c0.5-0.7,0.7-1.7,0.7-3
			c0-1.2-0.2-2.1-0.8-2.8C202.3,31.8,201.6,31.4,200.7,31.4z"/>
	</g>
</g>
</svg>
