<?xml version="1.0" encoding="utf-8"?>
<!-- Generator: Adobe Illustrator 24.2.1, SVG Export Plug-In . SVG Version: 6.00 Build 0)  -->
<svg version="1.1" id="Layer_1" xmlns="http://www.w3.org/2000/svg" xmlns:xlink="http://www.w3.org/1999/xlink" x="0px" y="0px"
	 viewBox="0 0 254 72.4" style="enable-background:new 0 0 254 72.4;" xml:space="preserve">
<style type="text/css">
	.st0{fill:#D7282A;}
	.st1{fill:#FFFFFF;}
</style>
<g>
	<rect class="st0" width="254" height="72.4"/>
	<g>
		<g>
			<g>
				<g>
					<path class="st1" d="M15.1,35c0,0.2,0,0.5,0,1.4c0,2,0.1,2.6,0.3,4.2H9.7c0.1-1.1,0.2-1.8,0.3-2.8c0-0.3,0-0.5,0-1.4
						s0-1.3,0-1.4V18c0-0.2,0-0.5,0-1.5c0-1.9-0.1-2.6-0.3-4.2h8.4c2.6,0,4.4,0.4,5.6,1.1c2,1.2,3.1,3.3,3.1,6.1
						c0,5-3.2,8.8-9.5,11.5l-2.2-3.4L15.1,35L15.1,35z M15.1,26.8c4.2-1.5,6.6-4.1,6.6-6.9c0-2.2-1.2-3-4.1-3h-2.5V26.8z"/>
					<path class="st1" d="M31.9,12.2c1.7,0,3.1,1.4,3.1,3.1s-1.4,3.1-3.1,3.1c-1.7,0-3.1-1.4-3.1-3.1S30.2,12.2,31.9,12.2z
						 M29.3,40.6c0.1-1,0.2-1.6,0.2-2.4c0-0.3,0-1,0-1.9c0-0.2,0-0.4,0-0.5v-9.1c0-0.2,0-0.5,0-1.2c0-1.6-0.1-2.1-0.3-3.6h5.4
						c-0.1,1-0.2,1.6-0.2,2.4c0,0.3,0,1-0.1,1.9c0,0.2,0,0.4,0,0.5v9.1c0,0.2,0,0.5,0,1.2c0,1.5,0.1,2.2,0.3,3.6
						C34.6,40.6,29.3,40.6,29.3,40.6z"/>
					<path class="st1" d="M37,40.6v-4c0.7-0.8,1.5-1.9,2-2.7l5.3-7.8h-2.5c-0.1,0-0.3,0-1,0c-1.6,0-2,0-3.2,0.2v-4.4h12.7v3.8
						c-0.6,0.7-1,1.3-1.7,2.4c-0.1,0.2-0.2,0.3-0.3,0.4l-5.5,7.9h3.5c0.1,0,0.4,0,1.1,0c1.5,0,1.9-0.1,3.1-0.3v4.5L37,40.6L37,40.6z
						"/>
					<path class="st1" d="M52.1,40.6v-4c0.7-0.8,1.5-1.9,2-2.7l5.3-7.8h-2.5c-0.1,0-0.3,0-1,0c-1.6,0-2,0-3.2,0.2v-4.4h12.7v3.8
						c-0.6,0.7-1,1.3-1.7,2.4c-0.1,0.2-0.2,0.3-0.3,0.4L58,36.4h3.5c0.1,0,0.4,0,1.1,0c1.5,0,1.9-0.1,3.1-0.3v4.5H52.1L52.1,40.6z"
						/>
					<path class="st1" d="M77.5,39c-1.5,1.4-2.8,2-4.6,2c-3.3,0-5.6-2.4-5.6-5.8c0-3.8,3-6.5,7.2-6.5c1,0,1.9,0.1,2.8,0.4
						c0-0.2,0-0.4,0-0.5c0-1.9-1-2.8-3.1-2.8c-1.3,0-3,0.4-5.2,1.2v-4.4c2.5-0.6,3.9-0.8,5.8-0.8c3,0,5,0.7,6.1,2.2
						c0.9,1.2,1.1,2.4,1.1,5.3V36c0,0.2,0,0.5,0,1.2c0,1.5,0.1,2.2,0.3,3.6h-4.7L77.5,39L77.5,39z M76.9,32.6
						c-0.8-0.2-1.2-0.3-1.8-0.3c-1.8,0-3,1-3,2.3c0,1.1,0.8,1.9,2.1,1.9c1,0,2-0.4,3.1-1.4v-2.5H76.9z"/>
					<path class="st1" d="M98.6,18.4c-2.2-1.2-4.6-1.9-6.2-1.9c-1.4,0-2.4,0.7-2.4,1.8c0,1,0.8,1.9,3.3,3.9l1.9,1.4
						c4.2,3.3,5.6,5.3,5.6,8.3c0,5.3-4.3,9-10.6,9c-1.9,0-3.7-0.3-6.1-1v-5.4c2,1.1,4.1,1.7,6.1,1.7c3.2,0,5.3-1.5,5.3-3.7
						c0-1.4-0.8-2.5-3.7-4.7l-2-1.6c-3.8-3-5-4.7-5-7.2c0-4.1,3.1-6.9,7.6-6.9c1.9,0,3.7,0.4,6.2,1.3C98.6,13.4,98.6,18.4,98.6,18.4
						z"/>
					<path class="st1" d="M108.5,14.8c0,0.4,0,1-0.1,1.9c0,0.2,0,0.4,0,0.5v6c1.6-1.1,2.9-1.5,4.5-1.5c4.4,0,7.5,3.7,7.5,9.1
						c0,5.5-2.5,11-7.1,15.7l-3.8-3.3c3.5-2.6,5.8-7.6,5.8-12.2c0-3-1.4-4.9-3.6-4.9c-1,0-2,0.4-3.3,1.3v8.4c0,0.2,0,0.5,0.1,1.2
						c0,1.5,0.1,2.2,0.3,3.6h-5.4c0.1-1,0.2-1.6,0.2-2.4c0-0.3,0-1,0-1.9c0-0.2,0-0.4,0-0.5V17.2c0-0.2,0-0.6,0-1.3
						c0-1.5-0.1-2.2-0.3-3.6h5.4C108.6,13.3,108.5,14,108.5,14.8z"/>
					<path class="st1" d="M130.9,40.9c-5.1,0-8.6-3.9-8.6-9.6s3.6-9.6,8.6-9.6c5.1,0,8.6,3.9,8.6,9.6S136,40.9,130.9,40.9z
						 M130.9,25.8c-2.2,0-3.6,2.1-3.6,5.5s1.4,5.5,3.6,5.5c2.3,0,3.6-2.1,3.6-5.5S133.2,25.8,130.9,25.8z"/>
					<path class="st1" d="M146.8,23.7c1.7-1.3,3-1.8,4.7-1.8c4.1,0,7,3.6,7,9c0,5.7-3.3,10-7.7,10c-1.2,0-2.4-0.3-3.6-1.1v5.8
						c0,0.2,0,0.6,0,1.3c0,1.5,0.1,2.2,0.3,3.6h-5.4c0.1-1,0.2-1.6,0.2-2.4c0-0.4,0-1,0-1.9c0-0.2,0-0.4,0-0.5v-5V26.8
						c0-0.2,0-0.5,0-1.2c0-1.5-0.1-2.2-0.3-3.6h4.7L146.8,23.7L146.8,23.7z M149.9,36.6c2.2,0,3.6-2.2,3.6-5.7c0-3-1.2-4.9-3.2-4.9
						c-1,0-2,0.5-3.1,1.8v7.5C148.1,36.2,148.9,36.6,149.9,36.6z"/>
					<path class="st1" d="M172.1,26.8l-0.5-0.2c-2-0.8-3.3-1.1-4.5-1.1c-1.3,0-1.8,0.3-1.8,0.9c0,0.5,0.3,0.9,1.5,1.5l1.1,0.6
						c4.3,2.2,5.5,3.6,5.5,6.3c0,3.8-2.9,6.1-7.6,6.1c-1.8,0-3.8-0.4-5.7-1.2V35c1.9,1,4,1.7,5.7,1.7s2.7-0.6,2.7-1.6
						c0-0.7-0.3-0.9-2.1-2l-1.2-0.7c-3.5-1.9-4.5-3.2-4.5-5.6c0-3.2,2.4-5.2,6.2-5.2c1.3,0,2.8,0.2,4.8,0.8l0.4,0.1L172.1,26.8
						L172.1,26.8z"/>
					<path class="st1" d="M179.5,34.4c1.8,0,3.2,1.4,3.2,3.2s-1.4,3.3-3.2,3.3s-3.3-1.5-3.3-3.3C176.2,35.9,177.7,34.4,179.5,34.4z"
						/>
					<path class="st1" d="M188.7,12.2c1.7,0,3.1,1.4,3.1,3.1s-1.4,3.1-3.1,3.1c-1.7,0-3.1-1.4-3.1-3.1
						C185.6,13.6,187,12.2,188.7,12.2z M186,40.6c0.1-1,0.2-1.6,0.2-2.4c0-0.3,0-1,0-1.9c0-0.2,0-0.4,0-0.5v-9.1c0-0.2,0-0.5,0-1.2
						c0-1.6-0.1-2.1-0.3-3.6h5.4c-0.1,1-0.2,1.6-0.2,2.4c0,0.3,0,1-0.1,1.9c0,0.2,0,0.4,0,0.5v9.1c0,0.2,0,0.5,0,1.2
						c0,1.5,0.1,2.2,0.3,3.6C191.3,40.6,186,40.6,186,40.6z"/>
					<path class="st1" d="M199.3,23.5c1.6-1.3,3-1.8,4.7-1.8c4.4,0,7.4,3.7,7.4,9.1c0,5.3-2.5,10.9-7,15.6l-3.7-3.2
						c3.5-2.8,5.8-7.6,5.8-12.2c0-3.1-1.4-5-3.6-5c-1.1,0-2,0.4-3.3,1.4v8.3c0,0.2,0,0.5,0,1.2c0,1.5,0.1,2.2,0.3,3.6h-5.4
						c0.1-1,0.2-1.6,0.2-2.4c0-0.3,0-1,0-1.9c0-0.2,0-0.4,0-0.5v-9.1c0-0.2,0-0.5,0-1.2c0-1.5-0.1-2.2-0.3-3.6h4.9L199.3,23.5
						L199.3,23.5z"/>
					<path class="st1" d="M219.3,35.8c0,0.2,0,0.5,0,1.2c0.1,1.5,0.1,2.2,0.3,3.6h-5.4c0.1-1,0.2-1.6,0.2-2.4c0-0.3,0-1,0-1.9
						c0-0.2,0-0.4,0-0.5v-9.5h-0.1c-0.6,0-1.1,0.1-2,0.2V22h2.1v-1.4c0-5.4,2.4-8.4,6.9-8.4c1.1,0,2.1,0.2,3.2,0.5v4.4
						c-0.9-0.5-1.8-0.8-2.6-0.8c-1.1,0-2.1,0.6-2.4,1.6c-0.2,0.7-0.3,1.5-0.3,2.8V22h4.4v4.5c-0.8-0.1-1.4-0.2-2.1-0.2
						c-0.2,0-0.8,0-1.7-0.1c-0.2,0-0.3,0-0.4,0h-0.2L219.3,35.8L219.3,35.8z"/>
					<path class="st1" d="M232.9,40.9c-5.1,0-8.6-3.9-8.6-9.6s3.6-9.6,8.6-9.6c5.1,0,8.6,3.9,8.6,9.6S238.1,40.9,232.9,40.9z
						 M232.9,25.8c-2.2,0-3.6,2.1-3.6,5.5s1.4,5.5,3.6,5.5c2.3,0,3.6-2.1,3.6-5.5S235.2,25.8,232.9,25.8z"/>
				</g>
			</g>
		</g>
		<g>
			<path class="st1" d="M10.9,56.9v2.8H9.7v-6.8H12c0.8,0,1.3,0.2,1.8,0.5c0.4,0.3,0.6,0.8,0.6,1.5c0,0.4-0.1,0.7-0.3,0.9
				c-0.2,0.3-0.4,0.5-0.8,0.6c0.4,0.1,0.7,0.3,0.8,0.6s0.3,0.6,0.3,1v0.6c0,0.2,0,0.4,0.1,0.6c0,0.2,0.1,0.3,0.2,0.4v0.1h-1.2
				c-0.1-0.1-0.2-0.3-0.2-0.5s-0.1-0.4-0.1-0.7V58c0-0.3-0.1-0.6-0.3-0.8s-0.5-0.3-0.8-0.3L10.9,56.9L10.9,56.9z M10.9,56H12
				c0.5,0,0.8-0.1,1-0.3s0.3-0.4,0.3-0.8c0-0.3-0.1-0.6-0.3-0.8s-0.5-0.3-0.9-0.3h-1.2C10.9,53.8,10.9,56,10.9,56z"/>
			<path class="st1" d="M19.6,56.7h-2.7v2.2H20v0.9h-4.3V53H20v0.9h-3.1v1.9h2.7V56.7z"/>
			<path class="st1" d="M24.7,58c0-0.3-0.1-0.5-0.3-0.7c-0.2-0.2-0.6-0.3-1.1-0.5c-0.7-0.2-1.3-0.5-1.7-0.8
				c-0.4-0.3-0.6-0.8-0.6-1.3s0.2-1,0.7-1.4c0.4-0.4,1-0.5,1.7-0.5s1.3,0.2,1.8,0.6s0.7,0.9,0.6,1.5l0,0h-1.1c0-0.4-0.1-0.6-0.4-0.9
				c-0.2-0.2-0.6-0.3-0.9-0.3c-0.4,0-0.7,0.1-0.9,0.3c-0.2,0.2-0.3,0.4-0.3,0.7s0.1,0.5,0.3,0.6c0.2,0.2,0.6,0.3,1.1,0.5
				c0.7,0.2,1.3,0.5,1.6,0.8c0.4,0.3,0.6,0.8,0.6,1.3c0,0.6-0.2,1-0.7,1.3c-0.4,0.3-1,0.5-1.7,0.5s-1.3-0.2-1.8-0.5
				s-0.8-0.9-0.7-1.6l0,0H22c0,0.4,0.1,0.7,0.4,0.9s0.6,0.3,1,0.3s0.7-0.1,0.9-0.3C24.6,58.5,24.7,58.3,24.7,58z"/>
			<path class="st1" d="M30.8,56.7h-2.7v2.2h3.1v0.9H27V53h4.2v0.9h-3.1v1.9h2.7C30.8,55.8,30.8,56.7,30.8,56.7z"/>
			<path class="st1" d="M35.8,58.1h-2.4l-0.5,1.6h-1.2l2.4-6.8h1.1l2.3,6.8h-1.2L35.8,58.1z M33.7,57.2h1.8l-0.9-2.7l0,0L33.7,57.2z
				"/>
			<path class="st1" d="M39.4,56.9v2.8h-1.1v-6.8h2.3c0.8,0,1.3,0.2,1.8,0.5s0.6,0.8,0.6,1.5c0,0.4-0.1,0.7-0.3,0.9
				c-0.2,0.3-0.4,0.5-0.8,0.6c0.4,0.1,0.7,0.3,0.8,0.6s0.3,0.6,0.3,1v0.6c0,0.2,0,0.4,0.1,0.6c0,0.2,0.1,0.3,0.2,0.4v0.1h-1.2
				c0-0.1-0.1-0.3-0.1-0.5s-0.1-0.4-0.1-0.7V58c0-0.3-0.1-0.6-0.3-0.8s-0.5-0.3-0.8-0.3H39.4L39.4,56.9z M39.4,56h1.1
				c0.5,0,0.8-0.1,1-0.3s0.3-0.4,0.3-0.8c0-0.3-0.1-0.6-0.3-0.8s-0.5-0.3-0.9-0.3h-1.2L39.4,56L39.4,56z"/>
			<path class="st1" d="M49.4,57.5L49.4,57.5c0,0.7-0.2,1.3-0.7,1.7s-1.1,0.6-1.9,0.6c-0.8,0-1.4-0.3-1.9-0.8s-0.7-1.2-0.7-2v-1.3
				c0-0.8,0.2-1.5,0.7-2s1.1-0.8,1.9-0.8c0.8,0,1.4,0.2,1.9,0.6c0.5,0.4,0.7,1,0.7,1.7l0,0h-1.1c0-0.5-0.1-0.8-0.4-1
				c-0.2-0.2-0.6-0.4-1.1-0.4S46,54,45.7,54.3c-0.3,0.4-0.4,0.8-0.4,1.4V57c0,0.6,0.1,1,0.4,1.4c0.3,0.4,0.6,0.5,1.1,0.5
				s0.8-0.1,1.1-0.4c0.2-0.2,0.4-0.6,0.4-1H49.4L49.4,57.5z"/>
			<path class="st1" d="M55.8,59.7h-1.1v-2.9h-3v2.9h-1.1v-6.8h1.1v3h3v-3h1.1V59.7z"/>
		</g>
		<g>
			<path class="st1" d="M71.9,56.9v2.8h-1.1v-6.8h2.3c0.8,0,1.3,0.2,1.8,0.5c0.4,0.3,0.6,0.8,0.6,1.5c0,0.4-0.1,0.7-0.3,0.9
				c-0.2,0.3-0.4,0.5-0.8,0.6c0.4,0.1,0.7,0.3,0.8,0.6c0.2,0.3,0.3,0.6,0.3,1v0.6c0,0.2,0,0.4,0.1,0.6c0,0.2,0.1,0.3,0.2,0.4v0.1
				h-1.2c-0.1-0.1-0.2-0.3-0.2-0.5s-0.1-0.4-0.1-0.7V58c0-0.3-0.1-0.6-0.3-0.8c-0.2-0.2-0.5-0.3-0.8-0.3L71.9,56.9L71.9,56.9z
				 M71.9,56H73c0.5,0,0.8-0.1,1-0.3s0.3-0.4,0.3-0.8c0-0.3-0.1-0.6-0.3-0.8s-0.5-0.3-0.9-0.3h-1.2V56z"/>
			<path class="st1" d="M80.4,58.1H78l-0.5,1.6h-1.2l2.4-6.8h1.1l2.3,6.8h-1.2L80.4,58.1z M78.3,57.2H80l-0.9-2.7l0,0L78.3,57.2z"/>
			<path class="st1" d="M87.2,53.8h-2.1v5.9H84v-5.9h-2.1v-0.9h5.3L87.2,53.8L87.2,53.8z"/>
			<path class="st1" d="M91.9,56.7h-2.7v2.2h3.1v0.9H88V53h4.2v0.9h-3.1v1.9h2.7v0.9H91.9z"/>
		</g>
		<g>
			<path class="st1" d="M119.1,58c0-0.3-0.1-0.5-0.3-0.7c-0.2-0.2-0.6-0.3-1.1-0.5c-0.7-0.2-1.3-0.5-1.7-0.8
				c-0.4-0.3-0.6-0.8-0.6-1.3s0.2-1,0.7-1.4c0.4-0.4,1-0.5,1.7-0.5s1.3,0.2,1.8,0.6s0.7,0.9,0.6,1.5l0,0h-1.1c0-0.4-0.1-0.6-0.4-0.9
				c-0.2-0.2-0.6-0.3-0.9-0.3c-0.4,0-0.7,0.1-0.9,0.3s-0.3,0.4-0.3,0.7s0.1,0.5,0.3,0.6c0.2,0.2,0.6,0.3,1.1,0.5
				c0.7,0.2,1.3,0.5,1.6,0.8c0.4,0.3,0.6,0.8,0.6,1.3c0,0.6-0.2,1-0.7,1.3c-0.4,0.3-1,0.5-1.7,0.5s-1.3-0.2-1.8-0.5
				c-0.5-0.4-0.8-0.9-0.7-1.6l0,0h1.1c0,0.4,0.1,0.7,0.4,0.9s0.6,0.3,1,0.3s0.7-0.1,0.9-0.3C119,58.5,119.1,58.3,119.1,58z"/>
			<path class="st1" d="M126.7,59.7h-1.1v-2.9h-3v2.9h-1.1v-6.8h1.1v3h3v-3h1.1V59.7z"/>
			<path class="st1" d="M131.8,58.1h-2.4l-0.5,1.6h-1.2l2.4-6.8h1.1l2.3,6.8h-1.2L131.8,58.1z M129.7,57.2h1.8l-0.9-2.7l0,0
				L129.7,57.2z"/>
			<path class="st1" d="M135.4,56.9v2.8h-1.1v-6.8h2.3c0.8,0,1.3,0.2,1.8,0.5c0.4,0.3,0.6,0.8,0.6,1.5c0,0.4-0.1,0.7-0.3,0.9
				s-0.4,0.5-0.8,0.6c0.4,0.1,0.7,0.3,0.8,0.6c0.2,0.3,0.3,0.6,0.3,1v0.6c0,0.2,0,0.4,0.1,0.6c0,0.2,0.1,0.3,0.2,0.4v0.1h-1.2
				c-0.1-0.1-0.2-0.3-0.2-0.5s-0.1-0.4-0.1-0.7V58c0-0.3-0.1-0.6-0.3-0.8s-0.5-0.3-0.8-0.3L135.4,56.9L135.4,56.9z M135.4,56h1.1
				c0.5,0,0.8-0.1,1-0.3s0.3-0.4,0.3-0.8c0-0.3-0.1-0.6-0.3-0.8s-0.5-0.3-0.9-0.3h-1.2L135.4,56L135.4,56z"/>
			<path class="st1" d="M144.2,56.7h-2.7v2.2h3.1v0.9h-4.3V53h4.2v0.9h-3.1v1.9h2.7L144.2,56.7L144.2,56.7z"/>
		</g>
		<g>
			<path class="st1" d="M167.2,57.1v2.6H166v-6.8h2.6c0.7,0,1.3,0.2,1.8,0.6c0.4,0.4,0.6,0.9,0.6,1.5s-0.2,1.1-0.6,1.5
				c-0.4,0.4-1,0.6-1.8,0.6L167.2,57.1L167.2,57.1z M167.2,56.2h1.5c0.4,0,0.7-0.1,0.9-0.3s0.3-0.5,0.3-0.9c0-0.3-0.1-0.6-0.3-0.9
				c-0.2-0.2-0.5-0.3-0.9-0.3h-1.5V56.2z"/>
			<path class="st1" d="M173.3,59.7h-1.1v-6.8h1.1V59.7z"/>
			<path class="st1" d="M175.9,58.8h3.4v0.9h-4.8V59l3.3-5.2h-3.3v-0.9h4.6v0.7L175.9,58.8z"/>
			<path class="st1" d="M181.5,58.8h3.4v0.9h-4.8V59l3.3-5.2h-3.3v-0.9h4.6v0.7L181.5,58.8z"/>
			<path class="st1" d="M189.6,58.1h-2.4l-0.5,1.6h-1.2l2.4-6.8h1.1l2.3,6.8h-1.2L189.6,58.1z M187.5,57.2h1.8l-0.9-2.7l0,0
				L187.5,57.2z"/>
		</g>
		<g>
			<path class="st1" d="M215.8,58c0-0.3-0.1-0.5-0.3-0.7s-0.6-0.3-1.1-0.5c-0.7-0.2-1.3-0.5-1.7-0.8s-0.6-0.8-0.6-1.3s0.2-1,0.7-1.4
				c0.4-0.4,1-0.5,1.7-0.5s1.3,0.2,1.8,0.6c0.4,0.4,0.7,0.9,0.6,1.5l0,0h-1.1c0-0.4-0.1-0.6-0.4-0.9c-0.2-0.2-0.6-0.3-0.9-0.3
				c-0.4,0-0.7,0.1-0.9,0.3s-0.3,0.4-0.3,0.7s0.1,0.5,0.3,0.6c0.2,0.2,0.6,0.3,1.1,0.5c0.7,0.2,1.3,0.5,1.6,0.8
				c0.4,0.3,0.6,0.8,0.6,1.3c0,0.6-0.2,1-0.7,1.3c-0.4,0.3-1,0.5-1.7,0.5s-1.3-0.2-1.8-0.5s-0.8-0.9-0.7-1.6l0,0h1.1
				c0,0.4,0.1,0.7,0.4,0.9s0.6,0.3,1,0.3s0.7-0.1,0.9-0.3C215.7,58.5,215.8,58.3,215.8,58z"/>
			<path class="st1" d="M223.4,59.7h-1.1v-2.9h-3v2.9h-1.1v-6.8h1.1v3h3v-3h1.1V59.7z"/>
			<path class="st1" d="M230.2,56.9c0,0.8-0.3,1.5-0.8,2.1s-1.2,0.8-2,0.8s-1.5-0.3-2-0.8s-0.8-1.2-0.8-2.1v-1.2
				c0-0.8,0.3-1.5,0.8-2.1c0.5-0.5,1.2-0.8,2-0.8s1.5,0.3,2,0.8s0.8,1.2,0.8,2.1V56.9z M229.1,55.7c0-0.6-0.2-1-0.5-1.4
				s-0.7-0.5-1.2-0.5s-0.9,0.2-1.2,0.5c-0.3,0.4-0.4,0.8-0.4,1.4v1.2c0,0.6,0.1,1,0.4,1.4s0.7,0.5,1.2,0.5s0.9-0.2,1.2-0.5
				c0.3-0.4,0.4-0.8,0.4-1.4L229.1,55.7L229.1,55.7z"/>
			<path class="st1" d="M232.5,57.1v2.6h-1.1v-6.8h2.6c0.7,0,1.3,0.2,1.8,0.6c0.4,0.4,0.6,0.9,0.6,1.5s-0.2,1.1-0.6,1.5
				c-0.4,0.4-1,0.6-1.8,0.6L232.5,57.1L232.5,57.1z M232.5,56.2h1.5c0.4,0,0.7-0.1,0.9-0.3s0.3-0.5,0.3-0.9c0-0.3-0.1-0.6-0.3-0.9
				c-0.2-0.2-0.5-0.3-0.9-0.3h-1.5V56.2z"/>
			<path class="st1" d="M241.1,58c0-0.3-0.1-0.5-0.3-0.7s-0.6-0.3-1.1-0.5c-0.7-0.2-1.3-0.5-1.7-0.8s-0.6-0.8-0.6-1.3s0.2-1,0.7-1.4
				c0.4-0.4,1-0.5,1.7-0.5s1.3,0.2,1.8,0.6c0.4,0.4,0.7,0.9,0.6,1.5l0,0H241c0-0.4-0.1-0.6-0.4-0.9c-0.2-0.2-0.6-0.3-0.9-0.3
				c-0.4,0-0.7,0.1-0.9,0.3s-0.3,0.4-0.3,0.7s0.1,0.5,0.3,0.6c0.2,0.2,0.6,0.3,1.1,0.5c0.7,0.2,1.3,0.5,1.6,0.8
				c0.4,0.3,0.6,0.8,0.6,1.3c0,0.6-0.2,1-0.7,1.3c-0.4,0.3-1,0.5-1.7,0.5s-1.3-0.2-1.8-0.5s-0.8-0.9-0.7-1.6l0,0h1.1
				c0,0.4,0.1,0.7,0.4,0.9s0.6,0.3,1,0.3s0.7-0.1,0.9-0.3C241,58.5,241.1,58.3,241.1,58z"/>
		</g>
		<g>
			<path class="st1" d="M61.2,59.4l0.6-2.3L60,55.6l2.4-0.1l0.9-2.2l0.9,2.2l2.4,0.1l-1.9,1.5l0.6,2.3l-2-1.3L61.2,59.4z"/>
		</g>
		<g>
			<path class="st1" d="M101.5,59.4l0.6-2.3l-1.9-1.5l2.4-0.1l0.9-2.2l0.9,2.2l2.4,0.1l-1.9,1.5l0.6,2.3l-2-1.3L101.5,59.4z"/>
		</g>
		<g>
			<path class="st1" d="M152.4,59.4l0.6-2.3l-1.9-1.5l2.4-0.1l0.9-2.2l0.9,2.2l2.4,0.1l-1.9,1.5l0.6,2.3l-2-1.3L152.4,59.4z"/>
		</g>
		<g>
			<path class="st1" d="M200.2,59.4l0.6-2.3l-1.9-1.5l2.4-0.1l0.9-2.2l0.9,2.2l2.4,0.1l-1.9,1.5l0.6,2.3l-2-1.3L200.2,59.4z"/>
		</g>
	</g>
</g>
</svg>
