<svg id="Layer_1" data-name="Layer 1" xmlns="http://www.w3.org/2000/svg" viewBox="0 0 1923.03 344.8"><defs><style>.cls-1,.cls-6{fill:#010101;}.cls-2{fill:#45c8f5;}.cls-3{fill:#84d3ed;}.cls-4{fill:#3c3872;}.cls-5{fill:#ec7a25;}.cls-6{stroke:#000;stroke-miterlimit:10;stroke-width:2px;}.cls-7{fill:#fff;}</style></defs><path class="cls-1" d="M786.8,82.35c13.2-11.5,32.3,13.7,16.4,22.4C788.5,112.75,774.2,93.35,786.8,82.35Z" transform="translate(-0.97 -2.75)"/><path class="cls-1" d="M1316.4,79.15a14.52,14.52,0,0,1,7.9,1.9c14.6,8,2.9,33.9-12.6,20.5C1302.3,93.45,1306.7,80.05,1316.4,79.15Z" transform="translate(-0.97 -2.75)"/><path class="cls-1" d="M1485.9,77.05H1509c-.1,53,.1,106.1-.1,159.1-7.7-.1-15.4-.1-23-.1Z" transform="translate(-0.97 -2.75)"/><path class="cls-1" d="M913.7,77.05h23.1c-.2,53.3.4,106.6-.3,159.9-11.5.5-22.1-.9-22.5-14.7-14.8,19.2-45.4,22.7-63.3,6.1-16.1-15.8-17.3-40-15.5-61.2,1.4-20.8,14.4-43.5,36.8-46.2,16.3-3.9,31.6,4.4,42.7,15.6C913.1,116.85,913.8,97,913.7,77.05Zm-39.2,65c-18.3,12.7-16.9,39.1-12.8,58.4,3.4,21.6,36.2,26.6,47,8.6,7.9-14,5.1-31,4.3-46.3C911.8,144.55,890.2,133.65,874.5,142.05Z" transform="translate(-0.97 -2.75)"/><path class="cls-1" d="M428.6,86.65c29.2,2.1,64.1-7.4,88.4,13.4,21.4,22.2,9.9,60-17.8,70.9,14.4,21.4,27.9,43.3,41.5,65.1-9.3-.1-18.6-.1-27.8-.1-11.6-20.1-23.5-39.9-35.4-59.7-8.2-.1-16.3-.1-24.4-.1V236H428.6Zm24.5,20.1c0,16.4,0,32.9.1,49.4,14.4-.8,30.6,2.2,43-7.1,7.1-7.3,6.8-18.6,5.1-27.9C492.7,102.75,469.3,107.85,453.1,106.75Z" transform="translate(-0.97 -2.75)"/><path class="cls-1" d="M1207.2,138.35c12.7-11.6,26-21.8,29.4-39.8,3.5-.6,10.5-1.7,14.1-2.3.1,9,.1,18,.1,27h32.5c.1,5.8.2,11.7.3,17.6-10.9.1-21.9.1-32.8.2.9,23.2-1.8,46.6,1.5,69.6,5,14,22.2,7.8,33,7.4-.3,6-.7,12-.9,17.9-18.9,4.4-46.7,6.5-55-15.9-6-25.6-2-52.3-3.1-78.3C1221.5,140.85,1212,139.15,1207.2,138.35Z" transform="translate(-0.97 -2.75)"/><path class="cls-1" d="M584.9,124c18.5-6.8,41.9-4.6,55.7,10.5,13.6,13.2,12.7,33.7,14.1,51.2-26,.3-52.1-.3-78.1.4,2.9,10.6,4.8,23.2,15.4,29.1,17.6,9.8,38.1,2,56-2.5-.3,5-1,15.1-1.3,20.1-27.8,8.8-65,11.4-83.6-15.6C545.1,188.05,549.8,138.25,584.9,124Zm-8,43.9c18,.4,36.1.4,54.1-.1-.9-15.5-11.4-33.5-29.5-29.5C585.7,138.85,581,155.65,576.9,167.85Z" transform="translate(-0.97 -2.75)"/><path class="cls-1" d="M686.2,128.05c20.9-12.5,47.2-7.9,69,.2l-7.8,18.3c-15.4-4.1-44.5-16.5-50.4,4.8,7.3,15.9,28.9,16.5,42.5,25.5,22.6,8.8,23,45.1,1.7,55.4-20.4,10.6-44.8,6.9-66.2,1.4-.2-5.4-.7-16.3-.9-21.7,17.9,5.2,38.1,13.1,56.1,3.6q7.2-9.75-1.5-18.3c-14.4-9.7-32.6-12.7-46-24.2S670.7,137.05,686.2,128.05Z" transform="translate(-0.97 -2.75)"/><path class="cls-1" d="M970.1,150.75c11.7-34.1,64.1-41.4,85.3-12.7,10.6,13.4,9.6,31.5,11.1,47.7-26.1.3-52.2-.4-78.2.5,2.9,10.8,5.3,23.5,16.1,29.4,17.5,9.2,37.5,1.7,55.1-2.9-.2,4.9-.5,14.9-.7,19.9-23.4,6.8-51.4,11.3-72.5-3.9C962.3,211.35,961,176.45,970.1,150.75Zm18.5,16.9c18,.7,36.1.5,54.1.3-.9-15.2-10.7-33.2-28.6-29.8C997.9,138.35,992.8,155.25,988.6,167.65Z" transform="translate(-0.97 -2.75)"/><path class="cls-1" d="M1091.8,123.25c6.3,0,12.5-.1,18.8-.1.5,3.4,1.5,10.1,2,13.5,19.5-20.7,61.4-24.5,75.1,4.3,7.1,31,1.6,63.5,3.3,95.1h-24.5c-.4-26.5.9-52.9-.6-79.4-2.2-25.2-44-21.4-48,1.3-5.7,25.6-2.1,52.1-3,78.1h-23.2Q1091.85,179.65,1091.8,123.25Z" transform="translate(-0.97 -2.75)"/><path class="cls-1" d="M1367.8,129.85c20.2-8,43.5-13.7,64.6-5.3,12.9,4.8,19.6,19.2,19.4,32.4.4,26.6.1,53.3-.1,80-11.6,1.1-20.4-2.2-22.1-14.8-13.4,15.2-35.4,21.5-54.5,13.8-24.5-9.8-25.7-50.9-1.2-61.5,16.9-8.3,36.3-6.7,54.6-8.2-1.8-8.2.1-18.9-8.4-23.7-14.6-7.7-30.8.5-45.1,4.9C1372.6,141.65,1370.2,135.75,1367.8,129.85Zm14.6,65.3c-5.6,12.2,3.9,27.5,17.9,24.8,21,1.1,30.7-20.8,27.8-38.8C1412.5,183,1392.4,180.05,1382.4,195.15Z" transform="translate(-0.97 -2.75)"/><path class="cls-1" d="M783.3,123.25h23.1v112.8c-7.7,0-15.4,0-23.1.1Z" transform="translate(-0.97 -2.75)"/><path class="cls-1" d="M1306.5,123.25h23.1c-.1,37.7.2,75.3-.2,113l-22.9-.3Z" transform="translate(-0.97 -2.75)"/><path class="cls-2" d="M157.4,54.35c12.4-25.7,35.5-48.5,65.3-50.7,39.8-6.2,80.9,20.3,88.6,60.4,24.1,6.5,49.6,22.2,52.1,49.5,4.6,26.7-14.5,49.9-37.9,59.8,0-3.4.1-10.4.1-13.9,11.3-12.7,27-27.1,22.1-46.2-3.9-23.2-28.6-30.9-46.8-40.1-8.3-16.3-14.7-35.5-31.5-45.1-22-13-51-12.8-73.2-.4-15.3,8.3-22.3,25-30.8,39.2-13.2,1-26.7.5-39.5,4.5-9.1,5.7-12,17.3-17.7,25.9-14.2,0-28.4.1-42.6-.1a280,280,0,0,1,28.2-9C101.6,61.05,131.2,49.75,157.4,54.35Z" transform="translate(-0.97 -2.75)"/><path class="cls-3" d="M196.2,27.85c22.2-12.4,51.2-12.7,73.2.3,16.7,9.6,23.2,28.9,31.5,45.1,18.2,9.2,42.9,17,46.8,40.1,4.9,19-10.8,33.4-22.1,46.2q-.15-31.05-.2-62.1c-72.4-.1-144.9.1-217.3-.1,5.7-8.6,8.6-20.2,17.7-25.9,12.8-4,26.3-3.5,39.5-4.5C173.9,52.85,180.9,36.05,196.2,27.85Z" transform="translate(-0.97 -2.75)"/><path class="cls-4" d="M1.9,119.25c15.3-.1,30.5-.1,45.8-.1H90.3c-.4,47.3,2.9,94.5-.3,141.8l-3,.2q-1.05,10.05-1.8,20.1l4.8.4c1.9,17.2,1.5,34.5,1.8,51.8l-.4,2.1-6.1,3.7c-27.4,0-54.8.4-82.2-.3-4.3-16.9-.7-34.2-1.1-51.3C1.9,231.45,2.1,175.35,1.9,119.25Zm11,13.5v16.3H79.5v-16.3Zm-.5,27.9c3.3,5.6,8,8.5,14.3,8.5,17.4.9,34.8.1,52.2.4.3-2.4.7-7.1,1-9.5C57.4,160.05,34.9,159.45,12.4,160.65Zm.4,19.7c.1,3.2.2,9.3.2,12.4,22.1-1.4,44.2-.4,66.4-.1.1-3.1.2-9.2.2-12.3Zm-1.3,19.2,8.9,11.7c17.4.6,34.9,1,52.2-.3,2.3-2.9,6.8-8.7,9-11.6C58.3,199.35,34.8,199.15,11.5,199.55Zm.3,123.3c19.1,9.1,41.4,2.2,61.9,4.5,1.3-1.4,3.7-4.2,4.9-5.5C56.3,322,34,320.65,11.8,322.85Z" transform="translate(-0.97 -2.75)"/><path class="cls-5" d="M47.1,97.35c6.2-.1,12.4-.1,18.5-.1,14.2.2,28.4.1,42.6.1,72.4.2,144.9,0,217.3.1-.1,20.7.1,41.4.2,62.1,0,3.5-.1,10.4-.1,13.9-.2,36.3-.1,72.6-.1,108.8H222.2V304c16.2,1.4,39.7-7,45.5,14.3,2.7,5.4,5.4,10.7,8.3,15.9.2,3.3.7,10,.9,13.3-61.8.1-123.6-.1-185.4.1v-12l.4-2.1c3.9-9.6,5.9-20.2,12-28.6,11.7-1.3,23.6-.5,35.4-1.7,5.4-5.6,6.9-13.4,9.5-20.4-19.6-.7-39.1-.1-58.7-1l-4.8-.4q.75-10.05,1.8-20.1l3-.2c71.2-1,142.4-.1,213.6-.4V119.35H47.7C47.5,111.85,47.3,104.65,47.1,97.35Zm115.3,184.9v10.9h43.5v-10.9Z" transform="translate(-0.97 -2.75)"/><path class="cls-6" d="M451,313.55H440.7v17.7h-5.8v-43.8h14.5c4.9,0,8.7,1.1,11.4,3.4s4,5.5,4,9.8a11.53,11.53,0,0,1-2.2,7.1,13.19,13.19,0,0,1-6.2,4.5l10.3,18.6v.4h-6.2Zm-10.3-4.8h8.9c2.9,0,5.2-.7,6.8-2.2a8.82,8.82,0,0,0,.1-12.2,10.29,10.29,0,0,0-7-2.2h-8.9v16.6Z" transform="translate(-0.97 -2.75)"/><path class="cls-6" d="M485.5,331.85a14,14,0,0,1-10.8-4.4c-2.8-2.9-4.2-6.8-4.2-11.6v-1a19.16,19.16,0,0,1,1.9-8.7,15.16,15.16,0,0,1,5.2-6,13.25,13.25,0,0,1,7.2-2.2,12.35,12.35,0,0,1,9.9,4.2c2.3,2.8,3.5,6.8,3.5,12v2.3H476.1a11.76,11.76,0,0,0,2.8,7.8,8.81,8.81,0,0,0,6.8,3,9.74,9.74,0,0,0,5-1.2,12.21,12.21,0,0,0,3.6-3.2l3.4,2.6C495.1,329.75,491,331.85,485.5,331.85Zm-.7-29.2a7.52,7.52,0,0,0-5.7,2.5,11.51,11.51,0,0,0-2.8,6.9h16.3v-.4a10.88,10.88,0,0,0-2.3-6.6A6.64,6.64,0,0,0,484.8,302.65Z" transform="translate(-0.97 -2.75)"/><path class="cls-6" d="M509.9,298.65l.1,3.6a12.08,12.08,0,0,1,9.7-4.2c4.6,0,7.7,1.7,9.3,5.2a12.78,12.78,0,0,1,4.2-3.8,12.1,12.1,0,0,1,6.2-1.4c7.1,0,10.8,3.8,10.9,11.3v21.8h-5.6v-21.5c0-2.3-.5-4.1-1.6-5.2s-2.9-1.7-5.4-1.7a6.86,6.86,0,0,0-5.1,1.9,7.23,7.23,0,0,0-2.4,5v21.6h-5.6V310c0-4.7-2.3-7.1-7-7.1-3.7,0-6.2,1.6-7.5,4.7v23.8h-5.6v-32.7Z" transform="translate(-0.97 -2.75)"/><path class="cls-6" d="M557.2,314.65a18.45,18.45,0,0,1,1.9-8.6,14.3,14.3,0,0,1,5.2-5.9,14.11,14.11,0,0,1,7.7-2.1,13.85,13.85,0,0,1,10.8,4.6c2.7,3.1,4.1,7.2,4.1,12.3v.4a19.3,19.3,0,0,1-1.8,8.5,14.23,14.23,0,0,1-5.2,5.9,14.7,14.7,0,0,1-7.8,2.1,13.5,13.5,0,0,1-10.7-4.6c-2.7-3.1-4.1-7.1-4.1-12.2v-.4Zm5.6.7c0,3.6.8,6.5,2.5,8.7a8,8,0,0,0,6.7,3.3,7.89,7.89,0,0,0,6.7-3.3c1.7-2.2,2.5-5.3,2.5-9.3,0-3.6-.8-6.5-2.5-8.7a8.55,8.55,0,0,0-13.5,0C563.7,308.15,562.8,311.25,562.8,315.35Z" transform="translate(-0.97 -2.75)"/><path class="cls-6" d="M601.4,290.75v7.9h6.1V303h-6.1v20.2a4.56,4.56,0,0,0,.8,2.9,3.3,3.3,0,0,0,2.8,1,11.57,11.57,0,0,0,2.7-.4v4.5a16.49,16.49,0,0,1-4.3.6,6.81,6.81,0,0,1-5.6-2.3c-1.3-1.5-1.9-3.6-1.9-6.4v-20.2H590v-4.2h5.9v-7.9Z" transform="translate(-0.97 -2.75)"/><path class="cls-6" d="M627.5,331.85a14,14,0,0,1-10.8-4.4c-2.8-2.9-4.2-6.8-4.2-11.6v-1a19.16,19.16,0,0,1,1.9-8.7,15.16,15.16,0,0,1,5.2-6,13.25,13.25,0,0,1,7.2-2.2,12.35,12.35,0,0,1,9.9,4.2c2.3,2.8,3.5,6.8,3.5,12v2.3H618.1a11.76,11.76,0,0,0,2.8,7.8,8.81,8.81,0,0,0,6.8,3,9.74,9.74,0,0,0,5-1.2,12.21,12.21,0,0,0,3.6-3.2l3.4,2.6C637.1,329.75,633,331.85,627.5,331.85Zm-.6-29.2a7.52,7.52,0,0,0-5.7,2.5,11.51,11.51,0,0,0-2.8,6.9h16.3v-.4a10.88,10.88,0,0,0-2.3-6.6A6.91,6.91,0,0,0,626.9,302.65Z" transform="translate(-0.97 -2.75)"/><path class="cls-6" d="M662.8,331.25v-43.8h12.4a19.66,19.66,0,0,1,10.1,2.5,17.51,17.51,0,0,1,6.8,7.2,23.1,23.1,0,0,1,2.4,10.7v2.8a23.65,23.65,0,0,1-2.4,10.9,17.51,17.51,0,0,1-6.8,7.2,21.54,21.54,0,0,1-10.3,2.6H662.8Zm5.8-39.1v34.4h6.1c4.5,0,7.9-1.4,10.4-4.2s3.7-6.7,3.7-11.8V308c0-5-1.2-8.9-3.5-11.6s-5.7-4.2-10-4.2Z" transform="translate(-0.97 -2.75)"/><path class="cls-6" d="M715.9,331.85a14,14,0,0,1-10.8-4.4c-2.8-2.9-4.2-6.8-4.2-11.6v-1a19.16,19.16,0,0,1,1.9-8.7,15.16,15.16,0,0,1,5.2-6,13.25,13.25,0,0,1,7.2-2.2,12.35,12.35,0,0,1,9.9,4.2c2.3,2.8,3.5,6.8,3.5,12v2.3H706.5a11.76,11.76,0,0,0,2.8,7.8,8.81,8.81,0,0,0,6.8,3,9.74,9.74,0,0,0,5-1.2,12.21,12.21,0,0,0,3.6-3.2l3.4,2.6C725.5,329.75,721.4,331.85,715.9,331.85Zm-.7-29.2a7.52,7.52,0,0,0-5.7,2.5,11.51,11.51,0,0,0-2.8,6.9H723v-.4a10.88,10.88,0,0,0-2.3-6.6A6.77,6.77,0,0,0,715.2,302.65Z" transform="translate(-0.97 -2.75)"/><path class="cls-6" d="M754,322.55a4.14,4.14,0,0,0-1.7-3.5,16.52,16.52,0,0,0-5.9-2.2,25,25,0,0,1-6.7-2.2,8.74,8.74,0,0,1-3.7-3,7.39,7.39,0,0,1-1.2-4.2,8.42,8.42,0,0,1,3.4-6.8,13.54,13.54,0,0,1,8.7-2.8,13.69,13.69,0,0,1,9,2.9,9,9,0,0,1,3.4,7.3h-5.6a4.91,4.91,0,0,0-1.9-3.9,7.29,7.29,0,0,0-4.9-1.7,7.8,7.8,0,0,0-4.8,1.3,4.27,4.27,0,0,0-1.7,3.5,3.21,3.21,0,0,0,1.6,3,21.88,21.88,0,0,0,5.8,2,34,34,0,0,1,6.8,2.2,10.1,10.1,0,0,1,3.8,3.1,7.83,7.83,0,0,1,1.2,4.4,8.49,8.49,0,0,1-3.5,7c-2.3,1.8-5.3,2.6-9.1,2.6a16.66,16.66,0,0,1-6.9-1.4,10.66,10.66,0,0,1-4.7-3.9,9.59,9.59,0,0,1-1.7-5.4h5.6a5.59,5.59,0,0,0,2.2,4.4,8.57,8.57,0,0,0,5.5,1.6,8.78,8.78,0,0,0,5.1-1.3A2.8,2.8,0,0,0,754,322.55Z" transform="translate(-0.97 -2.75)"/><path class="cls-6" d="M775.9,316.15l-3.5,3.6v11.4h-5.6V285h5.6v28l3-3.6,10.1-10.7h6.8l-12.7,13.6,14.2,19h-6.5Z" transform="translate(-0.97 -2.75)"/><path class="cls-6" d="M805.7,290.75v7.9h6.1V303h-6.1v20.2a4.56,4.56,0,0,0,.8,2.9,3.3,3.3,0,0,0,2.8,1,11.57,11.57,0,0,0,2.7-.4v4.5a16.49,16.49,0,0,1-4.3.6,6.81,6.81,0,0,1-5.6-2.3c-1.3-1.5-1.9-3.6-1.9-6.4v-20.2h-5.9v-4.2h5.9v-7.9Z" transform="translate(-0.97 -2.75)"/><path class="cls-6" d="M816.2,314.65a18.45,18.45,0,0,1,1.9-8.6,14.3,14.3,0,0,1,5.2-5.9,14.11,14.11,0,0,1,7.7-2.1,13.85,13.85,0,0,1,10.8,4.6c2.7,3.1,4.1,7.2,4.1,12.3v.4a19.3,19.3,0,0,1-1.8,8.5,14.23,14.23,0,0,1-5.2,5.9,14.7,14.7,0,0,1-7.8,2.1,13.5,13.5,0,0,1-10.7-4.6c-2.7-3.1-4.1-7.1-4.1-12.2v-.4Zm5.6.7c0,3.6.8,6.5,2.5,8.7a8,8,0,0,0,6.7,3.3,7.89,7.89,0,0,0,6.7-3.3c1.7-2.2,2.5-5.3,2.5-9.3,0-3.6-.8-6.5-2.5-8.7a8.55,8.55,0,0,0-13.5,0Q821.8,309.2,821.8,315.35Z" transform="translate(-0.97 -2.75)"/><path class="cls-6" d="M880.3,315.35c0,5-1.1,9-3.4,12a10.93,10.93,0,0,1-9.2,4.5c-4,0-7.1-1.3-9.3-3.8v15.7h-5.6v-45.1h5.1l.3,3.6a11.54,11.54,0,0,1,9.5-4.2,11.29,11.29,0,0,1,9.3,4.4c2.3,3,3.4,7.1,3.4,12.3l-.1.6Zm-5.5-.7c0-3.7-.8-6.6-2.3-8.7a7.64,7.64,0,0,0-6.4-3.2,8.19,8.19,0,0,0-7.6,4.5v15.6a8.19,8.19,0,0,0,7.6,4.5,7.64,7.64,0,0,0,6.4-3.2C874,322,874.8,318.85,874.8,314.65Z" transform="translate(-0.97 -2.75)"/><path class="cls-6" d="M901.5,319.45a10.19,10.19,0,0,1,1.8-5.8c1.2-1.8,3.4-3.8,6.7-6.2a30.49,30.49,0,0,1-3.9-5.7,9.65,9.65,0,0,1-1-4.3,10.25,10.25,0,0,1,3-7.8c2-1.9,4.6-2.8,8-2.8a11.21,11.21,0,0,1,7.5,2.6,8.54,8.54,0,0,1,3,6.6,9.22,9.22,0,0,1-1.3,4.9,17.3,17.3,0,0,1-4.7,4.7l-3.2,2.4,9.8,11.6a18,18,0,0,0,2-8.7h5c0,5.1-1.2,9.4-3.7,12.7l6.3,7.5h-6.7l-2.9-3.5a15.75,15.75,0,0,1-5.2,3,18.15,18.15,0,0,1-6.1,1c-4.3,0-7.7-1.1-10.3-3.4A10.37,10.37,0,0,1,901.5,319.45Zm14.2,7.8a11.54,11.54,0,0,0,8.1-3.4l-10.7-12.8-1,.7c-3.4,2.5-5,5-5,7.6a7.45,7.45,0,0,0,2.3,5.7A8.92,8.92,0,0,0,915.7,327.25Zm-5.1-30q0,2.85,3.6,7.2l3.6-2.5a9.18,9.18,0,0,0,2.8-2.8,6.32,6.32,0,0,0,.8-3.2,4.48,4.48,0,0,0-1.5-3.4,5.49,5.49,0,0,0-3.8-1.3,4.92,4.92,0,0,0-3.9,1.7A6.85,6.85,0,0,0,910.6,297.25Z" transform="translate(-0.97 -2.75)"/><path class="cls-6" d="M973.2,313.55H962.9v17.7h-5.8v-43.8h14.5c4.9,0,8.7,1.1,11.4,3.4s4,5.5,4,9.8a11.53,11.53,0,0,1-2.2,7.1,13.19,13.19,0,0,1-6.2,4.5l10.3,18.6v.4h-6.2Zm-10.3-4.8h8.9c2.9,0,5.2-.7,6.8-2.2a8.82,8.82,0,0,0,.1-12.2,10.29,10.29,0,0,0-7-2.2h-8.9l.1,16.6Z" transform="translate(-0.97 -2.75)"/><path class="cls-6" d="M1007.7,331.85a14,14,0,0,1-10.8-4.4c-2.8-2.9-4.2-6.8-4.2-11.6v-1a19.16,19.16,0,0,1,1.9-8.7,15.16,15.16,0,0,1,5.2-6,13.25,13.25,0,0,1,7.2-2.2,12.35,12.35,0,0,1,9.9,4.2c2.3,2.8,3.5,6.8,3.5,12v2.3h-22a11.76,11.76,0,0,0,2.8,7.8,8.81,8.81,0,0,0,6.8,3,9.74,9.74,0,0,0,5-1.2,12.21,12.21,0,0,0,3.6-3.2l3.4,2.6C1017.3,329.75,1013.2,331.85,1007.7,331.85Zm-.6-29.2a7.52,7.52,0,0,0-5.7,2.5,11.51,11.51,0,0,0-2.8,6.9h16.3v-.4a10.88,10.88,0,0,0-2.3-6.6A6.91,6.91,0,0,0,1007.1,302.65Z" transform="translate(-0.97 -2.75)"/><path class="cls-6" d="M1045.9,322.55a4.14,4.14,0,0,0-1.7-3.5,16.52,16.52,0,0,0-5.9-2.2,25,25,0,0,1-6.7-2.2,8.74,8.74,0,0,1-3.7-3,7.39,7.39,0,0,1-1.2-4.2,8.42,8.42,0,0,1,3.4-6.8,13.54,13.54,0,0,1,8.7-2.8,13.69,13.69,0,0,1,9,2.9,9,9,0,0,1,3.4,7.3h-5.6a4.91,4.91,0,0,0-1.9-3.9,7.29,7.29,0,0,0-4.9-1.7,7.8,7.8,0,0,0-4.8,1.3,4.27,4.27,0,0,0-1.7,3.5,3.21,3.21,0,0,0,1.6,3,21.88,21.88,0,0,0,5.8,2,34,34,0,0,1,6.8,2.2,10.1,10.1,0,0,1,3.8,3.1,7.83,7.83,0,0,1,1.2,4.4,8.49,8.49,0,0,1-3.5,7c-2.3,1.8-5.3,2.6-9.1,2.6a16.66,16.66,0,0,1-6.9-1.4,10.66,10.66,0,0,1-4.7-3.9,9.59,9.59,0,0,1-1.7-5.4h5.6a5.59,5.59,0,0,0,2.2,4.4,8.57,8.57,0,0,0,5.5,1.6,8.78,8.78,0,0,0,5.1-1.3A2.92,2.92,0,0,0,1045.9,322.55Z" transform="translate(-0.97 -2.75)"/><path class="cls-6" d="M1058.7,290.05a3.57,3.57,0,0,1,.8-2.3,3.92,3.92,0,0,1,5,0,3.09,3.09,0,0,1,.8,2.3,3.57,3.57,0,0,1-.8,2.3,3.92,3.92,0,0,1-5,0A3.78,3.78,0,0,1,1058.7,290.05Zm6,41.2h-5.6v-32.6h5.6Z" transform="translate(-0.97 -2.75)"/><path class="cls-6" d="M1072.3,314.65c0-5,1.2-9,3.6-12.1a11.19,11.19,0,0,1,9.3-4.6,11.51,11.51,0,0,1,9.1,3.9v-17h5.6v46.2h-5.1l-.3-3.5a11.35,11.35,0,0,1-9.3,4.1,11,11,0,0,1-9.2-4.6c-2.4-3.1-3.6-7.1-3.6-12.1l-.1-.3Zm5.6.7c0,3.7.8,6.6,2.3,8.7a7.26,7.26,0,0,0,6.3,3.1,8.07,8.07,0,0,0,7.7-4.8v-15a8.15,8.15,0,0,0-7.7-4.6,7.52,7.52,0,0,0-6.4,3.2C1078.6,308.05,1077.9,311.15,1077.9,315.35Z" transform="translate(-0.97 -2.75)"/><path class="cls-6" d="M1121.9,331.85a14,14,0,0,1-10.8-4.4c-2.8-2.9-4.2-6.8-4.2-11.6v-1a19.16,19.16,0,0,1,1.9-8.7,15.16,15.16,0,0,1,5.2-6,13.25,13.25,0,0,1,7.2-2.2,12.35,12.35,0,0,1,9.9,4.2c2.3,2.8,3.5,6.8,3.5,12v2.3h-22.1a11.76,11.76,0,0,0,2.8,7.8,8.81,8.81,0,0,0,6.8,3,9.74,9.74,0,0,0,5-1.2,12.21,12.21,0,0,0,3.6-3.2l3.4,2.6C1131.5,329.75,1127.4,331.85,1121.9,331.85Zm-.6-29.2a7.52,7.52,0,0,0-5.7,2.5,11.51,11.51,0,0,0-2.8,6.9h16.3v-.4a10.88,10.88,0,0,0-2.3-6.6A6.91,6.91,0,0,0,1121.3,302.65Z" transform="translate(-0.97 -2.75)"/><path class="cls-6" d="M1146.4,298.65l.2,4.1a12,12,0,0,1,9.8-4.7c6.9,0,10.4,3.9,10.4,11.6v21.5h-5.6v-21.5a7.69,7.69,0,0,0-1.6-5.2,6.61,6.61,0,0,0-4.9-1.7,8.72,8.72,0,0,0-4.8,1.4,9.89,9.89,0,0,0-3.2,3.8v23.2h-5.6v-32.5Z" transform="translate(-0.97 -2.75)"/><path class="cls-6" d="M1182.7,290.75v7.9h6.1V303h-6.1v20.2a4.56,4.56,0,0,0,.8,2.9,3.3,3.3,0,0,0,2.8,1,11.57,11.57,0,0,0,2.7-.4v4.5a16.49,16.49,0,0,1-4.3.6,6.81,6.81,0,0,1-5.6-2.3c-1.3-1.5-1.9-3.6-1.9-6.4v-20.2h-5.9v-4.2h5.9v-7.9Z" transform="translate(-0.97 -2.75)"/><path class="cls-6" d="M1195.3,290.05a3.57,3.57,0,0,1,.8-2.3,3.92,3.92,0,0,1,5,0,3.09,3.09,0,0,1,.8,2.3,3.57,3.57,0,0,1-.8,2.3,3.92,3.92,0,0,1-5,0A3.78,3.78,0,0,1,1195.3,290.05Zm6,41.2h-5.6v-32.6h5.6Z" transform="translate(-0.97 -2.75)"/><path class="cls-6" d="M1230.3,331.25a12,12,0,0,1-.8-3.4,12.42,12.42,0,0,1-9.3,4,11.65,11.65,0,0,1-7.9-2.7,8.64,8.64,0,0,1-3.1-6.9,9.2,9.2,0,0,1,3.9-7.9c2.6-1.9,6.2-2.8,10.9-2.8h5.4V309a6.77,6.77,0,0,0-1.7-4.7,6.86,6.86,0,0,0-5.1-1.7,8,8,0,0,0-5,1.5,4.49,4.49,0,0,0-2,3.6H1210a8,8,0,0,1,1.7-4.7,12.3,12.3,0,0,1,4.7-3.6,15.41,15.41,0,0,1,6.5-1.3c3.8,0,6.7.9,8.8,2.8a10.44,10.44,0,0,1,3.3,7.8v15a19.2,19.2,0,0,0,1.1,7.1v.5Zm-9.2-4.3a10.22,10.22,0,0,0,5-1.4,8.16,8.16,0,0,0,3.4-3.5v-6.7h-4.4q-10.2,0-10.2,6a5.35,5.35,0,0,0,1.7,4.1A6.79,6.79,0,0,0,1221.1,327Z" transform="translate(-0.97 -2.75)"/><path class="cls-6" d="M1249.8,331.25h-5.6v-46.2h5.6Z" transform="translate(-0.97 -2.75)"/><path class="cls-6" d="M1281.1,331.25h-5.8v-43.8h5.8Z" transform="translate(-0.97 -2.75)"/><path class="cls-6" d="M1297.4,314.05v17.2h-5.8v-43.8h16.2c4.8,0,8.6,1.2,11.3,3.7a12.46,12.46,0,0,1,4.1,9.7c0,4.3-1.3,7.5-4,9.8s-6.5,3.4-11.4,3.4Zm0-4.7h10.4c3.1,0,5.5-.7,7.1-2.2a9.19,9.19,0,0,0,0-12.6,9.25,9.25,0,0,0-6.8-2.4h-10.7Z" transform="translate(-0.97 -2.75)"/><path class="cls-6" d="M1352,331.25h-5.8v-43.8h5.8Z" transform="translate(-0.97 -2.75)"/><path class="cls-6" d="M1367,298.65l.2,4.1a12,12,0,0,1,9.8-4.7c6.9,0,10.4,3.9,10.4,11.6v21.5h-5.6v-21.5a7.69,7.69,0,0,0-1.6-5.2,6.61,6.61,0,0,0-4.9-1.7,8.72,8.72,0,0,0-4.8,1.4,9.89,9.89,0,0,0-3.2,3.8v23.2h-5.6v-32.5Z" transform="translate(-0.97 -2.75)"/><path class="cls-6" d="M1442.7,287.35v29.8a13.72,13.72,0,0,1-3.9,10.1,15.83,15.83,0,0,1-10.5,4.4l-1.5.1c-4.8,0-8.6-1.3-11.5-3.9s-4.3-6.2-4.3-10.7v-29.9h5.7V317a10.26,10.26,0,0,0,2.6,7.4c1.7,1.8,4.2,2.6,7.5,2.6s5.8-.9,7.5-2.6,2.6-4.2,2.6-7.4v-29.7h5.8v.1Z" transform="translate(-0.97 -2.75)"/><path class="cls-6" d="M1464.8,311.65c-5-1.4-8.6-3.2-10.8-5.3a9.89,9.89,0,0,1-3.4-7.7,10.8,10.8,0,0,1,4.1-8.6c2.8-2.3,6.3-3.4,10.8-3.4a19.24,19.24,0,0,1,8.1,1.7,13.63,13.63,0,0,1,5.5,4.8,12.14,12.14,0,0,1,1.9,6.7h-5.8a7.93,7.93,0,0,0-2.5-6.3,10.44,10.44,0,0,0-7.1-2.3c-2.9,0-5.1.6-6.7,1.9a6.32,6.32,0,0,0-2.4,5.2,5.59,5.59,0,0,0,2.3,4.5,22.49,22.49,0,0,0,7.7,3.4,38.35,38.35,0,0,1,8.6,3.4,12.81,12.81,0,0,1,4.6,4.3,10.89,10.89,0,0,1,1.5,5.8,10,10,0,0,1-4.2,8.5c-2.8,2.1-6.5,3.2-11.1,3.2a21.36,21.36,0,0,1-8.4-1.7,14.37,14.37,0,0,1-6-4.7,11.65,11.65,0,0,1-2.1-6.8h5.8a7.88,7.88,0,0,0,2.9,6.3,12.68,12.68,0,0,0,7.8,2.3c3.1,0,5.4-.6,7-1.9a6,6,0,0,0,2.4-5.1,6.13,6.13,0,0,0-2.3-5A44.8,44.8,0,0,0,1464.8,311.65Z" transform="translate(-0.97 -2.75)"/><path class="cls-6" d="M1512.6,319.75h-18.4l-4.1,11.5h-6l16.7-43.8h5.1l16.8,43.8h-5.9Zm-16.6-4.7h14.9l-7.5-20.5Z" transform="translate(-0.97 -2.75)"/><path class="cls-5" d="M1605.4,201.55l33.1-109.7H1672l-50.8,145.9h-31.4l-50.6-145.9h33.4Z" transform="translate(-0.97 -2.75)"/><path class="cls-5" d="M1715.7,186.35v51.4h-30.1V91.85h56.9c11,0,20.6,2,28.9,6a44.43,44.43,0,0,1,19.2,17.1,47.5,47.5,0,0,1,6.7,25.2c0,14.3-4.9,25.6-14.7,33.8s-23.3,12.4-40.6,12.4Zm0-24.4h26.9c7.9,0,14-1.9,18.2-5.6s6.3-9.1,6.3-16c0-7.1-2.1-12.9-6.3-17.3s-10-6.7-17.4-6.8h-27.6l-.1,45.7Z" transform="translate(-0.97 -2.75)"/><path class="cls-5" d="M1893.7,199.45c0-5.7-2-10-6-13.1s-11.2-6.2-21.6-9.6-18.7-6.7-24.8-10c-16.6-9-24.9-21-24.9-36.2a34.91,34.91,0,0,1,6.7-21.1c4.4-6.2,10.8-11,19.1-14.5a71.65,71.65,0,0,1,28-5.2,65.62,65.62,0,0,1,27.9,5.7,44.71,44.71,0,0,1,19,16,42,42,0,0,1,6.8,23.5h-30.1q0-10-6.3-15.6c-4.2-3.7-10.1-5.6-17.7-5.6-7.4,0-13.1,1.6-17.1,4.7a14.63,14.63,0,0,0-6.1,12.3c0,4.7,2.4,8.7,7.2,11.9s11.8,6.2,21.1,9c17.1,5.1,29.6,11.5,37.4,19.1s11.7,17.1,11.7,28.5c0,12.6-4.8,22.5-14.3,29.7s-22.4,10.8-38.6,10.8a74.84,74.84,0,0,1-30.7-6.2c-9.2-4.1-16.3-9.7-21.1-16.9a43.46,43.46,0,0,1-7.3-24.9h30.2c0,16.1,9.6,24.2,28.9,24.2,7.1,0,12.7-1.5,16.7-4.4S1893.7,204.65,1893.7,199.45Z" transform="translate(-0.97 -2.75)"/><rect class="cls-4" x="1538.73" y="250.2" width="381.4" height="84.3"/><path class="cls-7" d="M1571.6,318.75a8.41,8.41,0,0,1,2.8-6.6,9.78,9.78,0,0,1,6.9-2.5,10.51,10.51,0,0,1,7,2.5,8.75,8.75,0,0,1,2.8,6.6,8.31,8.31,0,0,1-2.7,6.5,10.91,10.91,0,0,1-13.9,0A7.85,7.85,0,0,1,1571.6,318.75Z" transform="translate(-0.97 -2.75)"/><path class="cls-7" d="M1652.4,314.55a11.38,11.38,0,0,0,7.7-2.6,9,9,0,0,0,3.1-6.9h16a21.08,21.08,0,0,1-3.6,11.9,23.14,23.14,0,0,1-9.6,8.4,29.64,29.64,0,0,1-13.4,3c-9.2,0-16.4-2.9-21.7-8.7s-7.9-13.9-7.9-24.1v-1.1c0-9.9,2.6-17.7,7.9-23.6s12.5-8.8,21.6-8.8c8,0,14.4,2.3,19.3,6.8s7.3,10.6,7.4,18.2h-16a11.78,11.78,0,0,0-3.1-8.1,10.25,10.25,0,0,0-7.8-3.1c-4,0-7,1.5-9,4.4s-3,7.6-3,14.1v1.8c0,6.6,1,11.3,3,14.2S1648.3,314.55,1652.4,314.55Z" transform="translate(-0.97 -2.75)"/><path class="cls-7" d="M1706.3,294.55a37.28,37.28,0,0,1,3.7-17,26.85,26.85,0,0,1,10.6-11.5,31,31,0,0,1,16-4.1c8.6,0,15.7,2.6,21.2,7.9s8.5,12.5,9.1,21.6l.1,4.4c0,9.8-2.7,17.7-8.2,23.7s-12.8,8.9-22.1,8.9-16.6-3-22.1-8.9-8.3-14-8.3-24.2v-.8Zm17.1,1.2c0,6.1,1.1,10.7,3.4,14a12.3,12.3,0,0,0,19.5,0c2.3-3.2,3.5-8.3,3.5-15.3,0-6-1.2-10.6-3.5-13.9a11.24,11.24,0,0,0-9.8-4.9,11.06,11.06,0,0,0-9.7,4.9C1724.5,283.85,1723.4,289,1723.4,295.75Z" transform="translate(-0.97 -2.75)"/><path class="cls-7" d="M1813.4,263.15l.5,7.2c4.5-5.6,10.7-8.3,18.4-8.3,8.3,0,13.9,3.3,17,9.8,4.5-6.5,10.9-9.8,19.2-9.8,6.9,0,12.1,2,15.5,6.1s5.1,10.1,5.1,18.3v40.9h-17.2v-40.9c0-3.6-.7-6.3-2.1-8s-3.9-2.5-7.5-2.5c-5.1,0-8.7,2.4-10.7,7.3l.1,44h-17.1v-40.8c0-3.7-.7-6.4-2.2-8.1s-3.9-2.5-7.5-2.5q-7.35,0-10.5,6v45.3h-17v-64.1h16v.1Z" transform="translate(-0.97 -2.75)"/></svg>