<?xml version="1.0" encoding="utf-8"?>
<!-- Generator: Adobe Illustrator 24.2.1, SVG Export Plug-In . SVG Version: 6.00 Build 0)  -->
<svg version="1.1" id="Layer_1" xmlns="http://www.w3.org/2000/svg" xmlns:xlink="http://www.w3.org/1999/xlink" x="0px" y="0px"
	 viewBox="0 0 254 53" style="enable-background:new 0 0 254 53;" xml:space="preserve">
<style type="text/css">
	.st0{fill:#1CABE3;}
	.st1{fill:#2952A2;}
	.st2{fill:#FFFFFF;}
	.st3{fill:#F47C3E;}
	.st4{fill:none;}
	.st5{fill:#F17D35;}
	.st6{fill:#020202;}
</style>
<g>
	<path class="st0" d="M69.5,15c1.4-0.5,2.1-2.1,1.6-3.4c0-0.1,0-0.1-0.1-0.1C71.1,12.7,70.3,13.8,69.5,15z"/>
	<path class="st1" d="M68.9,9.8c-0.7-0.2-1.4-0.2-2.1,0.1c-1.1,0.4-1.8,1.4-1.9,2.5c0,0.3,0,0.6,0.1,0.9c0.2,0.7,0.9,1.2,1.5,1.8
		c0.1,0.4,0.1,0.9,0,1.3c-0.8,6.4-3.9,12.4-8.4,17.5c-3,3.4-6.6,6.2-10.6,8.3c-2.9,1.6-6.1,2.9-9.3,3.8c-4.7,1.3-9.8,1.9-14.5,0.5
		c-1.4-0.5-2.8-1.2-4-2.1l-1-0.8c-1.8-2-2.8-4.6-2.7-7.3c0-1.6,0.8-3.1,0.8-4.7c0-1.4,0-2.7,0-4.1c-1.5,1.6-2.6,3.5-3.2,5.6
		c-0.7,2.4-0.7,4.9,0.1,7.3c0.6,1.9,1.6,3.6,3.1,5c0.6,0.6,1.3,1.1,1.9,1.6c4.2,2.8,9.8,3.2,14.9,2.6c5-0.7,9.9-2.4,14.3-4.8
		c4.6-2.3,8.7-5.4,12.1-9.2c3.9-4.3,6.8-9.4,8.4-14.9c0.4-1.9,0.7-3.8,0.9-5.7c0.7-1.1,1.5-2.2,1.5-3.6v-0.2
		C70.5,10.5,69.7,10.1,68.9,9.8z M16.3,29.6c0.1,0.2,0.1,0.4,0.1,0.7C16.4,30,16.3,29.8,16.3,29.6h-0.2H16.3z M16.1,40.4
		c-0.1-0.3-0.2-0.7-0.3-1C15.9,39.7,16,40,16.1,40.4c0.2,0.5,0.5,0.9,0.7,1.4C16.6,41.3,16.3,40.8,16.1,40.4z M21.1,47.8
		c-0.2-0.1-0.4-0.2-0.6-0.3C20.7,47.6,20.9,47.7,21.1,47.8c0.4,0.2,0.8,0.4,1.3,0.6C22,48.2,21.5,48,21.1,47.8L21.1,47.8z"/>
	<ellipse class="st1" cx="68.1" cy="12.5" rx="3.3" ry="2.9"/>
	<ellipse class="st2" cx="68.1" cy="12.5" rx="2.2" ry="1.9"/>
	<path class="st3" d="M70.9,26.1c-0.2-0.7-0.4-1.3-0.7-1.9c-0.3,1.1-0.7,2.1-1.2,3c-3.1,6.1-7.7,11.4-13.3,15.3
		c0.7-0.1,1.4,0.1,2,0.5c2.4-2,4.9-3.9,6.8-6.4C67.1,33.4,69.3,29.9,70.9,26.1z"/>
	<path class="st3" d="M22.3,50c6,1.7,12.5,1.2,18.4-0.5h0.1c5.3-1.5,10.4-3.9,15-7.1c0.7-0.1,1.4,0.1,2,0.5
		c-3.8,2.6-7.7,4.7-11.8,6.3l0,0l-0.6,0.3c-1.7,0.7-3.4,1.2-5.1,1.6c-3.1,0.8-6.4,1.3-9.7,1.3c-2.6,0-5.3-0.3-7.7-1.2
		c-0.1,0-0.1,0-0.1-0.1l-0.6-0.2c-3-1-5.6-2.9-7.3-5.6l1,0.9C17.8,48.1,19.9,49.3,22.3,50"/>
	<ellipse class="st3" cx="71.3" cy="22.7" rx="2" ry="1.7"/>
	<ellipse class="st2" cx="71.3" cy="22.7" rx="1.3" ry="1.1"/>
	<path class="st4" d="M72.3,22c-0.1,0.4-0.2,0.8-0.3,1.2l-1.5-0.1c0-0.4,0-0.8,0-1.3C71.1,21.6,71.7,21.7,72.3,22z"/>
	<path class="st3" d="M70.9,26.1c-0.2-0.7-0.4-1.3-0.7-1.9l0,0l1.4,0.4C71.4,25,71.2,25.5,70.9,26.1z"/>
	<path class="st0" d="M4.4,38.1c-1.4,0.5-2.1,2-1.6,3.4c0,0.1,0,0.1,0.1,0.1C2.9,40.3,3.6,39.2,4.4,38.1z"/>
	<path class="st1" d="M25.9,8.2L25.9,8.2L25.9,8.2C25.9,8.3,25.9,8.3,25.9,8.2z"/>
	<ellipse class="st1" cx="5.8" cy="40.5" rx="3.3" ry="2.9"/>
	<ellipse class="st2" cx="5.8" cy="40.5" rx="2.2" ry="1.9"/>
	<path class="st3" d="M59,7.5l-1-0.9c-1.9-1.6-4.1-2.8-6.5-3.5h0.1c-6-1.7-12.5-1.2-18.3,0.5l0,0C28,5.1,22.9,7.5,18.4,10.7l0,0
		c-5.8,3.8-10.4,9-13.5,15.2c-0.6,0.9-1,1.9-1.2,3C3.4,28.3,3.2,27.6,3,27c1.6-3.8,3.8-7.4,6.5-10.5c1.8-2.4,4.3-4.4,6.8-6.4
		c3.6-2.6,7.5-4.8,11.6-6.4h-0.1l0.6-0.3c1.7-0.7,3.4-1.2,5.1-1.6l0,0c5.6-1.4,11.8-2,17.5-0.2c0,0,0.1,0,0.1,0.1l0.6,0.2
		C54.8,2.9,57.3,4.9,59,7.5z"/>
	<path class="st1" d="M60.1,12.6C59.5,10.7,58.5,9,57,7.7c-0.6-0.6-1.3-1.1-1.9-1.6c-4.2-2.8-9.8-3.2-14.9-2.6
		c-5,0.7-9.8,2.4-14.3,4.8l0,0l0,0l0,0l0,0c-4.6,2.3-8.7,5.4-12.1,9.2C9.9,21.7,7,26.8,5.3,32.3c-0.4,1.9-0.7,3.8-0.9,5.7
		c-0.8,1.1-1.5,2.2-1.5,3.6v0.1c0.5,0.7,1.3,1.2,2.1,1.5c0.7,0.2,1.4,0.2,2.1-0.1c1.1-0.4,1.8-1.4,1.9-2.5c0-0.3,0-0.6-0.1-0.8
		C8.7,39.1,8,38.6,7.4,38c-0.1-0.4-0.1-0.8,0-1.3c0.8-6.4,3.9-12.4,8.4-17.5c3.1-3.4,6.6-6.2,10.6-8.3c0,0,0,0,0.1,0
		c2.9-1.6,6-2.9,9.2-3.8c4.6-1.3,9.8-1.9,14.5-0.5c1.4,0.5,2.8,1.2,4,2.1l1,0.8c1.8,2,2.8,4.6,2.7,7.3c0,1.6-0.8,3.1-0.8,4.7v4
		c1.5-1.6,2.6-3.5,3.2-5.6C61,17.5,61,14.9,60.1,12.6z M6.6,41.6L6.6,41.6c-1,0.6-2.6-0.3-2.2-1.4c0.1-0.6,0.9-0.9,1.5-1.2
		c0.5,0.3,1.2,0.4,1.4,1C7.5,40.6,7.2,41.3,6.6,41.6z"/>
	<path class="st3" d="M41.3,1.7c2.2,0.1,4.4,0.2,6.5,0.2C45.7,1.6,43.5,1.5,41.3,1.7z"/>
	<ellipse class="st3" cx="2.6" cy="30.3" rx="2" ry="1.7"/>
	<ellipse class="st2" cx="2.6" cy="30.3" rx="1.3" ry="1.1"/>
	<path class="st4" d="M1.6,31c0.1-0.4,0.2-0.8,0.3-1.2l1.5,0.1c0,0.4,0,0.8,0,1.3C2.8,31.3,2.2,31.3,1.6,31z"/>
	<path class="st3" d="M3,27c0.2,0.7,0.4,1.3,0.7,1.9l0,0l-1.4-0.4C2.5,28,2.8,27.5,3,27z"/>
	<path class="st5" d="M20.2,11.5c10.8-0.2,21.6,0,32.4-0.1c0.8,0.1,2.2-0.2,2.5,0.8c0.2,2.1,0.2,4.2,0,6.2c-0.2,1-1.6,0.8-2.5,0.9
		c-10.7-0.1-21.3,0-32-0.1c-0.7,0.1-1.3-0.4-1.4-1.1c0-0.1,0-0.1,0-0.2c-0.1-1.8-0.1-3.5,0-5.3C19.1,12.1,19.6,11.6,20.2,11.5z
		 M49.5,13.8c-0.8,0.3-1.3,1.2-1,2c0.1,0.4,0.4,0.7,0.8,0.9c1.2,0.8,3.1-0.3,2.7-1.6C51.9,14.1,50.5,13.4,49.5,13.8z"/>
	<path class="st5" d="M19.7,20.7c0.8-0.3,1.6-0.4,2.4-0.4c10.3,0.1,20.7,0,31,0c0.8,0,2,0.1,2,1.1c0.2,1.9,0.2,3.9,0,5.8
		c0,0.9-1.2,1.2-2,1.1c-10.4,0-20.7,0-31.1,0c-1-0.1-2.4,0.2-2.8-0.8c-0.2-1.7-0.2-3.4-0.1-5.1C19.2,21.8,19,21,19.7,20.7z M49,23.1
		c-1.3,0.9-0.3,3.2,1.4,2.9c1.6,0,2.2-2.2,0.9-2.9C50.6,22.6,49.7,22.6,49,23.1z"/>
	<path class="st5" d="M19.2,30.3c0.2-1,1.5-0.9,2.3-0.9c10.5,0,21.1,0,31.6,0c0.7,0,1.8,0,1.9,0.8c0.2,1.3,0.2,2.5,0.2,3.8
		c-1.2,1.1-2.4,2.2-3.6,3.3c-10.2-0.1-20.4,0-30.5,0c-0.7,0-1.8-0.1-1.8-1C19.1,34.3,19,32.3,19.2,30.3z M49.6,31.7
		c-2.2,0.7-0.9,3.9,1.3,3.1C53,34.3,51.7,31,49.6,31.7L49.6,31.7z"/>
	<path class="st5" d="M19.2,38.7c0.9-0.2,1.9-0.3,2.9-0.4c9.3,0.2,18.6-0.1,27.8,0.1c-5.4,3.7-11.7,6.1-18.3,6.8
		c-4.4,0.4-9.2-0.2-12.6-3.1C19.1,41.1,19.1,39.9,19.2,38.7z"/>
	<path class="st1" d="M85.6,25c0.1,0.2,0.1,0.3,0.2,0.5s0.2,0.3,0.3,0.3c0.1,0,0.2-0.1,0.3-0.3c0.1-0.2,0.2-0.3,0.2-0.5l5.3-14.1
		h4.4L89,28.4c-0.1,0.4-0.3,0.7-0.6,1c-0.4,0.4-0.9,0.7-1.5,0.7c-0.3,0-0.5,0-0.8,0h-0.8c-0.3,0-0.5-0.1-0.8-0.2
		c-0.3-0.1-0.5-0.3-0.7-0.5c-0.3-0.3-0.5-0.6-0.6-1l-7.3-17.6h4.4L85.6,25z"/>
	<path class="st1" d="M106.3,10.8c1.3-0.1,2.6,0.2,3.8,0.7c0.9,0.4,1.8,1.1,2.4,1.9c0.6,0.9,1.1,1.9,1.3,3c0.3,1.3,0.4,2.6,0.4,3.9
		s-0.1,2.6-0.4,3.9c-0.2,1.1-0.6,2.1-1.3,3c-0.6,0.8-1.4,1.5-2.4,1.9c-1.2,0.5-2.5,0.7-3.8,0.7h-5.7v6.1h-4.2V14.1
		c0-2.2,1.1-3.2,3.2-3.2L106.3,10.8L106.3,10.8z M100.6,26.6h4.6c0.8,0.1,1.7-0.1,2.4-0.5c0.6-0.3,1.1-0.8,1.4-1.3
		c0.3-0.6,0.5-1.3,0.6-2c0.1-0.8,0.1-1.7,0.1-2.5s-0.1-1.7-0.1-2.5c-0.1-0.7-0.3-1.4-0.6-2c-0.3-0.6-0.8-1-1.4-1.3
		c-0.7-0.3-1.6-0.5-2.4-0.5h-3.5c-0.7,0-1.1,0.3-1.1,0.9V26.6L100.6,26.6z"/>
	<path class="st1" d="M115.4,26.6h10.7c0.4,0,0.8-0.1,1.2-0.4c0.4-0.3,0.6-0.8,0.6-1.3c0-0.4-0.1-0.8-0.4-1.2
		c-0.3-0.3-0.6-0.6-1-0.7c-0.4-0.2-0.8-0.3-1.3-0.4c-0.5-0.1-0.9-0.2-1.3-0.3l-3.7-1c-0.9-0.2-1.7-0.5-2.5-0.9
		c-0.6-0.3-1.1-0.7-1.5-1.2c-0.4-0.4-0.6-0.9-0.8-1.5c-0.2-0.6-0.2-1.2-0.2-1.9c0-1.7,0.4-3,1.3-3.7c0.8-0.8,2.3-1.2,4.2-1.2h10.7
		v3.2h-10.1c-0.5-0.1-1.1,0.1-1.5,0.3c-0.4,0.4-0.6,0.9-0.5,1.4c0,0.4,0.1,0.7,0.3,1c0.2,0.3,0.4,0.5,0.7,0.7
		c0.3,0.2,0.6,0.3,0.9,0.5c0.4,0.1,0.7,0.2,1.1,0.3l4.1,1.2c0.8,0.2,1.6,0.5,2.4,0.7c0.7,0.2,1.3,0.6,1.9,1c0.5,0.4,0.9,0.9,1.3,1.5
		c0.3,0.7,0.5,1.6,0.5,2.4c0,0.7-0.1,1.3-0.2,2c-0.1,0.6-0.4,1.1-0.7,1.5c-0.4,0.5-0.9,0.8-1.5,1c-0.7,0.3-1.5,0.4-2.3,0.3h-12.2
		L115.4,26.6L115.4,26.6z"/>
	<path class="st5" d="M134.3,29.9v-4.6h4.4v4.6H134.3z"/>
	<path class="st5" d="M150.1,14.1c-0.9-0.1-1.8,0.1-2.6,0.5c-0.6,0.3-1.1,0.7-1.5,1.3c-0.3,0.6-0.6,1.3-0.6,2
		c-0.1,0.8-0.2,1.6-0.2,2.5c0,0.8,0.1,1.7,0.2,2.5c0.1,0.7,0.3,1.4,0.6,2s0.8,1.1,1.5,1.3c0.8,0.4,1.7,0.5,2.6,0.5h7.4v3.2h-8.4
		c-1.4,0.1-2.7-0.2-4-0.7c-1-0.4-1.8-1.1-2.5-1.9c-0.6-0.9-1.1-1.9-1.3-3c-0.3-1.3-0.4-2.6-0.4-3.9c0-1.3,0.1-2.6,0.4-3.9
		c0.2-1.1,0.6-2.1,1.3-3c0.6-0.8,1.5-1.5,2.5-1.9c1.3-0.5,2.6-0.7,4-0.7h8v3.2L150.1,14.1z"/>
	<path class="st5" d="M167.9,10.6c1.5,0,3,0.1,4.5,0.5c1.2,0.3,2.3,0.8,3.2,1.6c0.9,0.8,1.5,1.8,1.9,3c0.5,1.5,0.7,3.1,0.6,4.7
		c0.1,1.6-0.2,3.2-0.6,4.7c-0.7,2.4-2.6,4.1-5.1,4.6c-2.9,0.6-6,0.6-8.9,0c-1.2-0.3-2.3-0.8-3.2-1.6s-1.5-1.8-1.9-3
		c-0.5-1.5-0.7-3.1-0.6-4.7c-0.1-1.6,0.2-3.2,0.6-4.7c0.4-1.2,1-2.2,1.9-3s2-1.3,3.2-1.6C164.9,10.7,166.3,10.6,167.9,10.6z
		 M162,20.3c0,1,0.1,2,0.3,3c0.2,0.7,0.5,1.4,1,2c0.5,0.5,1.1,0.9,1.8,1.2c1.8,0.5,3.7,0.5,5.5,0c0.7-0.2,1.3-0.6,1.8-1.2
		c0.5-0.6,0.8-1.3,1-2c0.2-1,0.3-2,0.3-3s-0.1-2-0.3-3c-0.2-0.7-0.5-1.4-1-2c-0.5-0.5-1.1-0.9-1.8-1.1c-0.9-0.3-1.8-0.4-2.7-0.4
		s-1.8,0.1-2.7,0.4c-0.7,0.2-1.3,0.6-1.8,1.1c-0.5,0.6-0.8,1.3-1,2C162.1,18.3,162,19.3,162,20.3L162,20.3z"/>
	<path class="st5" d="M179.7,14.1c0-2.2,1.1-3.2,3.2-3.2h16.5c1,0,2,0.1,3,0.3c0.8,0.2,1.6,0.5,2.3,1.1c0.7,0.5,1.2,1.2,1.5,2
		c0.4,1,0.6,2.1,0.6,3.1v12.5h-4.2V18.5c0.1-1.2-0.2-2.3-0.9-3.3c-0.6-0.7-1.6-1.1-3.1-1.1h-3.3v15.8h-4.2V14.1H185
		c-0.5-0.1-1,0.3-1.1,0.8c0,0.1,0,0.2,0,0.3v14.7h-4.2V14.1L179.7,14.1z"/>
	<path class="st5" d="M209.7,29.9v-4.6h4.4v4.6H209.7z"/>
	<path class="st5" d="M220.1,29.9c-2.2,0-3.2-1.1-3.2-3.2v-22h4.2v6.1h5.7c1.3-0.1,2.6,0.2,3.8,0.7c0.9,0.4,1.8,1.1,2.4,1.9
		c0.6,0.9,1.1,1.9,1.3,3c0.3,1.3,0.4,2.6,0.4,3.9c0,1.3-0.1,2.6-0.4,3.9c-0.2,1.1-0.6,2.1-1.3,3c-0.6,0.8-1.4,1.5-2.4,1.9
		c-1.2,0.5-2.5,0.7-3.8,0.7L220.1,29.9L220.1,29.9L220.1,29.9z M221,25.6c-0.1,0.5,0.3,1,0.8,1.1c0.1,0,0.2,0,0.3,0h3.6
		c0.8,0.1,1.7-0.1,2.4-0.5c0.6-0.3,1.1-0.8,1.4-1.3c0.3-0.6,0.5-1.3,0.6-2c0.1-0.8,0.1-1.7,0.1-2.5s-0.1-1.7-0.1-2.5
		c-0.1-0.7-0.3-1.4-0.6-2c-0.3-0.6-0.8-1-1.4-1.3c-0.7-0.3-1.6-0.5-2.4-0.5H221V25.6L221,25.6z"/>
	<path class="st5" d="M253.3,26.6c0,2.2-1.1,3.2-3.2,3.2h-6.6c-1.3,0.1-2.6-0.2-3.8-0.7c-0.9-0.4-1.8-1.1-2.4-1.9
		c-0.6-0.9-1.1-1.9-1.3-3c-0.3-1.3-0.4-2.6-0.4-3.9c0-1.3,0.1-2.6,0.4-3.9c0.2-1.1,0.6-2.1,1.3-3c0.6-0.8,1.4-1.5,2.4-1.9
		c1.2-0.5,2.5-0.7,3.8-0.7h5.7V4.7h4.2L253.3,26.6L253.3,26.6z M244.5,14.1c-0.8,0-1.6,0.1-2.4,0.5c-0.6,0.3-1.1,0.7-1.4,1.3
		c-0.3,0.6-0.5,1.3-0.6,2c-0.1,0.8-0.1,1.6-0.1,2.5c0,0.8,0.1,1.7,0.1,2.5c0.1,0.7,0.3,1.4,0.6,2s0.8,1,1.4,1.3
		c0.7,0.4,1.6,0.5,2.4,0.5h3.6c0.5,0.1,1-0.3,1.1-0.8c0-0.1,0-0.2,0-0.3V14.1H244.5z"/>
	<g>
		<path class="st6" d="M82.1,43.2H81v-2.5h-2.9v2.5H77v-5.7h1.1v2.3H81v-2.3h1.1V43.2z"/>
		<path class="st6" d="M84,38.3v-0.8h0.9v0.7L84,38.3L84,38.3z M84,38.9h0.9v4.3H84V38.9z"/>
		<path class="st6" d="M88.2,43.2c-0.4,0-1-0.1-1.3-0.5c-0.2-0.4-0.3-0.9-0.3-1.7c0-0.7,0.1-1.2,0.5-1.6c0.4-0.4,0.9-0.5,1.3-0.5
			h1.4c0.3,0,0.5,0,0.7,0.2s0.3,0.4,0.3,0.6v3c0,0.5-0.1,1-0.4,1.4c-0.4,0.5-1.1,0.5-1.4,0.5h-2v-0.7h1.8c0.2,0,0.6,0,0.8-0.2
			c0.1-0.1,0.2-0.3,0.3-0.5H88.2L88.2,43.2z M89.7,40c0-0.1,0-0.2-0.1-0.3s-0.2-0.1-0.3-0.1h-0.8c-0.3,0-0.6,0.1-0.7,0.3
			c-0.3,0.3-0.3,0.9-0.3,1.2c0,0.8,0.1,1.1,0.2,1.2c0.2,0.3,0.5,0.3,0.8,0.3h1.1L89.7,40L89.7,40L89.7,40z"/>
		<path class="st6" d="M92.4,37.5h0.9v1.4h1.3c0.5,0,0.9,0.1,1.2,0.3c0.2,0.2,0.5,0.6,0.5,1.2v2.8h-0.9v-2.6c0-0.2,0-0.5-0.2-0.7
			s-0.5-0.3-0.7-0.3h-1.1v3.6h-0.9v-5.7H92.4z"/>
		<path class="st6" d="M101.1,43.2v-4.8c0-0.2,0-0.4,0.2-0.6c0.2-0.2,0.4-0.2,0.6-0.2h2.7c0.3,0,0.8,0,1.1,0.3
			c0.4,0.4,0.4,1,0.4,1.5s-0.1,1.2-0.5,1.6c-0.2,0.2-0.5,0.3-0.9,0.3H102v2L101.1,43.2L101.1,43.2z M104.2,40.3c0.2,0,0.5,0,0.7-0.2
			s0.2-0.6,0.2-0.8c0-0.3,0-0.6-0.2-0.8s-0.5-0.2-0.7-0.2h-1.7c-0.1,0-0.2,0-0.3,0.1c-0.1,0.1-0.1,0.2-0.1,0.3v1.6
			C102.1,40.3,104.2,40.3,104.2,40.3z"/>
		<path class="st6" d="M109.3,43.2c-0.4,0-1-0.1-1.3-0.5s-0.3-1-0.3-1.6c0-0.8,0-1.4,0.5-1.8c0.5-0.4,1.2-0.4,1.6-0.4
			c0.5,0,1,0,1.4,0.3c0.5,0.3,0.6,0.8,0.6,1.4c0,0.2,0,0.5-0.2,0.6c-0.1,0.1-0.3,0.2-0.5,0.2h-2.5c0,0.2,0,0.5,0.1,0.6
			c0.1,0.5,0.5,0.5,0.9,0.5h2.1v0.7H109.3L109.3,43.2L109.3,43.2z M110.6,40.6c0.2,0,0.2-0.1,0.2-0.3c0-0.3-0.1-0.5-0.3-0.6
			c-0.2-0.2-0.5-0.2-0.8-0.2s-0.6,0-0.9,0.3c-0.2,0.2-0.2,0.5-0.2,0.7L110.6,40.6L110.6,40.6z"/>
		<path class="st6" d="M113.4,40.5c0-0.5,0.1-0.9,0.4-1.3c0.4-0.4,0.9-0.4,1.3-0.4h0.6v0.7h-0.4c-0.3,0-0.6,0-0.8,0.3
			c-0.2,0.2-0.2,0.5-0.2,0.8V43h-0.9V40.5L113.4,40.5z"/>
		<path class="st6" d="M117.5,43.2v-3.6h-0.6v-0.7h0.6c0-0.3,0.1-0.8,0.4-1.1c0.4-0.3,1.2-0.4,1.7-0.4v0.7c-0.5,0-0.8,0-0.9,0.1
			s-0.3,0.3-0.2,0.6h1.2v0.7h-1.2v3.6h-1V43.2z"/>
		<path class="st6" d="M125,39.3c0.5,0.5,0.5,1.3,0.5,1.7c0,0.9-0.2,1.4-0.5,1.7c-0.5,0.4-1.3,0.5-1.7,0.5c-0.5,0-1.3,0-1.7-0.5
			c-0.5-0.5-0.5-1.3-0.5-1.7c0-0.5,0.1-1.3,0.5-1.7c0.5-0.4,1.2-0.5,1.7-0.5S124.5,38.9,125,39.3z M122.2,42.2
			c0.3,0.3,0.7,0.4,1,0.4c0.4,0,0.7-0.1,1-0.4c0.3-0.3,0.3-0.7,0.3-1.1v-0.3c0-0.3-0.1-0.6-0.3-0.9c-0.3-0.3-0.7-0.3-1-0.3
			s-0.8,0-1,0.3c-0.3,0.3-0.3,0.8-0.3,1.1C122,41.4,122,41.8,122.2,42.2z"/>
		<path class="st6" d="M127.1,40.5c0-0.5,0.1-0.9,0.4-1.3c0.4-0.4,0.9-0.4,1.3-0.4h0.6v0.7H129c-0.3,0-0.6,0-0.8,0.3
			c-0.2,0.2-0.2,0.5-0.2,0.8V43h-0.9L127.1,40.5L127.1,40.5z"/>
		<path class="st6" d="M130.9,39.6c0-0.1,0-0.3,0.1-0.5c0.2-0.2,0.5-0.3,0.6-0.3h3.9c0.3,0,0.8,0.1,1.1,0.3s0.4,0.6,0.4,1.1v2.9
			h-0.9v-2.7c0-0.2,0-0.4-0.2-0.6c-0.2-0.2-0.4-0.2-0.6-0.2h-0.9v3.6h-0.9v-3.6h-1.4c-0.3,0.1-0.2,0-0.3,0.3v3.3h-0.9L130.9,39.6
			L130.9,39.6z"/>
		<path class="st6" d="M141.4,38.9c0.4,0,0.7,0.1,0.9,0.3s0.3,0.5,0.3,1v2.3c0,0.2,0,0.4-0.2,0.5c-0.2,0.2-0.4,0.2-0.6,0.2h-2.1
			c-0.2,0-0.5,0-0.8-0.2c-0.4-0.3-0.4-0.8-0.4-1.2s0.1-0.8,0.4-1.1c0.3-0.2,0.6-0.3,0.8-0.3h1.9v-0.3c0-0.1,0-0.3-0.1-0.4
			c-0.1-0.2-0.3-0.2-0.5-0.2h-2v-0.7L141.4,38.9L141.4,38.9z M140.1,41.2c-0.1,0-0.2,0-0.4,0.2c0,0.1-0.1,0.2-0.1,0.5
			c0,0.1,0,0.4,0.1,0.5s0.2,0.1,0.3,0.1h1.3c0.1,0,0.3-0.1,0.3-0.2v-1L140.1,41.2L140.1,41.2L140.1,41.2z"/>
		<path class="st6" d="M144.3,39.6c0-0.1,0-0.3,0.1-0.5c0.2-0.2,0.5-0.2,0.7-0.2h1.5c0.5,0,0.8,0,1.2,0.4c0.2,0.2,0.4,0.5,0.4,1.1
			v2.8h-0.9v-2.5c0-0.3,0-0.6-0.2-0.8c-0.1-0.2-0.3-0.3-0.7-0.3h-1c-0.1-0.1-0.3,0.1-0.2,0.2v3.3h-0.9L144.3,39.6L144.3,39.6z"/>
		<path class="st6" d="M151.5,43.2c-0.3,0-0.9-0.1-1.3-0.5c-0.4-0.4-0.4-0.9-0.4-1.6c0-0.5,0-1.3,0.5-1.7c0.2-0.2,0.5-0.5,1.3-0.5
			h1.8v0.7H152c-0.6,0-0.9,0.3-1.1,0.7c-0.1,0.2-0.1,0.7-0.1,0.8c0,0.3,0,0.7,0.1,0.9c0.2,0.4,0.7,0.5,1.1,0.5h1.5v0.7L151.5,43.2
			L151.5,43.2z"/>
		<path class="st6" d="M156.7,43.2c-0.4,0-1-0.1-1.3-0.5s-0.3-1-0.3-1.6c0-0.8,0-1.4,0.5-1.8c0.5-0.4,1.2-0.4,1.6-0.4
			c0.5,0,1,0,1.4,0.3c0.5,0.3,0.6,0.8,0.6,1.4c0,0.2,0,0.5-0.2,0.6c-0.1,0.1-0.3,0.2-0.5,0.2H156c0,0.2,0,0.5,0.1,0.6
			c0.1,0.5,0.5,0.5,0.9,0.5h2.1v0.7H156.7L156.7,43.2L156.7,43.2z M158,40.6c0.2,0,0.2-0.1,0.2-0.3c0-0.3-0.1-0.5-0.3-0.6
			c-0.2-0.2-0.5-0.2-0.8-0.2s-0.6,0-0.9,0.3c-0.2,0.2-0.2,0.5-0.2,0.7L158,40.6L158,40.6z"/>
		<path class="st6" d="M169,42.1c0,0.1,0.1,0.1,0.1,0.1l0.1-0.1l1.8-4.6h1.2l-2.1,5.1c-0.1,0.3-0.3,0.6-0.9,0.6
			c-0.3,0-0.7-0.1-0.9-0.6l-2.1-5.1h1.2L169,42.1z"/>
		<path class="st6" d="M173.4,43.2v-4.8c0-0.2,0-0.4,0.2-0.6c0.2-0.2,0.4-0.2,0.6-0.2h2.7c0.3,0,0.8,0,1.1,0.3
			c0.4,0.4,0.4,1,0.4,1.5s-0.1,1.2-0.5,1.6c-0.2,0.2-0.5,0.3-0.9,0.3h-2.6v2L173.4,43.2L173.4,43.2z M176.5,40.3
			c0.2,0,0.5,0,0.7-0.2s0.2-0.6,0.2-0.8c0-0.3,0-0.6-0.2-0.8s-0.5-0.2-0.7-0.2h-1.7c-0.1,0-0.2,0-0.3,0.1s-0.1,0.2-0.1,0.3v1.6
			C174.4,40.3,176.5,40.3,176.5,40.3z"/>
		<path class="st6" d="M180.2,42.3h3.1c0.5,0,0.5-0.4,0.5-0.6c0-0.2-0.1-0.5-0.5-0.6l-2.2-0.7c-0.1,0-0.5-0.2-0.7-0.4
			c-0.3-0.3-0.3-0.7-0.3-1.1c0-0.4,0.1-0.7,0.4-1.1c0.3-0.3,0.6-0.3,0.9-0.3h3.3v0.8h-2.9c-0.2,0-0.3,0-0.4,0.1
			c-0.1,0.1-0.2,0.3-0.2,0.4c0,0.3,0.1,0.5,0.5,0.6l2.1,0.7c0.6,0.2,0.9,0.4,1,0.7c0.2,0.3,0.2,0.6,0.2,0.8c0,0.4-0.1,0.7-0.3,1.1
			c-0.3,0.4-0.6,0.4-1,0.4h-3.5L180.2,42.3L180.2,42.3z"/>
		<path class="st6" d="M189.6,38.3v-0.8h0.9v0.7L189.6,38.3L189.6,38.3z M189.6,38.9h0.9v4.3h-0.9V38.9z"/>
		<path class="st6" d="M192.3,39.6c0-0.1,0-0.3,0.1-0.5c0.2-0.2,0.5-0.2,0.7-0.2h1.5c0.5,0,0.8,0,1.2,0.4c0.2,0.2,0.4,0.5,0.4,1.1
			v2.8h-0.9v-2.5c0-0.3,0-0.6-0.2-0.8c-0.1-0.2-0.3-0.3-0.7-0.3h-1c-0.1-0.1-0.3,0.1-0.2,0.2v3.3h-0.9L192.3,39.6L192.3,39.6z"/>
		<path class="st6" d="M205.8,40.6c0.3,0.3,0.3,0.7,0.3,1c0,0.4,0,0.8-0.3,1.2s-0.7,0.4-1,0.4H202c-0.3,0-0.5,0-0.8-0.2
			c-0.1-0.1-0.2-0.3-0.2-0.6v-4.1c0-0.2,0.1-0.4,0.2-0.6c0.2-0.2,0.4-0.2,0.6-0.2h2.8c0.3,0,0.7,0,1,0.3s0.4,0.8,0.4,1.2
			c0,0.3,0,0.6-0.3,0.9c-0.2,0.2-0.3,0.3-0.5,0.3l0,0C205.4,40.3,205.7,40.5,205.8,40.6z M202.1,39.9h2.1c0.2,0,0.4,0,0.6-0.2
			c0.1-0.1,0.1-0.2,0.1-0.6c0-0.2,0-0.4-0.2-0.6c-0.2-0.2-0.3-0.2-0.5-0.2h-1.7c-0.2-0.1-0.4,0.2-0.3,0.3L202.1,39.9L202.1,39.9z
			 M202.1,41.9c0,0.2,0,0.3,0.1,0.3c0.1,0.1,0.3,0.1,0.4,0.1h1.7c0.2,0,0.5,0,0.6-0.2s0.2-0.4,0.2-0.6c0-0.2,0-0.4-0.1-0.6
			c-0.1-0.1-0.2-0.2-0.6-0.2h-2.2L202.1,41.9L202.1,41.9z"/>
		<path class="st6" d="M210.4,38.9c0.4,0,0.7,0.1,0.9,0.3s0.3,0.5,0.3,1v2.3c0,0.2,0,0.4-0.2,0.5c-0.2,0.2-0.4,0.2-0.6,0.2h-2.1
			c-0.2,0-0.5,0-0.8-0.2c-0.4-0.3-0.4-0.8-0.4-1.2s0.1-0.8,0.4-1.1c0.3-0.2,0.6-0.3,0.8-0.3h1.9v-0.3c0-0.1,0-0.3-0.1-0.4
			c-0.1-0.2-0.3-0.2-0.5-0.2h-2v-0.7L210.4,38.9L210.4,38.9z M209.1,41.2c-0.1,0-0.2,0-0.4,0.2c0,0.1-0.1,0.2-0.1,0.5
			c0,0.1,0,0.4,0.1,0.5s0.2,0.1,0.3,0.1h1.3c0.1,0,0.3-0.1,0.3-0.2v-1L209.1,41.2L209.1,41.2L209.1,41.2z"/>
		<path class="st6" d="M213.4,39.6c0-0.1,0-0.3,0.1-0.5c0.2-0.2,0.5-0.2,0.7-0.2h1.5c0.5,0,0.8,0,1.2,0.4c0.2,0.2,0.4,0.5,0.4,1.1
			v2.8h-0.9v-2.5c0-0.3,0-0.6-0.2-0.8c-0.1-0.2-0.3-0.3-0.7-0.3h-1c-0.1-0.1-0.3,0.1-0.2,0.2v3.3h-0.9L213.4,39.6L213.4,39.6z"/>
		<path class="st6" d="M220.5,43.2c-0.4,0-1-0.1-1.3-0.5c-0.2-0.4-0.3-0.9-0.3-1.7c0-0.7,0.1-1.2,0.5-1.6c0.4-0.4,0.9-0.5,1.3-0.5
			h1.4c0.3,0,0.5,0,0.7,0.2s0.3,0.4,0.3,0.6v3c0,0.5-0.1,1-0.4,1.4c-0.4,0.5-1.1,0.5-1.4,0.5h-2v-0.7h1.8c0.2,0,0.6,0,0.8-0.2
			c0.1-0.1,0.2-0.3,0.3-0.5H220.5L220.5,43.2z M222.1,40c0-0.1,0-0.2-0.1-0.3s-0.2-0.1-0.3-0.1h-0.8c-0.3,0-0.6,0.1-0.7,0.3
			c-0.3,0.3-0.3,0.9-0.3,1.2c0,0.8,0.1,1.1,0.2,1.2c0.2,0.3,0.5,0.3,0.8,0.3h1.1L222.1,40L222.1,40z"/>
		<path class="st6" d="M224.7,37.5h0.9v5.7h-0.9V37.5z"/>
		<path class="st6" d="M230,38.9c0.4,0,0.7,0.1,0.9,0.3s0.3,0.5,0.3,1v2.3c0,0.2,0,0.4-0.2,0.5c-0.2,0.2-0.4,0.2-0.6,0.2h-2.1
			c-0.2,0-0.5,0-0.8-0.2c-0.4-0.3-0.4-0.8-0.4-1.2s0.1-0.8,0.4-1.1c0.3-0.2,0.6-0.3,0.8-0.3h1.9v-0.3c0-0.1,0-0.3-0.1-0.4
			c-0.1-0.2-0.3-0.2-0.5-0.2h-2.1v-0.7L230,38.9L230,38.9z M228.7,41.2c-0.1,0-0.2,0-0.4,0.2c0,0.1-0.1,0.2-0.1,0.5
			c0,0.1,0,0.4,0.1,0.5s0.2,0.1,0.3,0.1h1.3c0.1,0,0.3-0.1,0.3-0.2v-1L228.7,41.2L228.7,41.2L228.7,41.2z"/>
		<path class="st6" d="M236.7,43c-0.2,0.2-0.4,0.2-0.6,0.2h-1.7c-0.4,0-1.1-0.1-1.4-0.8c-0.1-0.3-0.2-0.6-0.2-1.4
			c0-0.5,0.1-1,0.3-1.4c0.4-0.6,1.1-0.6,1.4-0.6h1.3v-1.5h0.9v5C236.8,42.6,236.8,42.8,236.7,43z M234.8,39.6
			c-0.3,0-0.6,0.1-0.8,0.4c-0.1,0.2-0.2,0.4-0.2,1c0,0.7,0.1,0.9,0.1,1c0.2,0.4,0.6,0.5,0.9,0.5h0.8c0.1,0,0.2,0,0.3-0.1
			s0.1-0.2,0.1-0.3v-2.5L234.8,39.6L234.8,39.6z"/>
		<path class="st6" d="M240.1,43.2c-0.4,0-1-0.1-1.3-0.5s-0.3-1-0.3-1.6c0-0.8,0-1.4,0.5-1.8c0.5-0.4,1.2-0.4,1.6-0.4
			c0.5,0,1,0,1.4,0.3c0.5,0.3,0.6,0.8,0.6,1.4c0,0.2,0,0.5-0.2,0.6c-0.1,0.1-0.3,0.2-0.5,0.2h-2.5c0,0.2,0,0.5,0.1,0.6
			c0.1,0.5,0.5,0.5,0.9,0.5h2.1v0.7H240.1L240.1,43.2L240.1,43.2z M241.4,40.6c0.2,0,0.2-0.1,0.2-0.3c0-0.3-0.1-0.5-0.3-0.6
			c-0.2-0.2-0.5-0.2-0.8-0.2s-0.6,0-0.9,0.3c-0.2,0.2-0.2,0.5-0.2,0.7L241.4,40.6L241.4,40.6z"/>
		<path class="st6" d="M244.1,42.5h2.4c0.1,0,0.2,0,0.3-0.1s0.1-0.2,0.1-0.3s0-0.2-0.1-0.3s-0.2-0.1-0.8-0.3l-0.8-0.2
			c-0.9-0.2-1.2-0.8-1.1-1.3c0-0.2,0-0.5,0.2-0.7c0.3-0.4,0.7-0.4,1-0.4h2.4v0.7h-2.3c-0.1,0-0.2,0-0.3,0.1S245,39.9,245,40
			s0,0.2,0.1,0.3s0.4,0.2,0.5,0.2l0.9,0.3c0.5,0.2,0.8,0.3,1.1,0.5c0.2,0.3,0.3,0.5,0.3,0.8c0,0.2,0,0.7-0.4,0.9
			c-0.2,0.2-0.5,0.2-0.7,0.2h-2.7L244.1,42.5L244.1,42.5z"/>
		<path class="st6" d="M249.5,37.5h0.9v1.4h1.3c0.5,0,0.9,0.1,1.2,0.3c0.2,0.2,0.5,0.6,0.5,1.2v2.8h-0.9v-2.6c0-0.2,0-0.5-0.2-0.7
			s-0.5-0.3-0.7-0.3h-1.1v3.6h-0.9v-5.7H249.5z"/>
	</g>
</g>
</svg>
